SplineFontDB: 3.2
FontName: AeSchola-BoldItalic
FullName: AeSchola-BoldItalic
FamilyName: AeSchola
Weight: BoldItalic
Copyright: Copyright 2021, Palle Jorgensen.\n\nBased on TeX Gyre Schola BoldItalic, copyright 2006, 2009 for TeX Gyre extensions by B. Jackowski and J.M. Nowacki (on behalf of TeX users groups). This work is released under the GUST Font License --  see http://tug.org/fonts/licenses/GUST-FONT-LICENSE.txt for details.
Version: 1
ItalicAngle: -15
UnderlinePosition: -102
UnderlineWidth: 54
Ascent: 798
Descent: 202
InvalidEm: 0
LayerCount: 2
Layer: 0 0 "Back" 1
Layer: 1 0 "Fore" 0
XUID: [1021 259 529409426 5647698]
StyleMap: 0x0021
FSType: 12
OS2Version: 3
OS2_WeightWidthSlopeOnly: 0
OS2_UseTypoMetrics: 0
CreationTime: 1257003148
ModificationTime: 1614789416
PfmFamily: 81
TTFWeight: 700
TTFWidth: 5
LineGap: 0
VLineGap: 0
Panose: 0 0 8 0 0 0 0 0 0 0
OS2TypoAscent: 798
OS2TypoAOffset: 0
OS2TypoDescent: -202
OS2TypoDOffset: 0
OS2TypoLinegap: 200
OS2WinAscent: 1162
OS2WinAOffset: 0
OS2WinDescent: 371
OS2WinDOffset: 0
HheadAscent: 1162
HheadAOffset: 0
HheadDescent: -371
HheadDOffset: 0
OS2SubXSize: 650
OS2SubYSize: 600
OS2SubXOff: -20
OS2SubYOff: 75
OS2SupXSize: 650
OS2SupYSize: 600
OS2SupXOff: 94
OS2SupYOff: 350
OS2StrikeYSize: 54
OS2StrikeYPos: 287
OS2CapHeight: 722
OS2XHeight: 479
OS2Vendor: 'UKWN'
OS2CodePages: 20000193.00000000
OS2UnicodeRanges: 20000087.00000000.00000000.00000000
Lookup: 1 0 0 "'aalt' Access All Alternates lookup 0" { "'aalt' Access All Alternates lookup 0 subtable"  } ['aalt' ('DFLT' <'dflt' > 'cyrl' <'dflt' > 'latn' <'AZE ' 'CRT ' 'MOL ' 'NLD ' 'PLK ' 'ROM ' 'TRK ' 'dflt' > ) ]
Lookup: 3 0 0 "'aalt' Access All Alternates lookup 1" { "'aalt' Access All Alternates lookup 1 subtable"  } ['aalt' ('DFLT' <'dflt' > 'cyrl' <'dflt' > 'latn' <'AZE ' 'CRT ' 'MOL ' 'NLD ' 'PLK ' 'ROM ' 'TRK ' 'dflt' > ) ]

StartChar: acute.dup
Encoding: 65537 -1 1
Width: 333
Flags: MW
HStem: 538 21G<214 268 214 214> 702 20G<396 423>
LayerCount: 2
Fore
SplineSet
462 670 m 0
 462 651 452 636 434 626 c 2
 268 538 l 1
 214 538 l 1
 338 677 l 2
 372 714 384 722 408 722 c 0
 438 722 462 699 462 670 c 0
EndSplineSet
EndChar

StartChar: AE.dup
Encoding: 65538 -1 2
Width: 889
Flags: MW
HStem: 0 54<-74 -74 -74 138 -81 -74 198 222 222 243 514 526 526 579> 271 54<205 339 168 353> 347 54<550 567 535 589> 457 20G<814 863 814 814> 668 54<215 239 208 903 648 665 665 676>
LayerCount: 2
Fore
SplineSet
784 0 m 1
 190 0 l 1
 198 54 l 1
 222 54 l 2
 264 54 268 58 278 68 c 0
 285 76 287 76 305 144 c 2
 339 271 l 1
 168 271 l 1
 77 126 l 2
 69 113 65 102 65 92 c 0
 65 66 89 55 145 54 c 1
 138 0 l 1
 -81 0 l 1
 -74 54 l 1
 -46 60 -37 70 -3 122 c 2
 291 572 l 2
 305 593 311 609 311 624 c 0
 311 651 283 668 239 668 c 2
 208 668 l 1
 215 722 l 1
 903 722 l 1
 863 477 l 1
 814 477 l 1
 814 549 809 578 796 604 c 0
 775 646 733 668 676 668 c 2
 665 668 l 2
 631 668 618 658 608 620 c 2
 550 401 l 1
 589 401 l 2
 652 401 681 440 712 523 c 1
 759 516 l 1
 669 181 l 1
 622 188 l 1
 627 217 628 232 628 250 c 0
 628 316 607 347 567 347 c 2
 535 347 l 1
 472 111 l 2
 469 99 467 88 467 79 c 0
 467 63 483 54 514 54 c 2
 526 54 l 2
 632 54 743 137 801 259 c 1
 850 248 l 1
 784 0 l 1
442 657 m 2
 443 659 443 661 443 661 c 2
 443 664 438 667 434 667 c 0
 429 667 425 664 421 658 c 2
 205 325 l 1
 353 325 l 1
 442 657 l 2
EndSplineSet
EndChar

StartChar: ae.dup
Encoding: 65539 -1 3
Width: 815
Flags: MW
HStem: -15 59<512.5 542> -15 71<75 205.5> 290 189<124 284.5> 432 47<230 274 579.5 622>
VStem: -19 158<93.5 136.5> 68 155<344.5 362.5 336 399.5> 652 122<345 392 313.5 399.5>
LayerCount: 2
Fore
SplineSet
726 91 m 1x96
 662 19 589 -15 495 -15 c 0
 401 -15 341 23 319 98 c 1
 276 23 209 -15 118 -15 c 0
 32 -15 -19 24 -19 90 c 0
 -19 183 65 232 324 264 c 1
 337 314 341 334 341 360 c 0
 341 404 303 432 245 432 c 0x5a
 215 432 194 425 194 415 c 0
 194 405 223 371 223 354 c 0
 223 318 190 290 146 290 c 0x24
 102 290 68 323 68 366 c 0
 68 433 139 479 241 479 c 0
 328 479 379 459 421 410 c 1
 471 452 545 479 614 479 c 0
 704 479 774 426 774 358 c 0
 774 269 665 192 456 181 c 1
 453 158 453 150 453 136 c 0
 453 79 486 44 539 44 c 0
 591 44 633 66 691 126 c 1
 726 91 l 1x96
311 214 m 1
 200 204 139 167 139 109 c 0
 139 78 161 56 190 56 c 0
 221 56 253 76 277 113 c 0
 289 132 296 154 311 214 c 1
652 385 m 0
 652 414 635 432 609 432 c 0
 546 432 488 350 464 228 c 1
 565 242 652 305 652 385 c 0
EndSplineSet
EndChar

StartChar: cedilla.dup
Encoding: 65540 -1 4
Width: 333
Flags: MW
HStem: -220 45<0.5 21.5 -3.5 62> -102 44<10 95.5> -15 20G<39 84 84 84>
VStem: 56 101<-148 -127>
LayerCount: 2
Fore
SplineSet
157 -133 m 0
 157 -185 102 -220 22 -220 c 0
 -21 -220 -60 -210 -87 -191 c 1
 -65 -156 l 1
 -33 -170 -14 -175 7 -175 c 0
 36 -175 56 -159 56 -137 c 0
 56 -117 38 -102 14 -102 c 0
 6 -102 0 -103 -15 -106 c 1
 -32 -89 l 1
 39 5 l 1
 84 5 l 1
 38 -61 l 1
 51 -59 62 -58 71 -58 c 0
 120 -58 157 -90 157 -133 c 0
EndSplineSet
EndChar

StartChar: circumflex.dup
Encoding: 65541 -1 5
Width: 333
Flags: MW
HStem: 543 21G<141 208 141 141 424 483 424 424> 697 20G<298 399 399 399>
LayerCount: 2
Fore
SplineSet
483 543 m 1
 424 543 l 1
 334 629 l 1
 208 543 l 1
 141 543 l 1
 298 717 l 1
 399 717 l 1
 483 543 l 1
EndSplineSet
EndChar

StartChar: dieresis.dup
Encoding: 65542 -1 6
Width: 333
Flags: MW
HStem: 559 143<221 260 411 450>
LayerCount: 2
Fore
SplineSet
312 631 m 0
 312 591 280 559 240 559 c 0
 201 559 169 592 169 631 c 0
 169 670 201 702 241 702 c 0
 280 702 312 670 312 631 c 0
502 631 m 0
 502 591 470 559 430 559 c 0
 391 559 359 592 359 631 c 0
 359 670 391 702 431 702 c 0
 470 702 502 670 502 631 c 0
EndSplineSet
EndChar

StartChar: l.script.dup
Encoding: 65543 -1 7
Width: 503
Flags: MW
HStem: -15 52<327.5 370.5 327.5 381> 685 52<505 547.5>
LayerCount: 2
Fore
SplineSet
499 149 m 1
 477 67 418 -15 344 -15 c 0
 243 -15 204 62 202 165 c 1
 170 152 138 142 104 134 c 1
 93 185 l 1
 131 193 168 206 204 222 c 1
 208 271 218 324 232 376 c 0
 279 552 380 737 532 737 c 0
 596 737 612 667 592 595 c 0
 558 465 473 346 362 259 c 1
 334 149 311 37 344 37 c 0
 397 37 432 102 449 163 c 1
 499 149 l 1
542 608 m 0
 552 644 563 685 532 685 c 0
 478 685 426 496 386 348 c 1
 460 422 516 512 542 608 c 0
EndSplineSet
EndChar

StartChar: Gcedilla
Encoding: 65544 -1 8
Width: 815
Flags: MW
HStem: -371 21G<208 208> -213 153<278 292> -15 52<316 392.5> 282 54<430 451 423 802 737 775 775 795> 683 54<458.5 526.5 363 554.5>
VStem: 34 188<187.5 275.5 171.5 406.5>
LayerCount: 2
Fore
SplineSet
795 282 m 1
 775 282 l 2
 699 282 706 271 682 192 c 2
 627 -14 l 1
 579 -14 l 1
 560 81 l 1
 506 16 438 -15 347 -15 c 0
 181 -15 34 91 34 284 c 0
 34 529 241 737 485 737 c 0
 568 737 616 716 670 657 c 1
 730 715 l 1
 775 715 l 1
 718 432 l 1
 667 439 l 1
 664 585 611 683 498 683 c 0
 419 683 352 632 298 531 c 0
 253 447 222 322 222 229 c 0
 222 114 269 37 363 37 c 0
 426 37 480 81 504 152 c 0
 514 182 528 241 528 255 c 0
 528 278 516 282 451 282 c 2
 423 282 l 1
 430 336 l 1
 802 336 l 1
 795 282 l 1
397 -164 m 0
 397 -251 331 -323 208 -371 c 1
 189 -334 l 1
 272 -297 312 -256 312 -211 c 1
 302 -212 296 -213 288 -213 c 0
 244 -213 218 -187 218 -142 c 0
 218 -94 253 -60 303 -60 c 0
 359 -60 397 -102 397 -164 c 0
EndSplineSet
EndChar

StartChar: gcedilla
Encoding: 65545 -1 9
Width: 611
Flags: MW
HStem: -202 47<137.5 226.5 137.5 262> 157 48<267 378> 408 125<537 551.5 508.5 564.5> 432 47<303 315.5 229 335> 563 153<360 374> 854 20G<444 444>
VStem: -66 123<-108 -66> 0 119<68.5 147.5> 69 153<284 296 254.5 355.5> 329 121<-89 -73> 379 148<268.5 381.5> 379 223<344.5 486>
LayerCount: 2
Fore
SplineSet
434 645 m 0x2c
 434 597 399 563 349 563 c 0
 293 563 255 605 255 667 c 0
 255 754 321 826 444 874 c 1
 463 837 l 1
 380 800 340 759 340 714 c 1
 350 715 356 716 364 716 c 0
 408 716 434 690 434 645 c 0x2c
602 466 m 0
 602 432 580 408 549 408 c 0
 525 408 510 421 499 451 c 0
 494 463 489 468 482 468 c 0
 471 468 461 461 448 444 c 1
 499 414 527 368 527 314 c 0
 527 223 439 157 317 157 c 0
 298 157 235 162 200 167 c 0
 185 169 173 170 166 170 c 0
 139 170 119 156 119 139 c 0x6120
 119 118 134 108 168 105 c 0
 258 96 322 88 346 83 c 0
 419 66 450 30 450 -35 c 0
 450 -143 352 -202 172 -202 c 0
 21 -202 -66 -161 -66 -91 c 0x8240
 -66 -41 -26 -10 60 6 c 1
 15 30 0 51 0 86 c 0x01
 0 139 42 181 120 206 c 1
 84 236 69 264 69 304 c 0
 69 407 162 479 296 479 c 0x1080
 335 479 363 475 399 463 c 1
 448 512 487 533 530 533 c 0
 573 533 602 506 602 466 c 0
353 253 m 0
 369 285 379 328 379 361 c 0
 379 402 353 432 317 432 c 0
 289 432 267 417 251 389 c 0
 233 357 222 315 222 277 c 0
 222 232 247 205 287 205 c 0
 315 205 338 221 353 253 c 0
329 -85 m 0
 329 -61 316 -48 285 -40 c 0
 261 -34 184 -27 141 -27 c 0
 85 -27 57 -46 57 -85 c 0
 57 -131 98 -155 177 -155 c 0
 276 -155 329 -131 329 -85 c 0
EndSplineSet
EndChar

StartChar: germandbls.dup
Encoding: 65546 -1 10
Width: 574
Flags: MW
HStem: -205 21G<-66 -66> -15 47<267 292.5 250.5 349.5> 692 45<315.5 356>
VStem: 272 236<151.5 426.5> 358 150<257 269.5 151.5 319.5> 395 128<567.5 625.5 537 626>
LayerCount: 2
Fore
SplineSet
508 221 m 0xa4
 508 82 415 -15 284 -15 c 0
 250 -15 229 -11 198 1 c 1
 214 55 l 1
 230 38 242 32 259 32 c 0
 326 32 358 215 358 299 c 0x48
 358 340 346 372 325 386 c 0
 316 392 272 403 272 420 c 0x10
 272 433 280 438 300 438 c 0
 329 438 343 442 354 454 c 0
 377 477 395 538 395 597 c 0
 395 655 373 692 339 692 c 0
 292 692 265 641 242 506 c 2
 184 169 l 2
 171 94 130 -79 98 -180 c 1
 -66 -205 l 1
 -9 -64 8 -2 46 186 c 2
 92 415 l 2
 138 643 213 737 344 737 c 0
 449 737 523 672 523 579 c 0
 523 495 470 431 365 410 c 1
 462 371 508 318 508 221 c 0xa4
EndSplineSet
EndChar

StartChar: hyphen.dup
Encoding: 65547 -1 11
Width: 333
Flags: MW
HStem: 180 130<45 237 10 272>
LayerCount: 2
Fore
SplineSet
272 310 m 1
 237 180 l 1
 10 180 l 1
 45 310 l 1
 272 310 l 1
EndSplineSet
EndChar

StartChar: Kcedilla
Encoding: 65548 -1 12
Width: 778
Flags: MW
HStem: -371 21G<235 235> -213 153<305 319> 0 54<-34 -16 -16 5 305 318 -41 -16 382 413 413 436 742 749> 668 54<113 124 105 488 438 459 459 481 113 526 533 561 825 825>
LayerCount: 2
Fore
SplineSet
749 0 m 1
 375 0 l 1
 382 54 l 1
 413 54 l 2
 459 54 473 59 473 76 c 0
 473 84 473 84 462 107 c 2
 360 320 l 1
 276 243 l 1
 250 144 l 2
 240 110 236 90 236 81 c 0
 236 59 240 54 305 54 c 2
 326 54 l 1
 318 0 l 1
 -41 0 l 1
 -34 54 l 1
 -16 54 l 2
 26 54 36 59 47 68 c 0
 55 76 55 76 74 145 c 2
 189 578 l 2
 199 613 203 632 203 641 c 0
 203 663 189 668 124 668 c 2
 105 668 l 1
 113 722 l 1
 488 722 l 1
 481 668 l 1
 459 668 l 2
 417 668 403 664 393 654 c 0
 384 646 384 646 366 578 c 2
 305 353 l 1
 572 601 l 2
 593 621 602 633 602 643 c 0
 602 659 587 668 561 668 c 2
 526 668 l 1
 533 722 l 1
 832 722 l 1
 825 668 l 1
 755 664 712 644 653 587 c 2
 491 437 l 1
 634 129 l 2
 666 59 673 54 742 54 c 2
 757 54 l 1
 749 0 l 1
424 -164 m 0
 424 -251 358 -323 235 -371 c 1
 216 -334 l 1
 299 -297 339 -256 339 -211 c 1
 329 -212 323 -213 315 -213 c 0
 271 -213 245 -187 245 -142 c 0
 245 -94 280 -60 330 -60 c 0
 386 -60 424 -102 424 -164 c 0
EndSplineSet
EndChar

StartChar: kcedilla
Encoding: 65549 -1 13
Width: 648
Flags: MW
HStem: -371 21G<-27 -27> -213 153<43 57> -15 80<370.5 477.5> 396 83<379 498> 675 54 716 20G<371 371>
VStem: 444 137<357.5 364.5>
LayerCount: 2
Fore
SplineSet
584 135 m 1x36
 533 30 479 -15 403 -15 c 0
 338 -15 301 24 301 93 c 0
 301 111 303 129 306 148 c 0
 309 162 310 173 310 181 c 0
 310 186 309 191 305 198 c 1
 297 197 289 197 284 197 c 0
 262 197 248 208 248 226 c 0
 248 244 263 257 284 257 c 0
 297 257 305 255 330 244 c 1
 406 269 444 305 444 351 c 0
 444 378 425 396 397 396 c 0
 361 396 326 372 280 316 c 0
 240 268 218 220 189 123 c 2
 152 0 l 1
 -5 0 l 1
 166 578 l 2
 178 619 182 634 182 644 c 0
 182 669 170 675 120 675 c 2
 97 675 l 1xfa
 103 722 l 1
 371 736 l 1
 262 371 l 1
 340 452 391 479 463 479 c 0
 533 479 581 439 581 381 c 0
 581 334 549 291 489 258 c 0
 461 242 432 230 387 215 c 1
 433 189 443 167 450 84 c 0
 451 72 457 65 466 65 c 0
 489 65 517 100 541 158 c 1
 584 135 l 1x36
162 -164 m 0
 162 -251 96 -323 -27 -371 c 1
 -46 -334 l 1
 37 -297 77 -256 77 -211 c 1
 67 -212 61 -213 53 -213 c 0
 9 -213 -17 -187 -17 -142 c 0
 -17 -94 18 -60 68 -60 c 0
 124 -60 162 -102 162 -164 c 0
EndSplineSet
EndChar

StartChar: Lcedilla
Encoding: 65550 -1 14
Width: 704
Flags: MW
HStem: -371 21G<241 241> -213 153<311 325> 0 54<-34 -14 -14 7 289 325 325 382.5 -41 -14> 668 54<113 124 105 495 448 469 469 487>
LayerCount: 2
Fore
SplineSet
602 0 m 1
 -41 0 l 1
 -34 54 l 1
 -14 54 l 2
 28 54 36 58 47 68 c 0
 55 76 55 76 73 144 c 2
 190 578 l 2
 199 613 203 632 203 641 c 0
 203 663 189 668 124 668 c 2
 105 668 l 1
 113 722 l 1
 495 722 l 1
 487 668 l 1
 469 668 l 2
 427 668 403 664 393 654 c 0
 384 646 384 646 366 578 c 2
 250 144 l 2
 240 109 235 89 236 80 c 0
 236 60 249 54 289 54 c 2
 325 54 l 2
 440 54 559 135 618 266 c 1
 670 255 l 1
 602 0 l 1
430 -164 m 0
 430 -251 364 -323 241 -371 c 1
 222 -334 l 1
 305 -297 345 -256 345 -211 c 1
 335 -212 329 -213 321 -213 c 0
 277 -213 251 -187 251 -142 c 0
 251 -94 286 -60 336 -60 c 0
 392 -60 430 -102 430 -164 c 0
EndSplineSet
EndChar

StartChar: lcedilla
Encoding: 65551 -1 15
Width: 389
Flags: MW
HStem: -371 21G<-25 -25> -213 153<45 59> -15 78<97.5 204> 675 54 716 20G<370 370>
VStem: 26 152<75 82.5 75 87.5>
LayerCount: 2
Fore
SplineSet
339 149 m 1x2c
 318 111 288 74 253 41 c 0
 212 2 174 -15 128 -15 c 0
 67 -15 26 22 26 76 c 0
 26 99 31 125 49 182 c 2
 166 578 l 2
 177 615 181 633 181 644 c 0
 181 669 169 675 120 675 c 2
 96 675 l 1xf4
 103 722 l 1
 370 736 l 1
 188 122 l 1
 183 106 l 2
 180 96 178 85 178 80 c 0
 178 70 185 63 193 63 c 0
 215 63 260 110 300 176 c 1
 339 149 l 1x2c
164 -164 m 0
 164 -251 98 -323 -25 -371 c 1
 -44 -334 l 1
 39 -297 79 -256 79 -211 c 1
 69 -212 63 -213 55 -213 c 0
 11 -213 -15 -187 -15 -142 c 0
 -15 -94 20 -60 70 -60 c 0
 126 -60 164 -102 164 -164 c 0
EndSplineSet
EndChar

StartChar: macron.dup
Encoding: 65552 -1 16
Width: 333
Flags: MW
HStem: 592 76<179 492 158 513>
LayerCount: 2
Fore
SplineSet
513 668 m 1
 492 592 l 1
 158 592 l 1
 179 668 l 1
 513 668 l 1
EndSplineSet
EndChar

StartChar: Ncedilla
Encoding: 65553 -1 17
Width: 852
Flags: MW
HStem: -371 21G<219 219> -213 153<289 303> -14 21G<544 624 544 544> 0 54<-50 -50 214 227 -57 -50> 668 54<96 145 89 350 635 658 888 905>
LayerCount: 2
Fore
SplineSet
905 668 m 1x18
 871 668 844 659 824 641 c 0
 796 614 794 611 763 505 c 2
 624 -14 l 1
 544 -14 l 1xe8
 248 552 l 1
 158 217 l 2
 138 137 137 130 137 109 c 0
 137 72 156 54 214 54 c 2
 235 54 l 1
 227 0 l 1
 -57 0 l 1
 -50 54 l 1
 -16 55 11 64 31 81 c 0
 59 107 61 113 91 217 c 2
 204 636 l 1
 192 659 176 668 145 668 c 2
 89 668 l 1
 96 722 l 1
 350 722 l 1
 618 215 l 1
 696 505 l 2
 717 585 718 591 718 613 c 0
 718 650 688 668 628 668 c 1
 635 722 l 1
 912 722 l 1
 905 668 l 1x18
408 -164 m 0
 408 -251 342 -323 219 -371 c 1
 200 -334 l 1
 283 -297 323 -256 323 -211 c 1
 313 -212 307 -213 299 -213 c 0
 255 -213 229 -187 229 -142 c 0
 229 -94 264 -60 314 -60 c 0
 370 -60 408 -102 408 -164 c 0
EndSplineSet
EndChar

StartChar: ncedilla
Encoding: 65554 -1 18
Width: 685
Flags: MW
HStem: -371 21G<124 124> -213 153<194 208> -15 81<400 506> 394 85<378 491> 417 62
VStem: 329 154<78 86 78 89> 420 151<364.5 374.5>
LayerCount: 2
Fore
SplineSet
642 152 m 1x24
 565 33 504 -15 431 -15 c 0
 369 -15 329 20 329 76 c 0xe4
 329 102 333 117 349 163 c 2
 411 332 l 2
 417 348 420 361 420 368 c 0
 420 381 405 394 390 394 c 0x12
 366 394 333 370 295 325 c 0
 251 272 226 220 198 127 c 2
 160 0 l 1
 3 0 l 1
 98 319 l 2
 109 357 113 375 113 386 c 0
 113 411 101 417 52 417 c 2
 28 417 l 1
 35 464 l 1
 285 478 l 1
 253 346 l 1
 328 442 385 479 458 479 c 0
 524 479 571 436 571 376 c 0x0a
 571 343 563 309 540 248 c 2
 493 120 l 2
 483 90 483 90 483 82 c 0
 483 74 490 66 497 66 c 0
 515 66 541 92 594 166 c 1
 603 177 l 1
 642 152 l 1x24
313 -164 m 0
 313 -251 247 -323 124 -371 c 1
 105 -334 l 1
 188 -297 228 -256 228 -211 c 1
 218 -212 212 -213 204 -213 c 0
 160 -213 134 -187 134 -142 c 0
 134 -94 169 -60 219 -60 c 0
 275 -60 313 -102 313 -164 c 0
EndSplineSet
EndChar

StartChar: OE.dup
Encoding: 65555 -1 19
Width: 963
Flags: MW
HStem: 0 54<262.5 307 307 328.5 596 624 624 670.5> 347 54<638 655 624 678> 457 20G<891 940 891 891> 668 54<407 980 733 747 747 764>
VStem: 19 170<193.5 270 169 349.5>
LayerCount: 2
Fore
SplineSet
862 0 m 1
 307 0 l 2
 122 0 19 106 19 281 c 0
 19 418 88 557 199 642 c 0
 277 701 349 722 478 722 c 2
 980 722 l 1
 940 477 l 1
 891 477 l 1
 891 549 887 578 873 604 c 0
 851 646 814 668 764 668 c 2
 747 668 l 2
 719 668 706 655 697 620 c 2
 638 401 l 1
 678 401 l 2
 733 401 759 441 791 523 c 1
 837 516 l 1
 747 181 l 1
 701 188 l 1
 705 218 706 231 706 249 c 0
 706 306 696 347 655 347 c 2
 624 347 l 1
 560 111 l 2
 557 99 555 86 555 79 c 0
 555 64 571 54 596 54 c 2
 624 54 l 2
 717 54 828 154 879 259 c 1
 928 248 l 1
 862 0 l 1
397 157 m 2
 498 534 l 2
 505 560 509 589 509 609 c 0
 509 648 485 668 440 668 c 0
 374 668 326 633 280 551 c 0
 225 453 189 322 189 218 c 0
 189 120 221 54 304 54 c 0
 353 54 376 78 397 157 c 2
EndSplineSet
EndChar

StartChar: oe.dup
Encoding: 65556 -1 20
Width: 852
Flags: MW
HStem: -15 21G<504.5 582> -14 43<194 236 194 245.5> -14 58 432 47<262.5 324.5 613 657.5>
VStem: -5 155<129 176.5 83 266> 688 122<345.5 393 313.5 399>
LayerCount: 2
Fore
SplineSet
761 91 m 1x3c
 700 21 625 -15 539 -15 c 0x80
 470 -15 431 1 385 46 c 1
 323 -1 283 -14 208 -14 c 0
 68 -14 -5 70 -5 188 c 0
 -5 344 139 479 307 479 c 0
 377 479 424 459 465 412 c 1
 519 458 575 479 644 479 c 0
 740 479 810 428 810 358 c 0
 810 269 701 192 491 181 c 1
 489 159 488 150 488 137 c 0
 488 79 521 44 575 44 c 0
 627 44 669 67 727 126 c 1
 761 91 l 1x3c
320 134 m 0
 348 204 370 302 370 354 c 0
 370 401 344 432 305 432 c 0
 220 432 150 245 150 108 c 0
 150 58 174 29 214 29 c 0x5c
 258 29 292 64 320 134 c 0
688 385 m 0
 688 413 671 432 644 432 c 0
 582 432 524 350 500 228 c 1
 607 245 688 306 688 385 c 0
EndSplineSet
EndChar

StartChar: Oslash.dup
Encoding: 65557 -1 21
Width: 833
Flags: MW
HStem: -83 21G<17 82 17 17> -15 55<317 378 317 466.5> 682 55<450 509> 753 20G<713 778 778 778>
VStem: 36 179<239 242.5 192 408.5> 613 184<465 485.5 317.5 523>
LayerCount: 2
Fore
SplineSet
797 441 m 0
 797 194 589 -15 344 -15 c 0
 279 -15 216 0 172 27 c 1
 82 -83 l 1
 17 -83 l 1
 131 57 l 1
 69 111 36 192 36 286 c 0
 36 531 241 737 485 737 c 0
 549 737 604 724 652 697 c 1
 713 773 l 1
 778 773 l 1
 692 667 l 1
 761 607 797 530 797 441 c 0
591 623 m 1
 569 661 531 682 487 682 c 0
 413 682 352 631 300 528 c 0
 252 429 215 288 215 197 c 0
 215 187 216 175 217 163 c 1
 591 623 l 1
533 197 m 0
 581 289 613 416 613 514 c 0
 613 532 612 544 610 566 c 1
 234 104 l 1
 256 62 293 40 341 40 c 0
 415 40 477 91 533 197 c 0
EndSplineSet
EndChar

StartChar: oslash.dup
Encoding: 65558 -1 22
Width: 574
Flags: MW
HStem: -126 21G<46 100 46 46> -14 43<221 250.5 221 311> 431 47<298.5 326> 558 20G<449 503 503 503>
VStem: 10 155<105 264.5> 385 155<200.5 354.5>
LayerCount: 2
Fore
SplineSet
540 285 m 0
 540 116 401 -14 221 -14 c 0
 202 -14 187 -13 167 -10 c 1
 100 -126 l 1
 46 -126 l 1
 120 4 l 1
 50 35 10 101 10 187 c 0
 10 342 154 478 319 478 c 0
 340 478 360 476 388 471 c 1
 449 578 l 1
 503 578 l 1
 433 457 l 1
 503 426 540 367 540 285 c 0
358 419 m 1
 346 427 333 431 319 431 c 0
 278 431 240 393 210 322 c 0
 184 259 165 167 165 108 c 0
 165 102 166 96 167 86 c 1
 358 419 l 1
335 133 m 0
 363 203 385 301 385 353 c 0
 385 356 385 361 384 370 c 1
 194 38 l 1
 204 32 214 29 228 29 c 0
 273 29 308 63 335 133 c 0
EndSplineSet
EndChar

StartChar: quoteleft.dup
Encoding: 65559 -1 23
Width: 259
Flags: MW
HStem: 391 171<156 171> 717 20G<249 249>
VStem: 39 97<472.5 584.5> 39 199<472.5 508 456 555.5>
LayerCount: 2
Fore
SplineSet
238 483 m 0xe0
 238 429 199 391 143 391 c 0
 82 391 39 438 39 507 c 0
 39 604 113 685 249 737 c 1
 270 696 l 1
 180 655 136 610 136 559 c 1
 146 561 152 562 160 562 c 0
 209 562 238 533 238 483 c 0xe0
EndSplineSet
EndChar

StartChar: quoteright.dup
Encoding: 65560 -1 24
Width: 259
Flags: MW
HStem: 377 21G<91 91> 552 170<169 184.5>
VStem: 102 199<606 641 558.5 658> 207 94<529.5 641>
LayerCount: 2
Fore
SplineSet
301 607 m 0x60
 301 510 227 429 91 377 c 1
 70 417 l 1
 162 459 207 504 207 555 c 1x90
 195 553 189 552 180 552 c 0
 131 552 102 581 102 631 c 0
 102 685 141 722 197 722 c 0
 258 722 301 675 301 607 c 0x60
EndSplineSet
EndChar

StartChar: Rcedilla
Encoding: 65561 -1 25
Width: 796
Flags: MW
HStem: -371 21G<154 154> -213 153<224 238> -15 76<525 642> 0 54<-34 -14 -14 7 315 333 -41 -14> 350 54<319 344 304 353> 668 54<112 126 105 459 416 434 434 459>
VStem: 567 184<543 601.5>
LayerCount: 2
Fore
SplineSet
742 136 m 1x26
 708 33 652 -15 567 -15 c 0xee
 483 -15 424 44 424 127 c 0
 424 161 436 230 436 269 c 0
 436 324 403 350 344 350 c 2
 304 350 l 1
 249 144 l 2
 240 112 236 90 236 81 c 0
 236 59 250 54 315 54 c 2
 341 54 l 1
 333 0 l 1
 -41 0 l 1
 -34 54 l 1
 -14 54 l 2x18
 28 54 36 58 46 68 c 0
 55 76 55 76 73 144 c 2
 189 578 l 2
 200 618 203 632 203 641 c 0
 203 663 191 668 126 668 c 2
 105 668 l 1
 112 722 l 1
 459 722 l 2
 656 722 751 680 751 555 c 0
 751 441 653 374 464 359 c 1
 561 332 603 282 603 181 c 2
 603 147 l 2
 603 81 603 81 610 72 c 0
 615 65 621 61 628 61 c 0
 656 61 677 97 699 157 c 1
 742 136 l 1x26
567 570 m 0
 567 633 529 668 459 668 c 2
 434 668 l 2
 398 668 388 661 380 630 c 2
 319 404 l 1
 353 404 l 2
 443 404 468 409 502 435 c 0
 542 465 567 516 567 570 c 0
343 -164 m 0
 343 -251 277 -323 154 -371 c 1
 135 -334 l 1
 218 -297 258 -256 258 -211 c 1
 248 -212 242 -213 234 -213 c 0
 190 -213 164 -187 164 -142 c 0
 164 -94 199 -60 249 -60 c 0
 305 -60 343 -102 343 -164 c 0
EndSplineSet
EndChar

StartChar: rcedilla
Encoding: 65562 -1 26
Width: 519
Flags: MW
HStem: -371 21G<-27 -27> -213 153<43 57> 0 21G<3 160 3 3> 308 163 417 54 459 20G<398 459>
LayerCount: 2
Fore
SplineSet
524 391 m 0x04
 524 344 492 308 449 308 c 0xd0
 417 308 389 328 382 357 c 0
 380 365 379 373 379 388 c 0
 379 397 376 401 369 401 c 0
 361 401 344 390 329 375 c 0
 280 328 230 235 202 139 c 2
 160 0 l 1
 3 0 l 1
 98 319 l 2
 109 356 113 375 113 386 c 0
 113 411 101 417 52 417 c 2
 28 417 l 1x28
 35 464 l 1
 285 478 l 1
 254 351 l 1
 316 444 365 479 431 479 c 0
 487 479 524 444 524 391 c 0x04
162 -164 m 0
 162 -251 96 -323 -27 -371 c 1
 -46 -334 l 1
 37 -297 77 -256 77 -211 c 1
 67 -212 61 -213 53 -213 c 0
 9 -213 -17 -187 -17 -142 c 0
 -17 -94 18 -60 68 -60 c 0
 124 -60 162 -102 162 -164 c 0
EndSplineSet
EndChar

StartChar: tilde.dup
Encoding: 65563 -1 27
Width: 333
Flags: MW
HStem: 567 86<415.5 427.5> 609 84<241 246.5>
LayerCount: 2
Fore
SplineSet
520 693 m 1x40
 517 626 459 567 396 567 c 0x80
 375 567 350 573 311 588 c 0
 266 606 254 609 239 609 c 0x40
 217 609 202 594 197 567 c 1
 150 567 l 1x80
 155 640 208 693 274 693 c 0x40
 294 693 320 687 353 674 c 0
 401 655 408 653 423 653 c 0x80
 448 653 465 667 473 693 c 1
 520 693 l 1x40
EndSplineSet
EndChar

StartChar: A
Encoding: 65 65 28
Width: 741
Flags: MW
TeX: 678 0
HStem: 0 54<-68 -52 -52 -30 196 211 -75 -52 342 358 358 378.5 702 709> 220 54<217 404 217 417 185 404> 716 20G<419 481 481 481>
LayerCount: 2
Fore
SplineSet
709 0 m 1
 335 0 l 1
 342 54 l 1
 358 54 l 2
 399 54 410 55 424 62 c 0
 434 66 441 76 441 85 c 0
 441 92 440 103 437 117 c 2
 417 220 l 1
 185 220 l 1
 139 139 l 2
 130 124 125 108 125 96 c 0
 125 67 140 54 196 54 c 2
 219 54 l 1
 211 0 l 1
 -75 0 l 1
 -68 54 l 1
 -52 54 l 2
 -8 54 33 93 71 157 c 2
 419 736 l 1
 481 736 l 1
 612 114 l 2
 622 67 641 54 702 54 c 2
 716 54 l 1
 709 0 l 1
404 274 m 1
 358 515 l 1
 217 274 l 1
 404 274 l 1
EndSplineSet
Substitution2: "'c2sc' Capitals to Small Capitals lookup 15 subtable" a.sc
Substitution2: "'aalt' Access All Alternates lookup 0 subtable" a.sc
Position2: "'cpsp' Capital Spacing lookup 0 subtable" dx=7 dy=0 dh=14 dv=0
EndChar

StartChar: a
Encoding: 97 97 29
Width: 667
Flags: MW
TeX: 457 0
HStem: -15 85<408.5 511.5> -14 70<220.5 222.5> 424 55<292 330.5 227 351.5>
VStem: 15 163<114 192 111 248> 351 138<46.5 89.5>
LayerCount: 2
Fore
SplineSet
646 157 m 1xb8
 586 56 507 -15 436 -15 c 0x80
 381 -15 351 20 351 73 c 1
 303 11 257 -14 188 -14 c 0x48
 87 -14 15 61 15 167 c 0
 15 329 153 479 301 479 c 0
 360 479 402 458 426 416 c 1
 440 464 l 1
 597 464 l 1
 499 132 l 2
 489 93 489 93 489 86 c 0
 489 78 496 70 503 70 c 0
 520 70 570 124 607 182 c 1
 646 157 l 1xb8
395 351 m 0
 395 394 370 424 333 424 c 0
 251 424 178 249 178 135 c 0
 178 87 202 56 239 56 c 0x70
 322 56 395 249 395 351 c 0
EndSplineSet
Substitution2: "'smcp' Lowercase to Small Capitals lookup 3 subtable" a.sc
Substitution2: "'aalt' Access All Alternates lookup 0 subtable" a.sc
EndChar

StartChar: ampersand
Encoding: 38 38 30
Width: 889
Flags: MW
TeX: 678 0
ItalicCorrection: 5
HStem: -15 82<560 678.5> 685 52<457.5 497>
VStem: 31 168<191.5 242> 255 155<559 596.5> 540 114<582.5 633.5>
LayerCount: 2
Fore
SplineSet
806 120 m 1
 748 30 675 -15 589 -15 c 0
 531 -15 477 7 439 48 c 1
 380 6 318 -15 248 -15 c 0
 119 -15 31 63 31 179 c 0
 31 305 112 366 270 425 c 1
 258 471 255 495 255 528 c 0
 255 665 337 737 472 737 c 0
 584 737 654 684 654 599 c 0
 654 517 593 468 439 425 c 1
 456 355 501 248 541 182 c 1
 606 249 626 277 626 304 c 0
 626 326 621 340 541 346 c 1
 547 397 l 1
 823 397 l 1
 817 346 l 1
 746 340 726 325 633 203 c 0
 623 190 601 166 569 134 c 1
 614 80 633 67 663 67 c 0
 694 67 728 94 767 150 c 1
 806 120 l 1
540 612 m 0
 540 655 515 685 479 685 c 0
 436 685 410 644 410 575 c 0
 410 543 414 515 425 477 c 1
 499 506 540 553 540 612 c 0
406 90 m 1
 353 175 315 263 283 372 c 1
 227 346 199 302 199 240 c 0
 199 143 257 69 334 69 c 0
 360 69 377 74 406 90 c 1
EndSplineSet
Substitution2: "'lnum' Lining Figures lookup 6 subtable" ampersand
Substitution2: "'onum' Oldstyle Figures lookup 5 subtable" ampersand
Substitution2: "'aalt' Access All Alternates lookup 0 subtable" ampersand
EndChar

StartChar: asciicircum
Encoding: 94 94 31
Width: 606
Flags: MW
TeX: 678 0
HStem: 318 21G<52 171 52 52 435 554 435 435> 702 20G<261 346 346 346>
LayerCount: 2
Fore
SplineSet
554 318 m 1
 435 318 l 1
 304 568 l 1
 171 318 l 1
 52 318 l 1
 261 722 l 1
 346 722 l 1
 554 318 l 1
EndSplineSet
EndChar

StartChar: asciitilde
Encoding: 126 126 32
Width: 606
Flags: MW
TeX: 323 0
HStem: 160 114<399.5 415.5 396.5 438.5> 221 114<190.5 206.5 167.5 209.5>
LayerCount: 2
Fore
SplineSet
555 273 m 1x80
 514 198 466 160 411 160 c 0x80
 388 160 366 165 321 183 c 2
 268 202 l 2
 225 219 217 221 202 221 c 0
 179 221 163 209 135 169 c 1
 51 222 l 1
 91 297 140 335 195 335 c 0x40
 218 335 240 329 285 312 c 2
 338 293 l 2
 381 276 389 274 404 274 c 0
 427 274 443 286 471 326 c 1
 555 273 l 1x80
EndSplineSet
EndChar

StartChar: asterisk
Encoding: 42 42 33
Width: 500
Flags: MW
TeX: 678 0
HStem: 297 215<159 220.5> 422 90<69 168> 522 90<332.5 435> 522 215<283.5 342>
VStem: 160 99<340 358> 245 102<675.5 694.5>
LayerCount: 2
Fore
SplineSet
472 563 m 0x24
 472 534 446 511 413 511 c 0
 402 511 402 511 366 518 c 0
 355 521 345 522 339 522 c 0
 326 522 313 520 295 515 c 2
 278 510 l 1
 290 498 l 2
 321 468 321 468 374 451 c 0
 407 440 426 419 426 392 c 0
 426 365 404 343 377 343 c 0
 360 343 344 352 332 367 c 0
 324 377 323 379 310 419 c 0
 302 444 295 455 272 479 c 2
 259 492 l 1
 254 474 l 2
 249 456 247 442 247 430 c 0
 247 421 247 420 256 378 c 0
 258 371 259 363 259 356 c 0
 259 324 235 297 206 297 c 0x98
 180 297 160 319 160 347 c 0
 160 369 165 378 197 417 c 0
 214 437 219 448 228 481 c 2
 233 499 l 1
 216 494 l 2
 175 482 174 481 134 444 c 0
 117 430 100 422 83 422 c 0x48
 55 422 32 443 32 470 c 0
 32 498 59 521 93 521 c 0
 103 521 103 521 138 515 c 0
 148 513 156 512 162 512 c 0
 174 512 190 515 209 520 c 2
 226 524 l 1
 214 537 l 2
 183 566 181 567 130 583 c 0
 97 594 78 616 78 643 c 0
 78 669 98 690 123 690 c 0
 141 690 158 681 170 665 c 0
 178 654 179 652 193 615 c 0
 202 590 208 581 232 556 c 2
 245 543 l 1
 250 560 l 2
 255 578 257 593 257 604 c 0
 257 614 257 615 248 656 c 0
 246 664 245 672 245 679 c 0
 245 710 269 737 298 737 c 0x94
 325 737 347 714 347 686 c 0
 347 663 342 655 308 617 c 0
 290 597 285 586 275 553 c 2
 271 536 l 1
 288 541 l 2
 328 553 329 553 370 590 c 0
 387 605 403 612 421 612 c 0
 449 612 472 590 472 563 c 0x24
EndSplineSet
EndChar

StartChar: at
Encoding: 64 64 34
Width: 747
Flags: MW
TeX: 678 0
HStem: -15 61<303 441.5 303 448> 145 51<292 316> 145 63 523 51<367.5 405.5 318.5 417> 676 61<301 465.5>
VStem: 22 65<275.5 454.5 275.5 466> 159 101<252 303 236.5 356.5> 657 65<368.5 493>
LayerCount: 2
Fore
SplineSet
712 190 m 1xbf
 659 58 510 -15 386 -15 c 0
 184 -15 22 152 22 362 c 0
 22 570 185 737 388 737 c 0
 574 737 722 599 722 425 c 0
 722 281 605 147 479 147 c 0
 433 147 402 170 402 204 c 0
 402 207 403 213 404 220 c 1
 377 169 341 145 291 145 c 0
 216 145 159 210 159 294 c 0
 159 419 253 574 384 574 c 0
 427 574 453 560 477 522 c 1
 489 556 l 1
 593 556 l 1
 501 268 l 2
 496 253 494 240 494 231 c 0
 494 216 502 208 518 208 c 0
 593 208 657 319 657 418 c 0
 657 568 544 676 387 676 c 0
 215 676 87 543 87 366 c 0
 87 185 218 46 388 46 c 0
 495 46 586 97 643 190 c 1
 712 190 l 1xbf
452 477 m 0
 452 502 430 523 404 523 c 0
 331 523 260 350 260 256 c 0
 260 217 277 196 307 196 c 0x52
 339 196 368 225 392 280 c 0
 419 343 452 452 452 477 c 0
EndSplineSet
Substitution2: "'ss02' Style Set 2 lookup 18 subtable" at.alt
Substitution2: "'ss01' Style Set 1 lookup 17 subtable" at.alt
Substitution2: "'salt' Stylistic Alternatives lookup 16 subtable" at.alt
Substitution2: "'aalt' Access All Alternates lookup 0 subtable" at.alt
EndChar

StartChar: B
Encoding: 66 66 35
Width: 759
Flags: MW
TeX: 678 0
HStem: 0 54<-43 -29 -29 -8 280 313 313 368 -50 -29> 343 54<308 339 339 344 294 339> 668 54<104 115 96 456 407 425 425 440>
VStem: 492 191<177.5 242 122.5 270> 537 183<537 599.5>
LayerCount: 2
Fore
SplineSet
683 195 m 0xa8
 683 50 542 0 368 0 c 2
 -50 0 l 1
 -43 54 l 1
 -29 54 l 2
 13 54 27 58 38 68 c 0
 46 76 46 76 64 144 c 2
 181 578 l 2
 190 611 194 632 194 641 c 0
 194 663 180 668 115 668 c 2
 96 668 l 1
 104 722 l 1
 456 722 l 2
 645 722 720 658 720 551 c 0
 720 451 637 385 489 368 c 1
 620 345 683 289 683 195 c 0xa8
537 567 m 0
 537 632 502 668 440 668 c 2
 425 668 l 2
 389 668 378 657 365 608 c 2
 308 397 l 1
 339 397 l 2
 410 397 438 403 468 423 c 0
 511 452 537 507 537 567 c 0
492 233 m 0
 492 307 469 343 344 343 c 2
 294 343 l 1
 235 122 l 2
 229 101 227 91 227 84 c 0
 227 63 244 54 280 54 c 2
 313 54 l 2
 432 54 492 122 492 233 c 0
EndSplineSet
Substitution2: "'c2sc' Capitals to Small Capitals lookup 15 subtable" b.sc
Substitution2: "'aalt' Access All Alternates lookup 0 subtable" b.sc
Position2: "'cpsp' Capital Spacing lookup 0 subtable" dx=7 dy=0 dh=14 dv=0
EndChar

StartChar: b
Encoding: 98 98 36
Width: 611
Flags: MW
TeX: 728 0
HStem: -15 43<217.5 256.5 217.5 273> 408 71<310.5 436.5> 675 54 716 20G<351 351>
VStem: 28 143<96.5 129 81.5 161> 394 163<311.5 354.5>
LayerCount: 2
Fore
SplineSet
557 307 m 0x50
 557 223 515 133 446 69 c 0
 386 13 314 -15 232 -15 c 0
 109 -15 28 48 28 145 c 0
 28 177 29 180 50 252 c 2
 147 578 l 2
 160 622 163 634 163 644 c 0
 163 669 151 675 101 675 c 2
 77 675 l 1xec
 84 722 l 1
 351 736 l 1
 260 427 l 1
 305 465 341 479 389 479 c 0
 484 479 557 405 557 307 c 0x50
347 141 m 0
 371 195 394 290 394 333 c 0
 394 376 367 408 330 408 c 0
 291 408 259 378 228 316 c 0
 197 253 171 154 171 104 c 0
 171 59 198 28 237 28 c 0
 276 28 314 67 347 141 c 0
EndSplineSet
Substitution2: "'smcp' Lowercase to Small Capitals lookup 3 subtable" b.sc
Substitution2: "'aalt' Access All Alternates lookup 0 subtable" b.sc
EndChar

StartChar: backslash
Encoding: 92 92 37
Width: 606
Flags: MW
TeX: 728 0
HStem: 0 21G<449 545 449 449> 702 20G<81 177 177 177>
LayerCount: 2
Fore
SplineSet
545 0 m 1
 449 0 l 1
 81 722 l 1
 177 722 l 1
 545 0 l 1
EndSplineSet
EndChar

StartChar: bar
Encoding: 124 124 38
Width: 606
Flags: MW
TeX: 644 149
HStem: -108 21G<248 348 248 248> 702 20G<248 348 348 348>
VStem: 248 100<-108 722>
LayerCount: 2
Fore
SplineSet
348 -108 m 1
 248 -108 l 1
 248 722 l 1
 348 722 l 1
 348 -108 l 1
EndSplineSet
EndChar

StartChar: braceleft
Encoding: 123 123 39
Width: 407
Flags: MW
TeX: 728 103
HStem: -108 21G<112.5 140 140 182> 702 20G<371 402 402 402>
VStem: 52 95<-33.5 -8.5> 103 102<234.5 241.5>
LayerCount: 2
Fore
SplineSet
194 -65 m 1x20
 182 -108 l 1
 140 -108 l 2
 85 -108 52 -76 52 -21 c 0xa0
 52 4 56 29 69 74 c 2
 90 154 l 2
 102 198 103 205 103 225 c 0x10
 103 258 89 275 52 285 c 1x20
 64 329 l 1
 129 345 152 372 172 462 c 1
 202 572 l 2
 232 683 276 722 371 722 c 2
 402 722 l 1
 390 679 l 1
 341 674 319 645 294 553 c 2
 261 432 l 2
 238 355 206 322 140 307 c 1
 184 294 205 273 205 240 c 0x50
 205 229 201 206 192 175 c 2
 164 71 l 2
 150 19 147 2 147 -16 c 0
 147 -51 158 -63 194 -65 c 1x20
EndSplineSet
EndChar

StartChar: braceright
Encoding: 125 125 40
Width: 407
Flags: MW
TeX: 728 103
HStem: -108 21G<-30 1 -30 -30> 702 20G<190 232 232 259.5>
VStem: 167 102<372 380> 225 95<622.5 647.5>
LayerCount: 2
Fore
SplineSet
322 329 m 1x20
 310 285 l 1
 244 271 220 242 200 152 c 1
 170 42 l 2
 140 -69 96 -108 1 -108 c 2
 -30 -108 l 1
 -18 -65 l 1
 31 -60 53 -31 78 61 c 2
 111 182 l 2
 134 259 166 292 232 307 c 1
 188 320 167 341 167 374 c 0xa0
 167 386 171 406 180 439 c 2
 208 543 l 2
 222 595 225 612 225 630 c 0
 225 665 214 677 178 679 c 1
 190 722 l 1
 232 722 l 2
 287 722 320 690 320 635 c 0x50
 320 610 316 586 304 540 c 2
 282 460 l 2
 270 416 269 410 269 389 c 0
 269 355 284 338 322 329 c 1x20
EndSplineSet
EndChar

StartChar: bracketleft
Encoding: 91 91 41
Width: 407
Flags: MW
TeX: 728 103
HStem: -108 44<103 210> 678 44<302 420 302 302>
LayerCount: 2
Fore
SplineSet
210 -108 m 1
 -31 -108 l 1
 191 722 l 1
 432 722 l 1
 420 678 l 1
 302 678 l 1
 103 -64 l 1
 221 -64 l 1
 210 -108 l 1
EndSplineSet
EndChar

StartChar: bracketright
Encoding: 93 93 42
Width: 407
Flags: MW
TeX: 728 103
HStem: -108 44<-37 81 -37 192 -49 81> 678 44<173 280 162 414>
LayerCount: 2
Fore
SplineSet
192 -108 m 1
 -49 -108 l 1
 -37 -64 l 1
 81 -64 l 1
 280 678 l 1
 162 678 l 1
 173 722 l 1
 414 722 l 1
 192 -108 l 1
EndSplineSet
EndChar

StartChar: C
Encoding: 67 67 43
Width: 759
Flags: MW
TeX: 678 0
ItalicCorrection: 38
HStem: -15 63<344 442.5 344 448.5> 684 53<404 512.5 355.5 540.5>
VStem: 35 190<197.5 329.5 179.5 411.5>
LayerCount: 2
Fore
SplineSet
679 212 m 1
 640 88 529 -15 368 -15 c 0
 170 -15 35 103 35 292 c 0
 35 531 238 737 473 737 c 0
 552 737 611 711 657 655 c 1
 713 712 l 1
 759 712 l 1
 701 426 l 1
 652 432 l 1
 647 603 594 684 487 684 c 0
 321 684 225 421 225 238 c 0
 225 121 291 48 397 48 c 0
 488 48 579 116 616 212 c 1
 679 212 l 1
EndSplineSet
Substitution2: "'c2sc' Capitals to Small Capitals lookup 15 subtable" c.sc
Substitution2: "'aalt' Access All Alternates lookup 0 subtable" c.sc
Position2: "'cpsp' Capital Spacing lookup 0 subtable" dx=7 dy=0 dh=14 dv=0
EndChar

StartChar: c
Encoding: 99 99 44
Width: 537
Flags: MW
TeX: 457 0
ItalicCorrection: 19
HStem: -14 61<226 254> 257 221<231 427> 431 47<310 343>
VStem: 3 165<114.5 172 113.5 254.5> 323 164<322 343>
LayerCount: 2
Fore
SplineSet
442 116 m 1xb8
 370 26 298 -14 210 -14 c 0
 84 -14 3 58 3 171 c 0
 3 338 146 478 316 478 c 0
 420 478 487 427 487 350 c 0
 487 294 453 257 401 257 c 0xd8
 355 257 323 287 323 329 c 0
 323 357 333 373 361 390 c 0
 370 396 373 399 373 406 c 0
 373 421 355 431 331 431 c 0
 289 431 251 401 220 344 c 0
 190 289 168 203 168 141 c 0
 168 86 202 47 250 47 c 0
 298 47 347 78 406 147 c 1
 442 116 l 1xb8
EndSplineSet
Substitution2: "'smcp' Lowercase to Small Capitals lookup 3 subtable" c.sc
Substitution2: "'aalt' Access All Alternates lookup 0 subtable" c.sc
EndChar

StartChar: colon
Encoding: 58 58 45
Width: 287
Flags: MW
TeX: 457 0
ItalicCorrection: 13
HStem: -15 174<61 108.5> 307 174<146 193.5>
VStem: -2 174<48.5 96> 83 174<370.5 418>
LayerCount: 2
Fore
SplineSet
172 72 m 0xe0
 172 24 133 -15 84 -15 c 0
 37 -15 -2 25 -2 72 c 0
 -2 120 37 159 85 159 c 0
 133 159 172 120 172 72 c 0xe0
257 394 m 0
 257 346 218 307 169 307 c 0
 122 307 83 347 83 394 c 0x50
 83 442 122 481 170 481 c 0
 218 481 257 442 257 394 c 0
EndSplineSet
EndChar

StartChar: comma
Encoding: 44 44 46
Width: 287
Flags: MW
TeX: 141 165
HStem: -187 21G<-27 -27> -11 170<50.5 66>
VStem: -16 196<43 77.5 -5.5 94.5> 86 94<-34.5 77.5>
LayerCount: 2
Fore
SplineSet
180 43 m 0x60
 180 -54 107 -134 -27 -187 c 1
 -48 -146 l 1
 42 -105 86 -60 86 -9 c 1x90
 76 -11 70 -11 62 -11 c 0
 13 -11 -16 18 -16 68 c 0
 -16 121 23 159 78 159 c 0
 139 159 180 112 180 43 c 0x60
EndSplineSet
EndChar

StartChar: D
Encoding: 68 68 47
Width: 833
Flags: MW
TeX: 678 0
HStem: 0 54<-42 -28 -28 -7 281 285 -49 -28> 668 54<105 116 98 463 416 439 439 461>
VStem: 610 186<444.5 528 371 555.5>
LayerCount: 2
Fore
SplineSet
796 437 m 0
 796 305 740 180 645 100 c 0
 559 28 459 0 285 0 c 2
 -49 0 l 1
 -42 54 l 1
 -28 54 l 2
 14 54 28 58 39 68 c 0
 46 76 48 76 66 144 c 2
 182 578 l 2
 191 612 195 632 195 641 c 0
 195 663 181 668 116 668 c 2
 98 668 l 1
 105 722 l 1
 463 722 l 2
 691 722 796 619 796 437 c 0
610 501 m 0
 610 610 558 668 461 668 c 2
 439 668 l 2
 393 668 378 655 365 605 c 2
 237 127 l 2
 229 91 228 88 228 81 c 0
 228 61 243 54 281 54 c 2
 310 54 l 2
 396 54 467 91 515 162 c 0
 570 244 610 388 610 501 c 0
EndSplineSet
Substitution2: "'c2sc' Capitals to Small Capitals lookup 15 subtable" d.sc
Substitution2: "'aalt' Access All Alternates lookup 0 subtable" d.sc
Position2: "'cpsp' Capital Spacing lookup 0 subtable" dx=7 dy=0 dh=14 dv=0
EndChar

StartChar: d
Encoding: 100 100 48
Width: 667
Flags: MW
TeX: 728 0
ItalicCorrection: 21
HStem: -15 84<395.5 497> -14 70<205.5 206.5> 423 55<298.5 315.5 212 337> 675 54 716 20G<663 663>
VStem: 0 164<114 161.5 110.5 247.5> 336 138<64 89 71 89>
LayerCount: 2
Fore
SplineSet
632 157 m 1x8a
 615 128 593 97 566 66 c 0
 517 11 472 -15 422 -15 c 0x80
 369 -15 337 15 336 64 c 2
 336 71 l 1
 281 8 239 -14 174 -14 c 0
 72 -14 0 61 0 167 c 0
 0 328 138 478 286 478 c 0
 345 478 386 458 411 416 c 1
 459 578 l 2
 470 615 474 634 474 644 c 0
 474 669 462 675 413 675 c 2
 381 675 l 1x76
 388 722 l 1
 663 736 l 1
 484 132 l 2
 474 93 474 93 474 85 c 0
 474 77 481 69 488 69 c 0
 506 69 554 121 593 182 c 1
 632 157 l 1x8a
329 153 m 0
 358 216 380 300 380 351 c 0
 380 393 355 423 319 423 c 0
 278 423 243 392 213 328 c 0
 184 267 164 188 164 135 c 0
 164 86 187 56 224 56 c 0x64
 263 56 299 89 329 153 c 0
EndSplineSet
Substitution2: "'smcp' Lowercase to Small Capitals lookup 3 subtable" d.sc
Substitution2: "'aalt' Access All Alternates lookup 0 subtable" d.sc
EndChar

StartChar: dollar
Encoding: 36 36 49
Width: 574
Flags: MW
TeX: 728 107
ItalicCorrection: 5
HStem: -145 21G<129 183 129 129> 774 20G<381 435 435 435>
VStem: 3 99<81 181> 3 166<167 181> 96 112<511.5 540.5> 381 119<168 177.5> 404 155<505.5 531> 463 96<505.5 603.5>
LayerCount: 2
Fore
SplineSet
500 212 m 0x01
 500 124 439 39 351 6 c 0
 322 -5 263 -15 227 -15 c 2
 218 -15 l 1
 183 -145 l 1
 129 -145 l 1
 166 -9 l 1
 66 10 3 72 3 151 c 0
 3 211 39 251 93 251 c 0
 137 251 169 222 169 181 c 0x94
 169 153 155 132 127 118 c 0
 107 107 102 102 102 91 c 0x20
 102 71 130 52 179 40 c 1
 245 285 l 1
 231 292 l 2
 141 334 96 395 96 475 c 0
 96 606 197 694 346 694 c 2
 354 694 l 1
 381 794 l 1x4c
 435 794 l 1
 407 688 l 1
 502 671 559 612 559 532 c 0
 559 479 526 443 476 443 c 0
 433 443 404 472 404 515 c 0x42
 404 547 417 565 450 579 c 0
 459 583 463 587 463 594 c 0
 463 613 433 632 394 640 c 1
 333 414 l 1
 359 402 l 2
 448 359 500 289 500 212 c 0x01
381 153 m 0
 381 202 357 231 293 263 c 1
 231 34 l 1
 319 36 381 85 381 153 c 0
286 438 m 1
 341 644 l 1
 257 641 208 599 208 533 c 0x08
 208 490 232 461 286 438 c 1
EndSplineSet
Substitution2: "'onum' Oldstyle Figures lookup 5 subtable" dollar.oldstyle
Substitution2: "'aalt' Access All Alternates lookup 0 subtable" dollar.oldstyle
EndChar

StartChar: E
Encoding: 69 69 50
Width: 741
Flags: MW
TeX: 678 0
ItalicCorrection: 22
HStem: 0 54<-34 -20 -20 10 289 325 325 381 -41 -20> 347 54<318 336 304 349> 668 54<113 124 105 728 419.5 440 440 478>
LayerCount: 2
Fore
SplineSet
602 0 m 1
 -41 0 l 1
 -34 54 l 1
 -20 54 l 2
 40 54 51 60 62 102 c 2
 190 578 l 2
 199 613 203 632 203 641 c 0
 203 663 189 668 124 668 c 2
 105 668 l 1
 113 722 l 1
 728 722 l 1
 688 477 l 1
 636 477 l 1
 634 622 597 668 478 668 c 2
 440 668 l 2
 399 668 387 659 377 620 c 2
 318 401 l 1
 349 401 l 2
 436 401 471 434 505 523 c 1
 558 516 l 1
 468 181 l 1
 415 188 l 1
 419 218 420 232 420 250 c 0
 420 315 399 347 336 347 c 2
 304 347 l 1
 241 111 l 2
 237 98 234 85 235 79 c 0
 235 61 251 54 289 54 c 2
 325 54 l 2
 437 54 550 127 616 259 c 1
 668 248 l 1
 602 0 l 1
EndSplineSet
Substitution2: "'c2sc' Capitals to Small Capitals lookup 15 subtable" e.sc
Substitution2: "'aalt' Access All Alternates lookup 0 subtable" e.sc
Position2: "'cpsp' Capital Spacing lookup 0 subtable" dx=7 dy=0 dh=14 dv=0
EndChar

StartChar: e
Encoding: 101 101 51
Width: 519
Flags: MW
TeX: 457 0
HStem: -14 59<216.5 247.5> 432 47<281 325.5>
VStem: -2 159<111 143 108.5 253> 356 122<357.5 392.5 323 399.5>
LayerCount: 2
Fore
SplineSet
430 91 m 5
 367 20 293 -14 202 -14 c 4
 70 -14 -2 51 -2 171 c 4
 -2 335 146 479 314 479 c 4
 408 479 478 427 478 358 c 4
 478 288 422 238 308 205 c 4
 261 191 218 184 159 181 c 5
 157 155 157 149 157 137 c 4
 157 80 190 45 243 45 c 4
 295 45 335 66 395 126 c 5
 430 91 l 5
356 385 m 4
 356 414 339 432 312 432 c 4
 250 432 191 350 168 228 c 5
 201 233 218 237 238 244 c 4
 306 270 356 330 356 385 c 4
EndSplineSet
Substitution2: "'smcp' Lowercase to Small Capitals lookup 3 subtable" e.sc
Substitution2: "'aalt' Access All Alternates lookup 0 subtable" e.sc
EndChar

StartChar: eight
Encoding: 56 56 52
Width: 574
Flags: MW
TeX: 678 0
ItalicCorrection: 11
HStem: -15 48<208 281.5 208 306.5> 655 50<299.5 366>
VStem: 0 121<117 184.5 117 191> 98 121<519 551.5> 375 130<141 179.5> 440 111<515 578>
LayerCount: 2
Fore
SplineSet
505 206 m 0x54
 505 76 389 -15 224 -15 c 0
 90 -15 0 51 0 148 c 0xa8
 0 234 63 297 172 339 c 1
 119 384 98 427 98 488 c 0
 98 615 202 705 349 705 c 0
 469 705 551 641 551 546 c 0
 551 471 505 419 406 382 c 1
 468 339 506 279 505 206 c 0x54
440 543 m 0
 440 613 399 655 333 655 c 0
 266 655 219 611 219 550 c 0xd4
 219 488 239 477 365 410 c 1
 414 443 440 487 440 543 c 0
375 148 m 0
 375 211 343 243 211 306 c 1
 156 278 121 216 121 153 c 0x28
 121 81 171 33 245 33 c 0
 318 33 375 83 375 148 c 0
EndSplineSet
Substitution2: "'pnum' Proportional Numbers lookup 7 subtable" eight.prop
Substitution2: "'onum' Oldstyle Figures lookup 5 subtable" eight.oldstyle
AlternateSubs2: "'aalt' Access All Alternates lookup 1 subtable" eight.oldstyle eight.prop
EndChar

StartChar: equal
Encoding: 61 61 53
Width: 606
Flags: MW
TeX: 431 0
HStem: 110 100<39 557 39 557> 290 100<39 557 39 557>
LayerCount: 2
Fore
SplineSet
557 290 m 1
 39 290 l 1
 39 390 l 1
 557 390 l 1
 557 290 l 1
557 110 m 1
 39 110 l 1
 39 210 l 1
 557 210 l 1
 557 110 l 1
EndSplineSet
EndChar

StartChar: exclam
Encoding: 33 33 54
Width: 333
Flags: MW
TeX: 678 0
ItalicCorrection: 16
HStem: -15 174<66 113.5> 717 20G<225.5 267>
VStem: 3 174<48.5 96>
LayerCount: 2
Fore
SplineSet
336 657 m 0
 336 625 336 625 281 514 c 0
 221 394 197 335 152 203 c 1
 100 216 l 1
 130 351 147 468 151 567 c 0
 155 657 158 677 175 702 c 0
 190 724 213 737 238 737 c 0
 296 737 336 704 336 657 c 0
177 72 m 0
 177 24 138 -15 89 -15 c 0
 42 -15 3 25 3 72 c 0
 3 120 42 159 90 159 c 0
 138 159 177 120 177 72 c 0
EndSplineSet
EndChar

StartChar: F
Encoding: 70 70 55
Width: 704
Flags: MW
TeX: 678 0
ItalicCorrection: 64
HStem: 0 54<-34 -20 -20 11 315 334 -41 -20> 347 54<318 336 304 349> 668 54<113 124 105 726 419.5 440 440 476>
LayerCount: 2
Fore
SplineSet
686 477 m 1
 634 477 l 1
 632 622 595 668 476 668 c 2
 440 668 l 2
 399 668 387 659 377 620 c 2
 318 401 l 1
 349 401 l 2
 436 401 471 434 505 523 c 1
 558 516 l 1
 468 181 l 1
 415 189 l 1
 419 218 420 232 420 250 c 0
 420 315 389 347 336 347 c 2
 304 347 l 1
 250 144 l 2
 240 108 236 90 236 81 c 0
 236 59 250 54 315 54 c 2
 342 54 l 1
 334 0 l 1
 -41 0 l 1
 -34 54 l 1
 -20 54 l 2
 42 54 51 60 62 102 c 2
 190 578 l 2
 199 613 203 632 203 641 c 0
 203 663 189 668 124 668 c 2
 105 668 l 1
 113 722 l 1
 726 722 l 1
 686 477 l 1
EndSplineSet
Substitution2: "'c2sc' Capitals to Small Capitals lookup 15 subtable" f.sc
Substitution2: "'aalt' Access All Alternates lookup 0 subtable" f.sc
Position2: "'cpsp' Capital Spacing lookup 0 subtable" dx=7 dy=0 dh=14 dv=0
EndChar

StartChar: f
Encoding: 102 102 56
Width: 389
Flags: MW
TeX: 728 271
ItalicCorrection: 144
HStem: -205 21G<-48 -48> 403 61<51 133 34 149 295 406> 548 189<452.5 453 379.5 494.5> 690 47<387 417>
VStem: 404 146<604 624>
LayerCount: 2
Fore
SplineSet
550 627 m 0xd8
 550 581 517 548 472 548 c 0x28
 433 548 404 576 404 614 c 0
 404 634 408 645 428 671 c 0
 431 674 433 680 433 680 c 2
 433 686 423 690 411 690 c 0
 363 690 341 651 305 505 c 2
 295 464 l 1
 422 464 l 1
 406 403 l 1
 281 403 l 1
 234 189 l 2
 204 48 168 -83 133 -179 c 1
 -48 -205 l 1
 -20 -161 21 -42 69 133 c 1
 133 403 l 1
 34 403 l 1
 51 464 l 1
 149 464 l 1
 176 561 201 614 241 658 c 0
 291 712 346 737 413 737 c 0
 493 737 550 691 550 627 c 0xd8
EndSplineSet
Substitution2: "'smcp' Lowercase to Small Capitals lookup 3 subtable" f.sc
Substitution2: "'aalt' Access All Alternates lookup 0 subtable" f.sc
EndChar

StartChar: five
Encoding: 53 53 57
Width: 574
Flags: MW
TeX: 678 0
ItalicCorrection: 8
HStem: -15 51<162 229 162 293.5> 387 64<231 369> 537 139<316.5 444.5> 685 20G<197 197 567 569>
VStem: 0 101<67.5 172.5> 345 165<195 297>
LayerCount: 2
Fore
SplineSet
510 268 m 0
 510 106 381 -15 206 -15 c 0
 80 -15 0 46 0 142 c 0
 0 203 37 244 92 244 c 0
 140 244 172 214 172 169 c 0
 172 130 152 103 113 91 c 0
 105 88 101 84 101 79 c 0
 101 56 140 36 184 36 c 0
 274 36 345 134 345 256 c 0
 345 338 307 387 244 387 c 0
 218 387 200 382 152 361 c 1
 147 323 128 303 99 303 c 0
 80 303 66 318 66 338 c 0
 66 360 79 376 105 388 c 1
 197 705 l 1
 277 686 351 676 417 676 c 0
 472 676 507 683 557 702 c 0
 563 704 567 705 567 705 c 2
 571 705 573 702 573 697 c 0
 573 666 546 616 515 589 c 0
 473 553 418 537 338 537 c 0
 295 537 286 538 223 551 c 2
 213 553 l 1
 175 424 l 1
 226 443 263 451 308 451 c 0
 430 451 510 379 510 268 c 0
EndSplineSet
Substitution2: "'pnum' Proportional Numbers lookup 7 subtable" five.prop
Substitution2: "'onum' Oldstyle Figures lookup 5 subtable" five.oldstyle
AlternateSubs2: "'aalt' Access All Alternates lookup 1 subtable" five.oldstyle five.prop
EndChar

StartChar: four
Encoding: 52 52 58
Width: 574
Flags: MW
TeX: 678 0
ItalicCorrection: 14
HStem: 0 54<114 139 139 160 459 470 107 139> 184 66<77 252 422 524> 687 20G<449 544 544 544>
LayerCount: 2
Fore
SplineSet
524 184 m 1
 404 184 l 1
 393 144 l 2
 384 111 380 90 380 81 c 0
 380 59 394 54 459 54 c 2
 477 54 l 1
 470 0 l 1
 107 0 l 1
 114 54 l 1
 139 54 l 2
 181 54 205 58 215 68 c 0
 223 76 223 76 242 144 c 2
 252 184 l 1
 -13 184 l 1
 -13 239 l 1
 449 707 l 1
 544 707 l 1
 422 250 l 1
 535 250 l 1
 524 184 l 1
344 525 m 1
 77 250 l 1
 270 250 l 1
 344 525 l 1
EndSplineSet
Substitution2: "'pnum' Proportional Numbers lookup 7 subtable" four.prop
Substitution2: "'onum' Oldstyle Figures lookup 5 subtable" four.oldstyle
AlternateSubs2: "'aalt' Access All Alternates lookup 1 subtable" four.oldstyle four.prop
EndChar

StartChar: G
Encoding: 71 71 59
Width: 815
Flags: MW
TeX: 678 0
HStem: -15 52<316 392.5> 282 54<430 451 423 802 737 775 775 795> 683 54<458.5 526.5 363 554.5>
VStem: 34 188<187.5 275.5 171.5 406.5>
LayerCount: 2
Fore
SplineSet
795 282 m 1
 775 282 l 2
 699 282 706 271 682 192 c 2
 627 -14 l 1
 579 -14 l 1
 560 81 l 1
 506 16 438 -15 347 -15 c 0
 181 -15 34 91 34 284 c 0
 34 529 241 737 485 737 c 0
 568 737 616 716 670 657 c 1
 730 715 l 1
 775 715 l 1
 718 432 l 1
 667 439 l 1
 664 585 611 683 498 683 c 0
 419 683 352 632 298 531 c 0
 253 447 222 322 222 229 c 0
 222 114 269 37 363 37 c 0
 426 37 480 81 504 152 c 0
 514 182 528 241 528 255 c 0
 528 278 516 282 451 282 c 2
 423 282 l 1
 430 336 l 1
 802 336 l 1
 795 282 l 1
EndSplineSet
Substitution2: "'c2sc' Capitals to Small Capitals lookup 15 subtable" g.sc
Substitution2: "'aalt' Access All Alternates lookup 0 subtable" g.sc
Position2: "'cpsp' Capital Spacing lookup 0 subtable" dx=7 dy=0 dh=14 dv=0
EndChar

StartChar: g
Encoding: 103 103 60
Width: 611
Flags: MW
TeX: 457 271
ItalicCorrection: 57
HStem: -202 47<137.5 226.5 137.5 262> 157 48<267 378> 408 125<537 551.5 508.5 564.5> 432 47<303 315.5 229 335>
VStem: -66 123<-108 -66> 0 119<68.5 147.5> 69 153<284 296 254.5 355.5> 329 121<-89 -73> 379 148<268.5 381.5> 379 223<344.5 486>
LayerCount: 2
Fore
SplineSet
602 466 m 0x20
 602 432 580 408 549 408 c 0
 525 408 510 421 499 451 c 0
 494 463 489 468 482 468 c 0
 471 468 461 461 448 444 c 1
 499 414 527 368 527 314 c 0
 527 223 439 157 317 157 c 0
 298 157 235 162 200 167 c 0
 185 169 173 170 166 170 c 0
 139 170 119 156 119 139 c 0x6480
 119 118 134 108 168 105 c 0
 258 96 322 88 346 83 c 0
 419 66 450 30 450 -35 c 0
 450 -143 352 -202 172 -202 c 0
 21 -202 -66 -161 -66 -91 c 0x89
 -66 -41 -26 -10 60 6 c 1
 15 30 0 51 0 86 c 0x04
 0 139 42 181 120 206 c 1
 84 236 69 264 69 304 c 0
 69 407 162 479 296 479 c 0x12
 335 479 363 475 399 463 c 1
 448 512 487 533 530 533 c 0
 573 533 602 506 602 466 c 0x20
353 253 m 0
 369 285 379 328 379 361 c 0
 379 402 353 432 317 432 c 0
 289 432 267 417 251 389 c 0
 233 357 222 315 222 277 c 0
 222 232 247 205 287 205 c 0
 315 205 338 221 353 253 c 0
329 -85 m 0
 329 -61 316 -48 285 -40 c 0
 261 -34 184 -27 141 -27 c 0
 85 -27 57 -46 57 -85 c 0
 57 -131 98 -155 177 -155 c 0
 276 -155 329 -131 329 -85 c 0
EndSplineSet
Substitution2: "'smcp' Lowercase to Small Capitals lookup 3 subtable" g.sc
Substitution2: "'aalt' Access All Alternates lookup 0 subtable" g.sc
EndChar

StartChar: grave
Encoding: 96 96 61
Width: 333
Flags: MW
TeX: 678 0
ItalicCorrection: 41
HStem: 702 20G<172 199>
LayerCount: 2
Fore
SplineSet
283 538 m 1
 229 538 l 1
 110 626 l 2
 97 636 95 651 105 670 c 0
 121 699 157 722 187 722 c 0
 211 722 219 714 233 677 c 2
 283 538 l 1
EndSplineSet
EndChar

StartChar: greater
Encoding: 62 62 62
Width: 606
Flags: MW
TeX: 556 0
HStem: -36 21G<60 60> 516 20G<60 60>
LayerCount: 2
Fore
SplineSet
513 206 m 1
 60 -36 l 1
 60 78 l 1
 384 250 l 1
 60 422 l 1
 60 536 l 1
 513 294 l 1
 513 206 l 1
EndSplineSet
EndChar

StartChar: H
Encoding: 72 72 63
Width: 870
Flags: MW
TeX: 678 0
ItalicCorrection: 75
HStem: 0 54<-34 -15 -15 12.5 305 318 -41 -15 390 412 412 433 747 762> 340 61<318 558 302 574> 668 54<113 124 105 488 438 459 459 481 553 566 867 888 888 905>
LayerCount: 2
Fore
SplineSet
762 0 m 1
 383 0 l 1
 390 54 l 1
 412 54 l 2
 454 54 468 58 478 68 c 0
 487 76 487 76 505 144 c 2
 558 340 l 1
 302 340 l 1
 250 144 l 2
 240 110 236 89 236 81 c 0
 236 59 240 54 305 54 c 2
 326 54 l 1
 318 0 l 1
 -41 0 l 1
 -34 54 l 1
 -15 54 l 2
 40 54 51 60 62 102 c 0
 65 114 70 130 73 144 c 2
 190 578 l 2
 199 612 203 632 203 641 c 0
 203 663 189 668 124 668 c 2
 105 668 l 1
 113 722 l 1
 488 722 l 1
 481 668 l 1
 459 668 l 2
 417 668 403 664 393 654 c 0
 384 647 384 647 366 578 c 2
 318 401 l 1
 574 401 l 1
 621 578 l 2
 631 613 635 632 635 641 c 0
 635 663 631 668 566 668 c 2
 545 668 l 1
 553 722 l 1
 912 722 l 1
 905 668 l 1
 888 668 l 2
 846 668 835 664 824 654 c 0
 816 647 816 647 798 578 c 2
 681 144 l 2
 673 112 668 90 668 81 c 0
 668 59 682 54 747 54 c 2
 769 54 l 1
 762 0 l 1
EndSplineSet
Substitution2: "'c2sc' Capitals to Small Capitals lookup 15 subtable" h.sc
Substitution2: "'aalt' Access All Alternates lookup 0 subtable" h.sc
Position2: "'cpsp' Capital Spacing lookup 0 subtable" dx=7 dy=0 dh=14 dv=0
EndChar

StartChar: h
Encoding: 104 104 64
Width: 685
Flags: MW
TeX: 728 0
HStem: -15 81<395 501> 395 84<374 486.5> 675 54 716 20G<376 376>
VStem: 324 154<78 86 78 89>
LayerCount: 2
Fore
SplineSet
637 152 m 1xd8
 559 32 499 -15 426 -15 c 0
 364 -15 324 20 324 76 c 0
 324 102 327 114 345 163 c 2
 406 332 l 2
 412 348 415 361 415 368 c 0
 415 382 400 395 386 395 c 0
 362 395 329 370 292 325 c 0
 249 273 223 221 195 127 c 2
 157 0 l 1
 0 0 l 1
 171 578 l 2
 184 619 187 634 187 644 c 0
 187 669 175 675 125 675 c 2
 101 675 l 1xe8
 108 722 l 1
 376 736 l 1
 266 366 l 1
 329 444 388 479 454 479 c 0
 519 479 566 436 566 376 c 0
 566 343 557 307 536 248 c 2
 489 120 l 2
 478 90 478 90 478 82 c 0
 478 74 485 66 492 66 c 0
 510 66 535 91 589 166 c 0
 592 169 595 173 598 177 c 1
 637 152 l 1xd8
EndSplineSet
Substitution2: "'smcp' Lowercase to Small Capitals lookup 3 subtable" h.sc
Substitution2: "'aalt' Access All Alternates lookup 0 subtable" h.sc
EndChar

StartChar: hyphen
Encoding: 45 45 65
Width: 333
Flags: MW
TeX: 291 0
HStem: 180 130<45 237 10 272>
LayerCount: 2
Fore
SplineSet
272 310 m 1
 237 180 l 1
 10 180 l 1
 45 310 l 1
 272 310 l 1
EndSplineSet
EndChar

StartChar: I
Encoding: 73 73 66
Width: 444
Flags: MW
TeX: 678 0
ItalicCorrection: 50
HStem: 0 54<-34 -14 -14 7 318 332 -41 -14> 668 54<113 127 105 486 437 458 458 479>
LayerCount: 2
Fore
SplineSet
332 0 m 1
 -41 0 l 1
 -34 54 l 1
 -14 54 l 2
 28 54 39 58 49 68 c 0
 58 76 58 76 76 144 c 2
 192 578 l 2
 202 612 206 632 206 641 c 0
 206 663 192 668 127 668 c 2
 105 668 l 1
 113 722 l 1
 486 722 l 1
 479 668 l 1
 458 668 l 2
 416 668 406 664 396 654 c 0
 387 647 387 647 369 578 c 2
 253 144 l 2
 239 89 239 89 239 81 c 0
 239 59 253 54 318 54 c 2
 340 54 l 1
 332 0 l 1
EndSplineSet
Substitution2: "'c2sc' Capitals to Small Capitals lookup 15 subtable" i.sc
Substitution2: "'aalt' Access All Alternates lookup 0 subtable" i.sc
Position2: "'cpsp' Capital Spacing lookup 0 subtable" dx=7 dy=0 dh=14 dv=0
EndChar

StartChar: i
Encoding: 105 105 67
Width: 389
Flags: MW
TeX: 678 0
HStem: -15 79<116 223> 417 54 458 20G<312 312> 559 143<250 289>
VStem: 42 155<75.5 84 75.5 84.5>
LayerCount: 2
Fore
SplineSet
353 149 m 1xa8
 285 35 222 -15 146 -15 c 0
 86 -15 42 23 42 75 c 0
 42 94 44 105 57 149 c 2
 108 319 l 2
 119 356 123 375 123 386 c 0
 123 411 111 417 62 417 c 2
 38 417 l 1xc8
 45 464 l 1
 312 478 l 1
 207 122 l 2
 198 91 197 88 197 80 c 0
 197 71 204 64 213 64 c 0
 233 64 266 101 314 177 c 1
 353 149 l 1xa8
341 631 m 0x10
 341 591 309 559 269 559 c 0
 230 559 198 592 198 631 c 0
 198 670 230 702 270 702 c 0
 309 702 341 670 341 631 c 0x10
EndSplineSet
Substitution2: "'smcp' Lowercase to Small Capitals lookup 3 subtable" i.sc
Substitution2: "'aalt' Access All Alternates lookup 0 subtable" i.sc
EndChar

StartChar: J
Encoding: 74 74 68
Width: 667
Flags: MW
TeX: 678 207
ItalicCorrection: 55
HStem: -15 57<150.5 193.5 139 286> 138 190<132 156 85 168.5> 668 54<340 362 332 718 670 691 691 711>
VStem: -9 68<110 143 109 215.5>
LayerCount: 2
Fore
SplineSet
711 668 m 1
 691 668 l 2
 649 668 641 664 630 654 c 0
 622 646 622 646 604 578 c 2
 522 274 l 2
 487 144 487 144 470 113 c 0
 421 24 346 -15 226 -15 c 0
 75 -15 -9 51 -9 169 c 0
 -9 262 46 328 124 328 c 0
 188 328 231 289 231 231 c 0
 231 179 193 138 144 138 c 0
 120 138 81 160 77 160 c 0
 65 160 59 151 59 135 c 0
 59 83 108 42 170 42 c 0
 217 42 262 69 290 114 c 0
 312 150 315 158 342 260 c 2
 427 578 l 2
 437 614 441 632 441 641 c 0
 441 663 427 668 362 668 c 2
 332 668 l 1
 340 722 l 1
 718 722 l 1
 711 668 l 1
EndSplineSet
Substitution2: "'c2sc' Capitals to Small Capitals lookup 15 subtable" j.sc
Substitution2: "'aalt' Access All Alternates lookup 0 subtable" j.sc
Position2: "'cpsp' Capital Spacing lookup 0 subtable" dx=7 dy=0 dh=14 dv=0
EndChar

StartChar: j
Encoding: 106 106 69
Width: 370
Flags: MW
TeX: 678 271
ItalicCorrection: 5
HStem: -202 49<-40 -15.5 -40 10.5> -202 195<-115 10.5> 417 54 559 143<295 334>
VStem: -170 152<-95 -65.5>
LayerCount: 2
Fore
SplineSet
359 478 m 1xa8
 240 75 l 2
 209 -28 193 -65 154 -112 c 0
 107 -171 45 -202 -24 -202 c 0
 -108 -202 -170 -155 -170 -90 c 0
 -170 -41 -138 -7 -92 -7 c 0x48
 -46 -7 -18 -36 -18 -82 c 0
 -18 -108 -23 -117 -46 -131 c 0
 -50 -133 -52 -137 -52 -141 c 0
 -52 -148 -45 -153 -35 -153 c 0
 4 -153 25 -119 60 0 c 2
 155 319 l 2
 166 357 170 375 170 386 c 0
 170 411 158 417 109 417 c 2
 77 417 l 1
 84 464 l 1
 359 478 l 1xa8
386 631 m 0x10
 386 591 354 559 314 559 c 0
 275 559 243 592 243 631 c 0
 243 670 275 702 315 702 c 0
 354 702 386 670 386 631 c 0x10
EndSplineSet
Substitution2: "'smcp' Lowercase to Small Capitals lookup 3 subtable" j.sc
Substitution2: "'aalt' Access All Alternates lookup 0 subtable" j.sc
EndChar

StartChar: K
Encoding: 75 75 70
Width: 778
Flags: MW
TeX: 678 0
ItalicCorrection: 52
HStem: 0 54<-34 -16 -16 5 305 318 -41 -16 382 413 413 436 742 749> 668 54<113 124 105 488 438 459 459 481 113 526 533 561 825 825>
LayerCount: 2
Fore
SplineSet
749 0 m 1
 375 0 l 1
 382 54 l 1
 413 54 l 2
 459 54 473 59 473 76 c 0
 473 84 473 84 462 107 c 2
 360 320 l 1
 276 243 l 1
 250 144 l 2
 240 110 236 90 236 81 c 0
 236 59 240 54 305 54 c 2
 326 54 l 1
 318 0 l 1
 -41 0 l 1
 -34 54 l 1
 -16 54 l 2
 26 54 36 59 47 68 c 0
 55 76 55 76 74 145 c 2
 189 578 l 2
 199 613 203 632 203 641 c 0
 203 663 189 668 124 668 c 2
 105 668 l 1
 113 722 l 1
 488 722 l 1
 481 668 l 1
 459 668 l 2
 417 668 403 664 393 654 c 0
 384 646 384 646 366 578 c 2
 305 353 l 1
 572 601 l 2
 593 621 602 633 602 643 c 0
 602 659 587 668 561 668 c 2
 526 668 l 1
 533 722 l 1
 832 722 l 1
 825 668 l 1
 755 664 712 644 653 587 c 2
 491 437 l 1
 634 129 l 2
 666 59 673 54 742 54 c 2
 757 54 l 1
 749 0 l 1
EndSplineSet
Substitution2: "'c2sc' Capitals to Small Capitals lookup 15 subtable" k.sc
Substitution2: "'aalt' Access All Alternates lookup 0 subtable" k.sc
Position2: "'cpsp' Capital Spacing lookup 0 subtable" dx=7 dy=0 dh=14 dv=0
EndChar

StartChar: k
Encoding: 107 107 71
Width: 648
Flags: MW
TeX: 728 0
HStem: -15 80<370.5 477.5> 396 83<379 498> 675 54 716 20G<371 371>
VStem: 444 137<357.5 364.5>
LayerCount: 2
Fore
SplineSet
584 135 m 1xd8
 533 30 479 -15 403 -15 c 0
 338 -15 301 24 301 93 c 0
 301 111 303 129 306 148 c 0
 309 162 310 173 310 181 c 0
 310 186 309 191 305 198 c 1
 297 197 289 197 284 197 c 0
 262 197 248 208 248 226 c 0
 248 244 263 257 284 257 c 0
 297 257 305 255 330 244 c 1
 406 269 444 305 444 351 c 0
 444 378 425 396 397 396 c 0
 361 396 326 372 280 316 c 0
 240 268 218 220 189 123 c 2
 152 0 l 1
 -5 0 l 1
 166 578 l 2
 178 619 182 634 182 644 c 0
 182 669 170 675 120 675 c 2
 97 675 l 1xe8
 103 722 l 1
 371 736 l 1
 262 371 l 1
 340 452 391 479 463 479 c 0
 533 479 581 439 581 381 c 0
 581 334 549 291 489 258 c 0
 461 242 432 230 387 215 c 1
 433 189 443 167 450 84 c 0
 451 72 457 65 466 65 c 0
 489 65 517 100 541 158 c 1
 584 135 l 1xd8
EndSplineSet
Substitution2: "'smcp' Lowercase to Small Capitals lookup 3 subtable" k.sc
Substitution2: "'aalt' Access All Alternates lookup 0 subtable" k.sc
EndChar

StartChar: L
Encoding: 76 76 72
Width: 704
Flags: MW
TeX: 678 0
HStem: 0 54<-34 -14 -14 7 289 325 325 382.5 -41 -14> 668 54<113 124 105 495 448 469 469 487>
LayerCount: 2
Fore
SplineSet
602 0 m 1
 -41 0 l 1
 -34 54 l 1
 -14 54 l 2
 28 54 36 58 47 68 c 0
 55 76 55 76 73 144 c 2
 190 578 l 2
 199 613 203 632 203 641 c 0
 203 663 189 668 124 668 c 2
 105 668 l 1
 113 722 l 1
 495 722 l 1
 487 668 l 1
 469 668 l 2
 427 668 403 664 393 654 c 0
 384 646 384 646 366 578 c 2
 250 144 l 2
 240 109 235 89 236 80 c 0
 236 60 249 54 289 54 c 2
 325 54 l 2
 440 54 559 135 618 266 c 1
 670 255 l 1
 602 0 l 1
EndSplineSet
Substitution2: "'c2sc' Capitals to Small Capitals lookup 15 subtable" l.sc
Substitution2: "'aalt' Access All Alternates lookup 0 subtable" l.sc
Position2: "'cpsp' Capital Spacing lookup 0 subtable" dx=7 dy=0 dh=14 dv=0
EndChar

StartChar: l
Encoding: 108 108 73
Width: 389
Flags: MW
TeX: 728 0
ItalicCorrection: 13
HStem: -15 78<97.5 204> 675 54 716 20G<370 370>
VStem: 26 152<75 82.5 75 87.5>
LayerCount: 2
Fore
SplineSet
339 149 m 1xb0
 318 111 288 74 253 41 c 0
 212 2 174 -15 128 -15 c 0
 67 -15 26 22 26 76 c 0
 26 99 31 125 49 182 c 2
 166 578 l 2
 177 615 181 633 181 644 c 0
 181 669 169 675 120 675 c 2
 96 675 l 1xd0
 103 722 l 1
 370 736 l 1
 188 122 l 1
 183 106 l 2
 180 96 178 85 178 80 c 0
 178 70 185 63 193 63 c 0
 215 63 260 110 300 176 c 1
 339 149 l 1xb0
EndSplineSet
Substitution2: "'smcp' Lowercase to Small Capitals lookup 3 subtable" l.sc
Substitution2: "'aalt' Access All Alternates lookup 0 subtable" l.sc
EndChar

StartChar: less
Encoding: 60 60 74
Width: 606
Flags: MW
TeX: 556 0
HStem: -36 21G<513 513> 516 20G<513 513>
LayerCount: 2
Fore
SplineSet
513 -36 m 1
 60 206 l 1
 60 294 l 1
 513 536 l 1
 513 422 l 1
 189 250 l 1
 513 78 l 1
 513 -36 l 1
EndSplineSet
EndChar

StartChar: M
Encoding: 77 77 75
Width: 944
Flags: MW
TeX: 678 0
ItalicCorrection: 69
HStem: 0 54<-17 -17 194.5 213 -24 -17 474 494 494 515 823 834> 668 54<113 125 106 406 939 960 960 981>
LayerCount: 2
Fore
SplineSet
834 0 m 1
 467 0 l 1
 474 54 l 1
 494 54 l 2
 536 54 544 58 554 68 c 0
 563 76 563 76 581 144 c 2
 693 562 l 1
 356 0 l 1
 293 0 l 1
 254 566 l 1
 160 216 l 2
 140 136 139 129 139 109 c 0
 139 74 168 54 221 54 c 1
 213 0 l 1
 -24 0 l 1
 -17 54 l 1
 38 58 58 89 93 216 c 2
 190 578 l 2
 201 619 204 632 204 641 c 0
 204 663 190 668 125 668 c 2
 106 668 l 1
 113 722 l 1
 406 722 l 1
 441 259 l 1
 719 722 l 1
 988 722 l 1
 981 668 l 1
 960 668 l 2
 918 668 911 664 900 654 c 0
 892 647 892 647 874 578 c 2
 757 144 l 2
 749 112 744 89 744 81 c 0
 744 59 758 54 823 54 c 2
 842 54 l 1
 834 0 l 1
EndSplineSet
Substitution2: "'c2sc' Capitals to Small Capitals lookup 15 subtable" m.sc
Substitution2: "'aalt' Access All Alternates lookup 0 subtable" m.sc
Position2: "'cpsp' Capital Spacing lookup 0 subtable" dx=7 dy=0 dh=14 dv=0
EndChar

StartChar: m
Encoding: 109 109 76
Width: 944
Flags: MW
TeX: 457 0
HStem: -14 80<682 785.5> 395 76 417 54 459 20G<416.5 466.5 707.5 769.5>
VStem: 612 147<75.5 81.5 75.5 82> 699 147<364 377.5>
LayerCount: 2
Fore
SplineSet
920 150 m 1x88
 847 37 781 -14 709 -14 c 0
 655 -14 612 24 612 71 c 0x88
 612 93 619 119 637 171 c 2
 686 311 l 2
 694 334 699 358 699 370 c 0
 699 385 689 394 673 394 c 0
 651 394 619 372 589 336 c 0
 551 290 524 230 489 111 c 2
 456 0 l 1
 298 0 l 1
 368 235 l 2
 388 303 399 350 399 370 c 0
 399 384 391 395 380 395 c 0x44
 360 395 330 370 296 326 c 0
 256 272 230 219 206 139 c 2
 165 0 l 1
 9 0 l 1
 104 319 l 2
 114 354 119 375 119 386 c 0
 119 411 107 417 58 417 c 2
 34 417 l 1x20
 41 464 l 1
 289 478 l 1
 260 356 l 1
 323 438 385 479 448 479 c 0
 485 479 520 462 542 435 c 0
 555 417 560 403 560 374 c 2
 560 368 l 1
 624 445 678 479 737 479 c 0
 802 479 846 437 846 375 c 0x14
 846 345 839 311 824 269 c 2
 764 102 l 2
 761 93 759 84 759 79 c 0
 759 72 767 66 776 66 c 0
 795 66 810 82 876 170 c 1
 882 177 l 1
 920 150 l 1x88
EndSplineSet
Substitution2: "'smcp' Lowercase to Small Capitals lookup 3 subtable" m.sc
Substitution2: "'aalt' Access All Alternates lookup 0 subtable" m.sc
EndChar

StartChar: N
Encoding: 78 78 77
Width: 852
Flags: MW
TeX: 678 0
ItalicCorrection: 78
HStem: -14 21G<544 624 544 544> 0 54<-50 -50 214 227 -57 -50> 668 54<96 145 89 350 635 658 888 905>
LayerCount: 2
Fore
SplineSet
905 668 m 1x60
 871 668 844 659 824 641 c 0
 796 614 794 611 763 505 c 2
 624 -14 l 1
 544 -14 l 1xa0
 248 552 l 1
 158 217 l 2
 138 137 137 130 137 109 c 0
 137 72 156 54 214 54 c 2
 235 54 l 1
 227 0 l 1
 -57 0 l 1
 -50 54 l 1
 -16 55 11 64 31 81 c 0
 59 107 61 113 91 217 c 2
 204 636 l 1
 192 659 176 668 145 668 c 2
 89 668 l 1
 96 722 l 1
 350 722 l 1
 618 215 l 1
 696 505 l 2
 717 585 718 591 718 613 c 0
 718 650 688 668 628 668 c 1
 635 722 l 1
 912 722 l 1
 905 668 l 1x60
EndSplineSet
Substitution2: "'c2sc' Capitals to Small Capitals lookup 15 subtable" n.sc
Substitution2: "'aalt' Access All Alternates lookup 0 subtable" n.sc
Position2: "'cpsp' Capital Spacing lookup 0 subtable" dx=7 dy=0 dh=14 dv=0
EndChar

StartChar: n
Encoding: 110 110 78
Width: 685
Flags: MW
TeX: 457 0
HStem: -15 81<400 506> 394 85<378 491> 417 62
VStem: 329 154<78 86 78 89> 420 151<364.5 374.5>
LayerCount: 2
Fore
SplineSet
642 152 m 1x90
 565 33 504 -15 431 -15 c 0
 369 -15 329 20 329 76 c 0x90
 329 102 333 117 349 163 c 2
 411 332 l 2
 417 348 420 361 420 368 c 0
 420 381 405 394 390 394 c 0x48
 366 394 333 370 295 325 c 0
 251 272 226 220 198 127 c 2
 160 0 l 1
 3 0 l 1
 98 319 l 2
 109 357 113 375 113 386 c 0
 113 411 101 417 52 417 c 2
 28 417 l 1
 35 464 l 1
 285 478 l 1
 253 346 l 1
 328 442 385 479 458 479 c 0
 524 479 571 436 571 376 c 0x28
 571 343 563 309 540 248 c 2
 493 120 l 2
 483 90 483 90 483 82 c 0
 483 74 490 66 497 66 c 0
 515 66 541 92 594 166 c 1
 603 177 l 1
 642 152 l 1x90
EndSplineSet
Substitution2: "'smcp' Lowercase to Small Capitals lookup 3 subtable" n.sc
Substitution2: "'aalt' Access All Alternates lookup 0 subtable" n.sc
EndChar

StartChar: nine
Encoding: 57 57 79
Width: 574
Flags: MW
TeX: 678 0
ItalicCorrection: 19
HStem: -15 51<159.5 208.5 159.5 220> -15 209<61 220> 259 60<183 314.5> 659 46<290 349.5>
VStem: 1 163<113 134> 54 162<388 473.5 388 510> 393 151<486 535.5 401.5 586.5>
LayerCount: 2
Fore
SplineSet
544 460 m 0xb4
 544 343 501 218 429 125 c 0
 357 31 271 -15 169 -15 c 0
 72 -15 1 37 1 109 c 0
 1 159 36 194 86 194 c 0
 131 194 164 164 164 122 c 0x6a
 164 104 158 89 142 70 c 0
 136 63 134 59 134 54 c 0
 134 44 149 36 170 36 c 0
 247 36 302 130 349 300 c 1
 310 269 282 259 236 259 c 0
 130 259 54 333 54 437 c 0
 54 583 180 705 331 705 c 0
 462 705 544 611 544 460 c 0xb4
393 552 m 0
 393 621 370 659 329 659 c 0
 251 659 216 527 216 420 c 0x16
 216 356 239 319 280 319 c 0
 349 319 393 420 393 552 c 0
EndSplineSet
Substitution2: "'pnum' Proportional Numbers lookup 7 subtable" nine.prop
Substitution2: "'onum' Oldstyle Figures lookup 5 subtable" nine.oldstyle
AlternateSubs2: "'aalt' Access All Alternates lookup 1 subtable" nine.oldstyle nine.prop
EndChar

StartChar: numbersign
Encoding: 35 35 80
Width: 574
Flags: MW
TeX: 678 0
ItalicCorrection: 24
HStem: 0 21G<103 193 103 103 279 369 279 279> 221 83<41 135 41 147 237 311 41 225 413 507> 412 83<67 163 67 174 67 253 264 338 440 533> 680 20G<204 294 294 294 379 469 469 469>
LayerCount: 2
Fore
SplineSet
507 221 m 1
 401 221 l 1
 369 0 l 1
 279 0 l 1
 311 221 l 1
 225 221 l 1
 193 0 l 1
 103 0 l 1
 135 221 l 1
 41 221 l 1
 41 304 l 1
 147 304 l 1
 163 412 l 1
 67 412 l 1
 67 495 l 1
 174 495 l 1
 204 700 l 1
 294 700 l 1
 264 495 l 1
 350 495 l 1
 379 700 l 1
 469 700 l 1
 440 495 l 1
 533 495 l 1
 533 412 l 1
 428 412 l 1
 413 304 l 1
 507 304 l 1
 507 221 l 1
322 304 m 1
 338 412 l 1
 253 412 l 1
 237 304 l 1
 322 304 l 1
EndSplineSet
EndChar

StartChar: O
Encoding: 79 79 81
Width: 833
Flags: MW
TeX: 678 0
HStem: -15 54<303 378 303 465.5> 683 54<449.5 526.5>
VStem: 36 179<195 240 145.5 410.5> 613 184<467.5 524 317 570.5>
LayerCount: 2
Fore
SplineSet
797 441 m 0
 797 193 589 -15 342 -15 c 0
 157 -15 36 104 36 286 c 0
 36 535 250 737 490 737 c 0
 663 737 797 607 797 441 c 0
533 196 m 0
 582 290 613 415 613 520 c 0
 613 621 566 683 487 683 c 0
 412 683 352 633 300 528 c 0
 251 428 215 287 215 193 c 0
 215 98 264 39 342 39 c 0
 414 39 477 90 533 196 c 0
EndSplineSet
Substitution2: "'c2sc' Capitals to Small Capitals lookup 15 subtable" o.sc
Substitution2: "'aalt' Access All Alternates lookup 0 subtable" o.sc
Position2: "'cpsp' Capital Spacing lookup 0 subtable" dx=7 dy=0 dh=14 dv=0
EndChar

StartChar: o
Encoding: 111 111 82
Width: 574
Flags: MW
TeX: 457 0
HStem: -14 43<209 250.5 209 310.5> 432 47<298.5 339.5>
VStem: 10 155<83 266> 385 155<200.5 377.5>
LayerCount: 2
Fore
SplineSet
540 285 m 0
 540 116 401 -14 220 -14 c 0
 157 -14 105 4 70 37 c 0
 33 71 10 129 10 187 c 0
 10 345 154 479 324 479 c 0
 385 479 445 459 484 425 c 0
 520 394 540 345 540 285 c 0
335 134 m 0
 363 204 385 302 385 354 c 0
 385 401 359 432 320 432 c 0
 277 432 240 394 210 322 c 0
 184 259 165 168 165 108 c 0
 165 58 189 29 229 29 c 0
 272 29 308 64 335 134 c 0
EndSplineSet
Substitution2: "'smcp' Lowercase to Small Capitals lookup 3 subtable" o.sc
Substitution2: "'aalt' Access All Alternates lookup 0 subtable" o.sc
EndChar

StartChar: one
Encoding: 49 49 83
Width: 574
Flags: MW
TeX: 678 0
HStem: 0 54<33 84 84 105 404 447 25 84> 687 20G<448 489 489 489>
LayerCount: 2
Fore
SplineSet
447 0 m 1
 25 0 l 1
 33 54 l 1
 84 54 l 2
 126 54 150 58 160 68 c 0
 168 75 168 75 187 144 c 2
 287 521 l 2
 299 562 306 585 250 585 c 2
 160 585 l 1
 173 635 l 1
 274 639 403 673 448 707 c 1
 489 707 l 1
 338 144 l 2
 330 112 325 90 325 81 c 0
 325 59 339 54 404 54 c 2
 454 54 l 1
 447 0 l 1
EndSplineSet
Substitution2: "'pnum' Proportional Numbers lookup 7 subtable" one.prop
Substitution2: "'onum' Oldstyle Figures lookup 5 subtable" one.oldstyle
AlternateSubs2: "'aalt' Access All Alternates lookup 1 subtable" one.oldstyle one.prop
EndChar

StartChar: P
Encoding: 80 80 84
Width: 741
Flags: MW
TeX: 678 0
ItalicCorrection: 33
HStem: 0 54<-31 -13 -13 15.5 318 336 -38 -13> 311 54<311 360 360 377 297 360> 668 54<119 131 112 434 421 434 434 442 442 459>
VStem: 552 179<502.5 589.5 459.5 595>
LayerCount: 2
Fore
SplineSet
731 533 m 0
 731 386 630 311 377 311 c 2
 297 311 l 1
 252 144 l 2
 240 100 238 90 238 81 c 0
 238 59 252 54 318 54 c 2
 343 54 l 1
 336 0 l 1
 -38 0 l 1
 -31 54 l 1
 -13 54 l 2
 44 54 54 60 65 102 c 2
 192 578 l 2
 204 623 206 632 206 641 c 0
 206 663 197 668 131 668 c 2
 112 668 l 1
 119 722 l 1
 434 722 l 2
 668 722 731 646 731 533 c 0
552 563 m 0
 552 627 516 668 459 668 c 2
 442 668 l 2
 400 668 390 660 378 615 c 2
 311 365 l 1
 360 365 l 2
 492 365 552 442 552 563 c 0
EndSplineSet
Substitution2: "'c2sc' Capitals to Small Capitals lookup 15 subtable" p.sc
Substitution2: "'aalt' Access All Alternates lookup 0 subtable" p.sc
Position2: "'cpsp' Capital Spacing lookup 0 subtable" dx=7 dy=0 dh=14 dv=0
EndChar

StartChar: p
Encoding: 112 112 85
Width: 648
Flags: MW
TeX: 457 271
HStem: -202 47<-111 -107 -107 -93.5 184 192 -118 -107> -15 58<273 294 256 378> 417 62
VStem: 430 160<307.5 353 216 358>
LayerCount: 2
Fore
SplineSet
590 298 m 0
 590 134 453 -15 303 -15 c 0
 243 -15 205 5 177 50 c 1
 143 -65 l 2
 127 -120 127 -120 127 -129 c 0
 127 -147 144 -155 184 -155 c 2
 199 -155 l 1
 192 -202 l 1
 -118 -202 l 1
 -111 -155 l 1
 -107 -155 l 2
 -80 -155 -52 -149 -44 -141 c 0
 -35 -133 -35 -133 -15 -65 c 2
 100 322 l 2
 110 355 115 375 115 386 c 0
 115 411 103 417 53 417 c 2
 29 417 l 1
 36 464 l 1
 273 478 l 1
 257 399 l 1
 306 455 353 479 415 479 c 0
 522 479 590 408 590 298 c 0
430 336 m 0
 430 380 404 409 366 409 c 0
 329 409 299 386 270 335 c 0
 239 280 206 169 206 117 c 0
 206 76 237 43 275 43 c 0
 313 43 344 68 372 122 c 0
 405 187 430 279 430 336 c 0
EndSplineSet
Substitution2: "'smcp' Lowercase to Small Capitals lookup 3 subtable" p.sc
Substitution2: "'aalt' Access All Alternates lookup 0 subtable" p.sc
EndChar

StartChar: parenleft
Encoding: 40 40 86
Width: 407
Flags: MW
TeX: 728 126
HStem: -118 21G<221 221> 717 20G<436 436>
VStem: 71 114<77.5 343.5>
LayerCount: 2
Fore
SplineSet
251 -96 m 1
 221 -118 l 1
 125 -21 71 108 71 238 c 0
 71 449 221 653 436 737 c 1
 452 705 l 1
 359 651 308 592 263 489 c 0
 219 387 185 225 185 117 c 0
 185 38 207 -33 251 -96 c 1
EndSplineSet
EndChar

StartChar: parenright
Encoding: 41 41 87
Width: 407
Flags: MW
TeX: 728 126
HStem: -118 21G<-54 -54> 717 20G<158 158>
VStem: 194 114<276 541.5>
LayerCount: 2
Fore
SplineSet
308 381 m 0
 308 171 158 -36 -54 -118 c 1
 -70 -86 l 1
 21 -33 71 26 116 130 c 0
 160 233 194 395 194 502 c 0
 194 581 172 652 128 715 c 1
 158 737 l 1
 254 640 308 511 308 381 c 0
EndSplineSet
EndChar

StartChar: percent
Encoding: 37 37 88
Width: 889
Flags: MW
TeX: 678 0
HStem: 0 21G<210 262 210 210> 14 49<619 671.5 619 679> 315 49<191 239.5> 356 51<723 749.5 654.5 753> 597 43<453 480> 688 20G<227.5 307> 702 20G<629 676 676 676>
VStem: 51 104<406 435 402 503> 364 40<529.5 574 508.5 588.5> 481 102<103.5 134 100.5 202.5> 794 42<228.5 301>
LayerCount: 2
Fore
SplineSet
676 722 m 1x0a
 262 0 l 1
 210 0 l 1
 562 615 l 1
 519 601 496 597 464 597 c 0
 442 597 427 599 401 606 c 1
 403 589 404 579 404 569 c 0
 404 448 295 315 184 315 c 0
 107 315 51 369 51 443 c 0
 51 563 168 708 287 708 c 0xad80
 327 708 354 694 380 660 c 1
 408 646 433 640 467 640 c 0
 537 640 586 665 629 722 c 1
 676 722 l 1x0a
364 582 m 0x2380
 364 595 362 606 358 619 c 1
 332 629 318 638 300 658 c 1
 263 645 251 633 215 569 c 0
 170 490 155 452 155 418 c 0
 155 386 176 364 206 364 c 0
 282 364 364 477 364 582 c 0x2380
836 283 m 0
 836 173 742 14 616 14 c 0
 538 14 481 67 481 140 c 0
 481 265 595 407 714 407 c 0x5060
 785 407 836 355 836 283 c 0
794 280 m 0
 794 322 769 356 737 356 c 0
 709 356 684 334 655 287 c 0
 603 201 583 153 583 115 c 0
 583 86 605 63 633 63 c 0
 710 63 794 177 794 280 c 0
EndSplineSet
EndChar

StartChar: period
Encoding: 46 46 89
Width: 287
Flags: MW
TeX: 141 0
HStem: -15 174<75 122.5>
VStem: 12 174<48.5 96>
LayerCount: 2
Fore
SplineSet
186 72 m 0
 186 24 147 -15 98 -15 c 0
 51 -15 12 25 12 72 c 0
 12 120 51 159 99 159 c 0
 147 159 186 120 186 72 c 0
EndSplineSet
EndChar

StartChar: plus
Encoding: 43 43 90
Width: 606
Flags: MW
TeX: 556 0
HStem: -9 21G<248 348 248 248> 200 100<39 248 39 248 348 557> 489 20G<248 348 348 348>
VStem: 248 100<-9 200 -9 200 300 509>
LayerCount: 2
Fore
SplineSet
557 200 m 1
 348 200 l 1
 348 -9 l 1
 248 -9 l 1
 248 200 l 1
 39 200 l 1
 39 300 l 1
 248 300 l 1
 248 509 l 1
 348 509 l 1
 348 300 l 1
 557 300 l 1
 557 200 l 1
EndSplineSet
EndChar

StartChar: Q
Encoding: 81 81 91
Width: 833
Flags: MW
TeX: 678 222
HStem: -186 82<483 624.5> -15 53<319 339> 217 60<324 358.5> 685 52<445.5 527>
VStem: 35 181<201 248.5 201 405.5> 35 223<97.5 405.5> 614 182<448.5 525 356 570.5>
LayerCount: 2
Fore
SplineSet
724 -52 m 1xf6
 686 -140 621 -186 536 -186 c 0
 430 -186 388 -128 388 -12 c 1
 364 -14 345 -15 333 -15 c 0
 162 -15 35 107 35 282 c 0
 35 529 240 737 484 737 c 0
 662 737 796 613 796 437 c 0
 796 275 715 115 560 41 c 1
 574 -104 591 -104 612 -104 c 0
 637 -104 662 -77 682 -30 c 1
 724 -52 l 1xf6
614 512 m 0
 614 629 569 685 485 685 c 0
 406 685 340 625 288 506 c 0
 245 406 216 288 216 209 c 0x5a
 216 193 217 179 219 154 c 1
 230 234 282 277 366 277 c 0
 442 277 494 245 525 180 c 1
 576 243 614 385 614 512 c 0
397 54 m 1
 410 122 410 124 410 149 c 0
 410 188 379 217 338 217 c 0
 292 217 258 177 258 124 c 0x24
 258 71 292 38 346 38 c 0
 367 38 379 42 397 54 c 1
EndSplineSet
Substitution2: "'c2sc' Capitals to Small Capitals lookup 15 subtable" q.sc
Substitution2: "'aalt' Access All Alternates lookup 0 subtable" q.sc
Position2: "'cpsp' Capital Spacing lookup 0 subtable" dx=7 dy=0 dh=14 dv=0
EndChar

StartChar: q
Encoding: 113 113 92
Width: 630
Flags: MW
TeX: 457 271
ItalicCorrection: 3
HStem: -202 47<170 174 174 189 467 476 163 174> -15 70<115.5 240> 423 55<302.5 319.5 212.5 332.5>
VStem: 0 163<115 168>
LayerCount: 2
Fore
SplineSet
476 -202 m 1
 163 -202 l 1
 170 -155 l 1
 174 -155 l 2
 204 -155 231 -149 240 -141 c 0
 248 -133 248 -133 269 -65 c 2
 302 46 l 1
 256 3 215 -15 165 -15 c 0
 66 -15 0 60 0 170 c 0
 0 331 138 478 287 478 c 0
 352 478 398 453 425 402 c 1
 513 478 l 1
 587 478 l 1
 426 -65 l 2
 416 -100 411 -120 411 -129 c 0
 411 -147 428 -155 467 -155 c 2
 482 -155 l 1
 476 -202 l 1
318 137 m 0
 349 198 376 300 376 356 c 0
 376 394 350 423 315 423 c 0
 290 423 263 407 243 381 c 0
 200 323 163 207 163 129 c 0
 163 86 188 55 223 55 c 0
 257 55 290 83 318 137 c 0
EndSplineSet
Substitution2: "'smcp' Lowercase to Small Capitals lookup 3 subtable" q.sc
Substitution2: "'aalt' Access All Alternates lookup 0 subtable" q.sc
EndChar

StartChar: question
Encoding: 63 63 93
Width: 481
Flags: MW
TeX: 678 0
ItalicCorrection: 33
HStem: -15 174<142 189.5> 212 50<237 266> 689 48<240 295>
VStem: 79 174<48.5 96> 99 48<544 578.5 537 593.5> 112 93<298.5 317 291 371> 346 106<609.5 627 540.5 644>
LayerCount: 2
Fore
SplineSet
452 582 m 0x2a
 452 499 404 441 281 376 c 0
 218 343 205 330 205 304 c 0
 205 278 223 262 251 262 c 0
 284 262 307 285 325 335 c 1
 374 323 l 1
 353 255 299 212 233 212 c 0
 165 212 112 265 112 332 c 0xc6
 112 410 165 482 264 538 c 0
 329 575 346 594 346 625 c 0
 346 663 317 689 273 689 c 0
 207 689 147 618 147 539 c 0
 147 535 148 530 149 520 c 1
 101 520 l 1
 100 532 99 542 99 546 c 0
 99 641 174 737 285 737 c 0
 381 737 452 672 452 582 c 0x2a
253 72 m 0
 253 24 214 -15 165 -15 c 0
 118 -15 79 25 79 72 c 0x90
 79 120 118 159 166 159 c 0
 214 159 253 120 253 72 c 0
EndSplineSet
EndChar

StartChar: quotedbl
Encoding: 34 34 94
Width: 400
Flags: MW
TeX: 678 0
ItalicCorrection: 25
HStem: 397 21G<146 146 384 384> 714 20G<173.5 216 411.5 454>
LayerCount: 2
Fore
SplineSet
269 663 m 0
 269 647 264 629 253 609 c 2
 146 397 l 1
 100 410 l 1
 121 646 l 2
 126 703 152 734 195 734 c 0
 237 734 269 703 269 663 c 0
507 663 m 0
 507 647 502 629 491 609 c 2
 384 397 l 1
 338 410 l 1
 359 646 l 2
 364 703 390 734 433 734 c 0
 475 734 507 703 507 663 c 0
EndSplineSet
EndChar

StartChar: quotesingle
Encoding: 39 39 95
Width: 287
Flags: MW
TeX: 678 0
ItalicCorrection: 52
HStem: 397 21G<146 146> 714 20G<173.5 216>
LayerCount: 2
Fore
SplineSet
269 663 m 0
 269 647 264 629 253 609 c 2
 146 397 l 1
 100 410 l 1
 121 646 l 2
 126 703 152 734 195 734 c 0
 237 734 269 703 269 663 c 0
EndSplineSet
EndChar

StartChar: R
Encoding: 82 82 96
Width: 796
Flags: MW
TeX: 678 0
ItalicCorrection: 3
HStem: -15 76<525 642> 0 54<-34 -14 -14 7 315 333 -41 -14> 350 54<319 344 304 353> 668 54<112 126 105 459 416 434 434 459>
VStem: 567 184<543 601.5>
LayerCount: 2
Fore
SplineSet
742 136 m 1x98
 708 33 652 -15 567 -15 c 0xb8
 483 -15 424 44 424 127 c 0
 424 161 436 230 436 269 c 0
 436 324 403 350 344 350 c 2
 304 350 l 1
 249 144 l 2
 240 112 236 90 236 81 c 0
 236 59 250 54 315 54 c 2
 341 54 l 1
 333 0 l 1
 -41 0 l 1
 -34 54 l 1
 -14 54 l 2x60
 28 54 36 58 46 68 c 0
 55 76 55 76 73 144 c 2
 189 578 l 2
 200 618 203 632 203 641 c 0
 203 663 191 668 126 668 c 2
 105 668 l 1
 112 722 l 1
 459 722 l 2
 656 722 751 680 751 555 c 0
 751 441 653 374 464 359 c 1
 561 332 603 282 603 181 c 2
 603 147 l 2
 603 81 603 81 610 72 c 0
 615 65 621 61 628 61 c 0
 656 61 677 97 699 157 c 1
 742 136 l 1x98
567 570 m 0
 567 633 529 668 459 668 c 2
 434 668 l 2
 398 668 388 661 380 630 c 2
 319 404 l 1
 353 404 l 2
 443 404 468 409 502 435 c 0
 542 465 567 516 567 570 c 0
EndSplineSet
Substitution2: "'c2sc' Capitals to Small Capitals lookup 15 subtable" r.sc
Substitution2: "'aalt' Access All Alternates lookup 0 subtable" r.sc
Position2: "'cpsp' Capital Spacing lookup 0 subtable" dx=7 dy=0 dh=14 dv=0
EndChar

StartChar: r
Encoding: 114 114 97
Width: 519
Flags: MW
TeX: 457 0
ItalicCorrection: 49
HStem: 0 21G<3 160 3 3> 308 163 417 54 459 20G<398 459>
LayerCount: 2
Fore
SplineSet
524 391 m 0x10
 524 344 492 308 449 308 c 0x40
 417 308 389 328 382 357 c 0
 380 365 379 373 379 388 c 0
 379 397 376 401 369 401 c 0
 361 401 344 390 329 375 c 0
 280 328 230 235 202 139 c 2
 160 0 l 1
 3 0 l 1
 98 319 l 2
 109 356 113 375 113 386 c 0
 113 411 101 417 52 417 c 2
 28 417 l 1xa0
 35 464 l 1
 285 478 l 1
 254 351 l 1
 316 444 365 479 431 479 c 0
 487 479 524 444 524 391 c 0x10
EndSplineSet
Substitution2: "'smcp' Lowercase to Small Capitals lookup 3 subtable" r.sc
Substitution2: "'aalt' Access All Alternates lookup 0 subtable" r.sc
EndChar

StartChar: S
Encoding: 83 83 98
Width: 685
Flags: MW
TeX: 678 0
HStem: -15 54<275 364 252 406.5> 683 54<337 407.5 292 436>
VStem: 102 135<551 564> 474 138<153.5 181>
LayerCount: 2
Fore
SplineSet
612 224 m 0
 612 83 493 -15 320 -15 c 0
 230 -15 169 8 103 65 c 1
 45 0 l 1
 1 0 l 1
 51 283 l 1
 103 275 l 1
 102 245 l 1
 103 126 187 39 317 39 c 0
 411 39 474 85 474 152 c 0
 474 210 438 239 303 285 c 0
 219 313 189 329 158 359 c 0
 121 394 102 441 102 495 c 0
 102 633 216 737 368 737 c 0
 447 737 507 714 568 661 c 1
 621 715 l 1
 666 715 l 1
 622 452 l 1
 570 461 l 1
 565 609 492 683 380 683 c 0
 294 683 237 640 237 575 c 0
 237 527 255 495 349 464 c 0
 533 403 612 360 612 224 c 0
EndSplineSet
Substitution2: "'c2sc' Capitals to Small Capitals lookup 15 subtable" s.sc
Substitution2: "'aalt' Access All Alternates lookup 0 subtable" s.sc
Position2: "'cpsp' Capital Spacing lookup 0 subtable" dx=7 dy=0 dh=14 dv=0
EndChar

StartChar: s
Encoding: 115 115 99
Width: 481
Flags: MW
TeX: 457 0
HStem: -15 43<157 202 157 245.5> -15 188<51 245.5> 297 182<196 388.5> 432 47<241 281.5>
VStem: 2 141<99.5 122.5> 56 122<358 369> 270 129<100 110.5> 299 138<346.5 366>
LayerCount: 2
Fore
SplineSet
399 149 m 0x15
 399 51 311 -15 180 -15 c 0
 74 -15 2 32 2 101 c 0
 2 144 30 173 72 173 c 0x4a
 112 173 143 146 143 109 c 0
 143 90 138 81 117 63 c 0
 114 60 112 57 112 54 c 0
 112 39 139 28 175 28 c 0
 229 28 270 57 270 97 c 0x8a
 270 124 254 141 212 158 c 0
 155 182 149 185 128 198 c 0
 78 228 56 266 56 320 c 0
 56 418 134 479 258 479 c 0
 363 479 437 432 437 367 c 0
 437 326 409 297 368 297 c 0x25
 328 297 299 323 299 358 c 0
 299 374 301 379 317 399 c 0
 321 404 323 408 323 411 c 0
 323 422 296 432 267 432 c 0
 215 432 178 407 178 371 c 0
 178 345 197 327 256 302 c 0
 297 284 310 278 331 264 c 0
 377 234 399 198 399 149 c 0x15
EndSplineSet
Substitution2: "'smcp' Lowercase to Small Capitals lookup 3 subtable" s.sc
Substitution2: "'aalt' Access All Alternates lookup 0 subtable" s.sc
EndChar

StartChar: semicolon
Encoding: 59 59 100
Width: 287
Flags: MW
TeX: 457 165
ItalicCorrection: 24
HStem: -187 21G<-18 -18> -11 170<59.5 75> 307 174<146 193.5>
VStem: -7 196<43 77.5 -5.5 94.5> 83 174<370.5 418> 95 94<-34.5 77.5>
LayerCount: 2
Fore
SplineSet
189 43 m 0x50
 189 -54 116 -134 -18 -187 c 1
 -39 -146 l 1
 51 -105 95 -60 95 -9 c 1xa4
 85 -11 79 -11 71 -11 c 0
 22 -11 -7 18 -7 68 c 0
 -7 121 32 159 87 159 c 0
 148 159 189 112 189 43 c 0x50
257 394 m 0
 257 346 218 307 169 307 c 0
 122 307 83 347 83 394 c 0x28
 83 442 122 481 170 481 c 0
 218 481 257 442 257 394 c 0
EndSplineSet
EndChar

StartChar: seven
Encoding: 55 55 101
Width: 574
Flags: MW
TeX: 678 0
ItalicCorrection: 72
HStem: -15 21G<206.5 250.5> 559 135<227 390.5 321.5 390.5 321.5 470> 685 20G<167 167 592 592>
LayerCount: 2
Fore
SplineSet
593 667 m 1x20
 409 354 367 260 339 106 c 0
 330 60 326 46 314 27 c 0
 298 1 268 -15 233 -15 c 0
 180 -15 144 18 144 66 c 0
 144 114 163 151 240 258 c 2
 470 559 l 1
 258 559 l 2xc0
 196 559 166 537 126 462 c 2
 110 432 l 1
 64 448 l 1
 167 705 l 1x20
 249 696 288 694 355 694 c 0x40
 426 694 482 697 592 705 c 1
 593 667 l 1x20
EndSplineSet
Substitution2: "'pnum' Proportional Numbers lookup 7 subtable" seven.prop
Substitution2: "'onum' Oldstyle Figures lookup 5 subtable" seven.oldstyle
AlternateSubs2: "'aalt' Access All Alternates lookup 1 subtable" seven.oldstyle seven.prop
EndChar

StartChar: six
Encoding: 54 54 102
Width: 574
Flags: MW
TeX: 678 0
ItalicCorrection: 16
HStem: -15 46<224.5 284.5 224.5 318.5> 371 60<260.5 391> 496 209<354 513> 654 51<364.5 414.5>
VStem: 30 151<154.5 207 103.5 288> 358 162<217.5 302> 410 163<556 577>
LayerCount: 2
Fore
SplineSet
520 253 m 0x52
 520 107 394 -15 243 -15 c 0
 112 -15 30 79 30 230 c 0
 30 346 73 471 145 565 c 0
 217 659 303 705 405 705 c 0
 502 705 573 653 573 581 c 0
 573 531 538 496 488 496 c 0xaa
 443 496 410 526 410 568 c 0
 410 586 416 601 432 620 c 0
 438 627 440 631 440 636 c 0
 440 646 425 654 404 654 c 0
 325 654 274 561 225 390 c 1
 263 421 292 431 338 431 c 0
 444 431 520 357 520 253 c 0x52
358 270 m 0
 358 334 335 371 294 371 c 0
 227 371 181 276 181 138 c 0
 181 69 204 31 245 31 c 0
 324 31 358 165 358 270 c 0
EndSplineSet
Substitution2: "'pnum' Proportional Numbers lookup 7 subtable" six.prop
Substitution2: "'onum' Oldstyle Figures lookup 5 subtable" six.oldstyle
AlternateSubs2: "'aalt' Access All Alternates lookup 1 subtable" six.oldstyle six.prop
EndChar

StartChar: slash
Encoding: 47 47 103
Width: 278
Flags: MW
TeX: 728 17
HStem: -15 21G<-25 49 -25 -25> 717 20G<237 311 311 311>
LayerCount: 2
Fore
SplineSet
311 737 m 1
 49 -15 l 1
 -25 -15 l 1
 237 737 l 1
 311 737 l 1
EndSplineSet
EndChar

StartChar: T
Encoding: 84 84 105
Width: 722
Flags: MW
TeX: 678 0
ItalicCorrection: 91
HStem: 0 54<73 100 100 121 445 463 66 100> 668 54<266.5 318 535.5 588>
LayerCount: 2
Fore
SplineSet
718 439 m 1
 665 444 l 1
 667 467 668 492 668 504 c 0
 668 609 626 668 550 668 c 0
 521 668 518 666 507 623 c 2
 379 144 l 2
 367 100 365 90 365 81 c 0
 365 59 379 54 445 54 c 2
 470 54 l 1
 463 0 l 1
 66 0 l 1
 73 54 l 1
 100 54 l 2
 142 54 166 58 176 68 c 0
 185 76 185 76 203 144 c 2
 333 629 l 2
 336 639 337 648 337 653 c 0
 337 663 327 668 309 668 c 0
 224 668 163 603 94 439 c 1
 44 455 l 1
 115 722 l 1
 762 722 l 1
 718 439 l 1
EndSplineSet
Substitution2: "'c2sc' Capitals to Small Capitals lookup 15 subtable" t.sc
Substitution2: "'aalt' Access All Alternates lookup 0 subtable" t.sc
Position2: "'cpsp' Capital Spacing lookup 0 subtable" dx=7 dy=0 dh=14 dv=0
EndChar

StartChar: t
Encoding: 116 116 106
Width: 407
Flags: MW
TeX: 644 0
ItalicCorrection: 47
HStem: -14 80<92.5 206> 403 61<45 114 27 132 290 386> 630 20G<188 345 345 345>
VStem: 24 157<46 87.5>
LayerCount: 2
Fore
SplineSet
337 156 m 1
 299 98 289 86 269 64 c 0
 220 12 170 -14 119 -14 c 0
 66 -14 24 23 24 69 c 0
 24 88 29 116 38 146 c 0
 41 155 45 168 49 183 c 2
 114 403 l 1
 27 403 l 1
 45 464 l 1
 132 464 l 1
 188 650 l 1
 345 650 l 1
 290 464 l 1
 404 464 l 1
 386 403 l 1
 272 403 l 1
 202 167 l 2
 190 126 181 91 181 84 c 0
 181 75 188 66 196 66 c 0
 216 66 262 117 300 183 c 1
 337 156 l 1
EndSplineSet
Substitution2: "'smcp' Lowercase to Small Capitals lookup 3 subtable" t.sc
Substitution2: "'aalt' Access All Alternates lookup 0 subtable" t.sc
EndChar

StartChar: three
Encoding: 51 51 107
Width: 574
Flags: MW
TeX: 678 0
HStem: -15 50<159.5 228.5 159.5 290> 329 57<192 296> 329 69<192 206.5> 461 244<161 388> 652 53<274.5 322.5>
VStem: -5 100<70.5 178> -5 172<154 178> 103 159<522.5 545.5 512 592> 324 164<193 251.5 145.5 275.5> 382 156<519.5 585.5>
LayerCount: 2
Fore
SplineSet
488 210 m 0x0940
 488 81 370 -15 210 -15 c 0
 78 -15 -5 47 -5 148 c 0
 -5 208 32 249 86 249 c 0
 134 249 167 217 167 172 c 0x8280
 167 136 148 112 115 102 c 0
 98 96 95 92 95 82 c 0
 95 59 139 35 180 35 c 0
 277 35 324 141 324 245 c 0
 324 306 300 339 257 339 c 0
 248 339 248 339 226 333 c 0
 218 330 210 329 203 329 c 0
 181 329 168 342 168 363 c 0
 168 384 181 398 201 398 c 0xa480
 214 398 243 386 259 386 c 0
 333 386 382 484 382 555 c 0
 382 616 350 652 295 652 c 0x4840
 254 652 212 632 212 612 c 0
 212 608 214 605 219 600 c 0
 253 573 262 559 262 532 c 0
 262 492 228 461 185 461 c 0x11
 137 461 103 497 103 548 c 0
 103 636 201 705 325 705 c 0
 451 705 538 639 538 545 c 0
 538 452 466 385 344 361 c 1
 447 334 488 293 488 210 c 0x0940
EndSplineSet
Substitution2: "'pnum' Proportional Numbers lookup 7 subtable" three.prop
Substitution2: "'onum' Oldstyle Figures lookup 5 subtable" three.oldstyle
AlternateSubs2: "'aalt' Access All Alternates lookup 1 subtable" three.oldstyle three.prop
EndChar

StartChar: two
Encoding: 50 50 108
Width: 574
Flags: MW
TeX: 678 0
HStem: 0 135<125 321 321 355.5 125 416> 644 61<249.5 297>
VStem: 71 88<464 591.5> 71 179<464 484 443 556> 374 164<513 568.5>
LayerCount: 2
Fore
SplineSet
501 234 m 1xd8
 416 0 l 1
 -40 0 l 1
 -40 6 l 2
 -40 47 6 103 135 214 c 0
 233 299 285 349 314 386 c 0
 352 433 374 489 374 537 c 0
 374 600 329 644 265 644 c 0
 212 644 159 609 159 574 c 0xe8
 159 559 165 554 198 539 c 0
 234 523 250 501 250 467 c 0
 250 419 217 386 169 386 c 0
 112 386 71 432 71 496 c 0
 71 616 177 705 322 705 c 0
 453 705 538 632 538 523 c 0
 538 454 496 386 417 324 c 0
 398 309 398 310 225 205 c 0
 169 171 140 150 125 135 c 1
 321 135 l 2
 390 135 405 148 448 230 c 2
 458 249 l 1
 501 234 l 1xd8
EndSplineSet
Substitution2: "'pnum' Proportional Numbers lookup 7 subtable" two.prop
Substitution2: "'onum' Oldstyle Figures lookup 5 subtable" two.oldstyle
AlternateSubs2: "'aalt' Access All Alternates lookup 1 subtable" two.oldstyle two.prop
EndChar

StartChar: U
Encoding: 85 85 109
Width: 833
Flags: MW
TeX: 678 0
ItalicCorrection: 74
HStem: -15 62<361.5 454> 668 54<102 118 95 478 427 448 448 470 621 644.5 874.5 888>
VStem: 88 171<142 198 142 210>
LayerCount: 2
Fore
SplineSet
888 668 m 1
 861 668 829 658 810 641 c 0
 782 616 779 609 749 506 c 2
 675 227 l 2
 630 58 537 -15 371 -15 c 0
 197 -15 88 71 88 196 c 0
 88 224 94 261 105 303 c 2
 179 578 l 2
 191 624 193 632 193 641 c 0
 193 663 184 668 118 668 c 2
 95 668 l 1
 102 722 l 1
 478 722 l 1
 470 668 l 1
 448 668 l 2
 406 668 392 664 382 654 c 0
 373 646 373 646 355 578 c 2
 274 274 l 2
 263 234 259 210 259 186 c 0
 259 98 314 47 409 47 c 0
 502 47 573 95 615 254 c 2
 682 506 l 2
 703 585 704 592 704 613 c 0
 704 651 675 668 614 668 c 1
 621 722 l 1
 895 722 l 1
 888 668 l 1
EndSplineSet
Substitution2: "'c2sc' Capitals to Small Capitals lookup 15 subtable" u.sc
Substitution2: "'aalt' Access All Alternates lookup 0 subtable" u.sc
Position2: "'cpsp' Capital Spacing lookup 0 subtable" dx=7 dy=0 dh=14 dv=0
EndChar

StartChar: u
Encoding: 117 117 110
Width: 685
Flags: MW
TeX: 457 0
HStem: -14 84<115 226> 417 54 458 20G<299 299>
VStem: 38 150<88.5 96.5 88.5 108.5> 330 158<43 90.5>
LayerCount: 2
Fore
SplineSet
639 152 m 1xb8
 561 32 503 -14 427 -14 c 0
 363 -14 330 15 330 71 c 0
 330 79 330 87 331 97 c 1
 266 19 212 -14 148 -14 c 0
 82 -14 38 30 38 95 c 0
 38 122 42 142 59 198 c 2
 94 319 l 2
 106 358 110 376 110 386 c 0
 110 411 98 417 49 417 c 2
 39 417 l 1xd8
 46 464 l 1
 299 478 l 1
 209 174 l 2
 206 166 202 150 197 133 c 0
 195 126 193 118 190 109 c 0
 189 103 188 98 188 95 c 0
 188 82 200 70 213 70 c 0
 239 70 287 109 323 159 c 0
 353 200 375 247 391 299 c 2
 439 464 l 1
 597 464 l 1
 504 152 l 2
 488 96 488 96 488 85 c 0
 488 78 495 71 502 71 c 0
 519 71 559 114 601 180 c 1
 639 152 l 1xb8
EndSplineSet
Substitution2: "'smcp' Lowercase to Small Capitals lookup 3 subtable" u.sc
Substitution2: "'aalt' Access All Alternates lookup 0 subtable" u.sc
EndChar

StartChar: underscore
Encoding: 95 95 111
Width: 500
Flags: MW
TeX: 0 126
ItalicCorrection: 27
HStem: -129 54<0 500 0 500>
LayerCount: 2
Fore
SplineSet
500 -129 m 1
 0 -129 l 1
 0 -75 l 1
 500 -75 l 1
 500 -129 l 1
EndSplineSet
EndChar

StartChar: V
Encoding: 86 86 112
Width: 741
Flags: MW
TeX: 678 0
ItalicCorrection: 105
HStem: -14 21G<258 324 258 258> 668 54<39 64 32 406 351.5 371 371 398 523 543 795 795>
LayerCount: 2
Fore
SplineSet
795 668 m 1
 734 659 712 642 662 560 c 2
 324 -14 l 1
 258 -14 l 1
 138 593 l 2
 125 657 114 668 64 668 c 2
 32 668 l 1
 39 722 l 1
 406 722 l 1
 398 668 l 1
 371 668 l 2
 332 668 324 667 314 660 c 0
 308 655 304 648 304 641 c 0
 304 638 306 627 309 611 c 2
 384 209 l 1
 591 572 l 2
 604 595 610 614 610 629 c 0
 610 656 589 668 543 668 c 2
 516 668 l 1
 523 722 l 1
 802 722 l 1
 795 668 l 1
EndSplineSet
Substitution2: "'c2sc' Capitals to Small Capitals lookup 15 subtable" v.sc
Substitution2: "'aalt' Access All Alternates lookup 0 subtable" v.sc
Position2: "'cpsp' Capital Spacing lookup 0 subtable" dx=7 dy=0 dh=14 dv=0
EndChar

StartChar: v
Encoding: 118 118 113
Width: 556
Flags: MW
TeX: 457 0
HStem: -15 71<250.5 255> 417 54 459 20G<401 445.5>
VStem: 58 151<110 123.5 98.5 145.5> 353 147<403 416.5 353.5 433.5> 426 74<272 416.5>
LayerCount: 2
Fore
SplineSet
500 390 m 0x28
 500 317 471 216 428 139 c 0
 372 39 297 -15 213 -15 c 0
 172 -15 131 0 101 26 c 0
 73 51 58 88 58 132 c 0
 58 159 62 185 70 211 c 2
 102 319 l 2
 116 366 118 376 118 386 c 0
 118 411 106 417 56 417 c 2
 32 417 l 1
 39 464 l 1
 306 478 l 1
 233 230 l 2
 210 139 209 134 209 113 c 0
 209 84 236 56 265 56 c 0
 298 56 333 82 365 131 c 0
 404 190 426 250 426 294 c 0xd4
 426 316 423 319 382 357 c 0
 361 377 353 392 353 414 c 0
 353 453 380 479 422 479 c 0
 469 479 500 443 500 390 c 0x28
EndSplineSet
Substitution2: "'smcp' Lowercase to Small Capitals lookup 3 subtable" v.sc
Substitution2: "'aalt' Access All Alternates lookup 0 subtable" v.sc
EndChar

StartChar: W
Encoding: 87 87 114
Width: 944
Flags: MW
TeX: 678 0
ItalicCorrection: 100
HStem: -14 21G<200 266 200 200 556 622 556 556> 668 54<47 60 40 350 305 323 323 343 47 389 396 405 661 678 678 700 759 770 987 987>
LayerCount: 2
Fore
SplineSet
987 668 m 1
 925 658 899 630 855 524 c 2
 622 -14 l 1
 556 -14 l 1
 488 469 l 1
 266 -14 l 1
 200 -14 l 1
 114 630 l 2
 110 660 102 668 60 668 c 2
 40 668 l 1
 47 722 l 1
 350 722 l 1
 343 668 l 1
 323 668 l 2
 287 668 283 661 283 632 c 2
 284 616 l 1
 328 264 l 1
 476 593 l 1
 473 623 l 2
 469 657 453 668 405 668 c 2
 389 668 l 1
 396 722 l 1
 707 722 l 1
 700 668 l 1
 678 668 l 2
 644 668 631 660 632 640 c 0
 632 634 633 625 635 613 c 2
 682 276 l 1
 811 586 l 2
 820 607 824 622 824 632 c 0
 824 653 802 668 770 668 c 2
 752 668 l 1
 759 722 l 1
 994 722 l 1
 987 668 l 1
EndSplineSet
Substitution2: "'c2sc' Capitals to Small Capitals lookup 15 subtable" w.sc
Substitution2: "'aalt' Access All Alternates lookup 0 subtable" w.sc
Position2: "'cpsp' Capital Spacing lookup 0 subtable" dx=7 dy=0 dh=14 dv=0
EndChar

StartChar: w
Encoding: 119 119 115
Width: 833
Flags: MW
TeX: 457 0
HStem: -15 71<534 538> -15 86<104 233> 417 54 459 20G<689 733.5>
VStem: 22 157<98 109> 641 147<403 416.5 353.5 433.5> 714 74<273 416.5>
LayerCount: 2
Fore
SplineSet
788 390 m 0x14
 788 317 758 214 716 139 c 0
 659 39 581 -15 495 -15 c 0
 415 -15 362 27 345 103 c 1
 282 20 223 -15 143 -15 c 0
 65 -15 22 25 22 95 c 0
 22 123 26 142 42 198 c 2
 78 319 l 2
 90 360 94 376 94 386 c 0
 94 411 82 417 32 417 c 2
 22 417 l 1
 29 464 l 1
 283 478 l 1
 193 177 l 2
 184 144 179 122 179 108 c 0
 179 88 196 71 215 71 c 0x6c
 251 71 288 98 318 145 c 0
 335 172 364 240 377 286 c 2
 430 464 l 1
 587 464 l 1
 518 230 l 2
 495 139 494 133 494 113 c 0
 494 84 520 56 548 56 c 0
 581 56 622 86 653 131 c 0
 691 188 714 250 714 296 c 0x82
 714 315 711 320 670 357 c 0
 649 376 641 392 641 414 c 0
 641 453 668 479 710 479 c 0
 757 479 788 443 788 390 c 0x14
EndSplineSet
Substitution2: "'smcp' Lowercase to Small Capitals lookup 3 subtable" w.sc
Substitution2: "'aalt' Access All Alternates lookup 0 subtable" w.sc
EndChar

StartChar: X
Encoding: 88 88 116
Width: 741
Flags: MW
TeX: 678 0
ItalicCorrection: 78
HStem: 0 54<-65 -65 226 241 -72 -65 318 359 359 378 682 698> 668 54<71 100 63 445 384.5 405 405 438 507 521 804 804>
LayerCount: 2
Fore
SplineSet
698 0 m 1
 311 0 l 1
 318 54 l 1
 359 54 l 2
 397 54 409 59 409 76 c 0
 409 84 408 88 399 109 c 2
 326 279 l 1
 191 147 l 2
 170 127 160 109 160 94 c 0
 160 67 182 54 226 54 c 2
 248 54 l 1
 241 0 l 1
 -72 0 l 1
 -65 54 l 1
 -15 53 24 73 83 129 c 2
 300 342 l 1
 174 622 l 2
 156 661 145 668 100 668 c 2
 63 668 l 1
 71 722 l 1
 445 722 l 1
 438 668 l 1
 405 668 l 2
 364 668 351 663 351 648 c 0
 351 642 354 633 360 619 c 2
 429 468 l 1
 552 590 l 2
 568 605 576 621 576 636 c 0
 576 658 561 668 521 668 c 2
 500 668 l 1
 507 722 l 1
 811 722 l 1
 804 668 l 1
 732 663 710 651 633 577 c 2
 453 404 l 1
 585 109 l 2
 605 65 624 54 682 54 c 2
 705 54 l 1
 698 0 l 1
EndSplineSet
Substitution2: "'c2sc' Capitals to Small Capitals lookup 15 subtable" x.sc
Substitution2: "'aalt' Access All Alternates lookup 0 subtable" x.sc
Position2: "'cpsp' Capital Spacing lookup 0 subtable" dx=7 dy=0 dh=14 dv=0
EndChar

StartChar: x
Encoding: 120 120 117
Width: 574
Flags: MW
TeX: 457 0
ItalicCorrection: 27
HStem: -15 103<313.5 405> -15 144<8.5 33 -2 55.5> 338 141<487.5 514> 379 100<127 236.5>
LayerCount: 2
Fore
SplineSet
508 169 m 1xa0
 495 133 476 97 451 62 c 0
 415 10 376 -15 329 -15 c 0
 298 -15 271 -2 252 22 c 0
 235 42 227 64 215 120 c 2
 212 134 l 1
 175 82 l 2
 133 22 79 -15 32 -15 c 0
 -15 -15 -49 16 -49 61 c 0
 -49 101 -22 129 18 129 c 0
 48 129 69 111 77 79 c 0
 79 71 82 68 86 68 c 0
 101 68 121 88 157 139 c 2
 198 196 l 1
 184 261 l 2
 162 363 155 379 136 379 c 0x50
 118 379 106 366 66 296 c 2
 60 286 l 1
 20 306 l 1
 36 339 52 366 75 395 c 0
 119 453 160 479 207 479 c 0
 266 479 297 441 317 344 c 1
 339 373 l 2
 400 454 435 479 490 479 c 0
 538 479 571 450 571 407 c 0
 571 367 543 338 506 338 c 0
 469 338 447 358 447 393 c 0
 446 401 444 405 438 405 c 0
 420 405 391 372 330 282 c 1
 346 200 l 2
 365 108 373 88 394 88 c 0
 416 88 443 124 469 189 c 1
 508 169 l 1xa0
EndSplineSet
Substitution2: "'smcp' Lowercase to Small Capitals lookup 3 subtable" x.sc
Substitution2: "'aalt' Access All Alternates lookup 0 subtable" x.sc
EndChar

StartChar: Y
Encoding: 89 89 118
Width: 704
Flags: MW
TeX: 678 0
ItalicCorrection: 92
HStem: 0 54<75 94 94 115 439 457 68 94> 668 54<22 38 15 388 321 338 338 381 485 513 770 770>
LayerCount: 2
Fore
SplineSet
770 668 m 1
 707 666 675 644 616 567 c 2
 416 307 l 1
 373 144 l 2
 362 102 359 90 359 81 c 0
 359 59 373 54 439 54 c 2
 464 54 l 1
 457 0 l 1
 68 0 l 1
 75 54 l 1
 94 54 l 2
 136 54 160 58 170 68 c 0
 179 76 179 76 197 144 c 2
 240 307 l 1
 123 611 l 2
 106 656 87 668 38 668 c 2
 15 668 l 1
 22 722 l 1
 388 722 l 1
 381 668 l 1
 338 668 l 2
 304 668 294 663 294 644 c 0
 294 636 296 627 303 610 c 2
 394 379 l 1
 553 589 l 2
 564 603 570 619 570 632 c 0
 570 655 549 668 513 668 c 2
 477 668 l 1
 485 722 l 1
 777 722 l 1
 770 668 l 1
EndSplineSet
Substitution2: "'c2sc' Capitals to Small Capitals lookup 15 subtable" y.sc
Substitution2: "'aalt' Access All Alternates lookup 0 subtable" y.sc
Position2: "'cpsp' Capital Spacing lookup 0 subtable" dx=7 dy=0 dh=14 dv=0
EndChar

StartChar: y
Encoding: 121 121 119
Width: 519
Flags: MW
TeX: 457 271
ItalicCorrection: 13
HStem: -202 56<8 93.5> -202 164<8 25 -16 67> 365 114<81 172>
VStem: -66 140<-106 -89.5> 353 139<403.5 432> 393 99<284 436>
LayerCount: 2
Fore
SplineSet
492 417 m 0x28
 492 360 433 226 345 83 c 0
 285 -16 231 -89 181 -139 c 0
 140 -181 94 -202 40 -202 c 0
 -24 -202 -66 -166 -66 -111 c 0
 -66 -68 -37 -38 5 -38 c 0x58
 45 -38 74 -65 74 -102 c 0
 74 -110 73 -117 68 -130 c 0
 67 -132 67 -136 67 -136 c 2
 67 -141 73 -146 80 -146 c 0
 107 -146 155 -107 190 -58 c 2
 219 -18 l 1
 119 320 l 2
 108 357 103 365 90 365 c 0
 72 365 64 348 36 258 c 1
 -7 271 l 1
 26 412 78 479 155 479 c 0
 189 479 218 461 233 432 c 0
 244 411 261 365 270 333 c 2
 326 143 l 1
 376 227 393 267 393 301 c 0xb4
 393 320 390 328 374 354 c 0
 359 376 353 394 353 413 c 0
 353 451 383 479 424 479 c 0
 466 479 492 455 492 417 c 0x28
EndSplineSet
Substitution2: "'smcp' Lowercase to Small Capitals lookup 3 subtable" y.sc
Substitution2: "'aalt' Access All Alternates lookup 0 subtable" y.sc
EndChar

StartChar: Z
Encoding: 90 90 120
Width: 704
Flags: MW
TeX: 678 0
ItalicCorrection: 36
HStem: 0 54<-21 -21 197 288 288 360 -29 -21> 668 54<342.5 407 407 486 707 707>
LayerCount: 2
Fore
SplineSet
652 260 m 1
 582 0 l 1
 -29 0 l 1
 -21 54 l 1
 486 668 l 1
 407 668 l 2
 278 668 196 612 117 468 c 1
 68 478 l 1
 134 722 l 1
 715 722 l 1
 707 668 l 1
 197 54 l 1
 288 54 l 2
 432 54 522 117 601 273 c 1
 652 260 l 1
EndSplineSet
Substitution2: "'c2sc' Capitals to Small Capitals lookup 15 subtable" z.sc
Substitution2: "'aalt' Access All Alternates lookup 0 subtable" z.sc
Position2: "'cpsp' Capital Spacing lookup 0 subtable" dx=7 dy=0 dh=14 dv=0
EndChar

StartChar: z
Encoding: 122 122 121
Width: 519
Flags: MW
TeX: 457 0
HStem: -15 151<188 306.5> 328 151<169 283> 345 134<106 234>
VStem: -19 70<28 31.5>
LayerCount: 2
Fore
SplineSet
460 153 m 1xc0
 426 45 354 -15 259 -15 c 0
 206 -15 178 -5 86 49 c 0
 75 55 70 57 65 57 c 0
 56 57 51 48 51 28 c 0
 50 2 36 -15 13 -15 c 0
 -5 -15 -19 0 -19 19 c 0
 -19 44 2 79 47 131 c 0
 104 195 148 230 224 271 c 0
 272 296 304 312 307 314 c 0
 313 318 331 329 350 342 c 1
 320 332 298 328 268 328 c 0xd0
 245 328 235 329 178 338 c 0
 148 343 134 345 122 345 c 0x20
 90 345 81 337 58 286 c 1
 16 301 l 1
 57 419 124 479 214 479 c 0
 254 479 288 468 348 436 c 0
 372 423 385 418 392 418 c 0
 402 418 407 426 413 450 c 0
 419 470 427 479 441 479 c 0
 457 479 471 464 471 446 c 0
 471 410 428 347 358 280 c 0
 311 236 292 224 174 163 c 0
 146 149 135 142 110 126 c 1
 156 134 176 136 200 136 c 0
 231 136 260 131 295 121 c 0
 342 107 342 107 350 107 c 0
 376 107 396 126 416 169 c 1
 460 153 l 1xc0
EndSplineSet
Substitution2: "'smcp' Lowercase to Small Capitals lookup 3 subtable" z.sc
Substitution2: "'aalt' Access All Alternates lookup 0 subtable" z.sc
EndChar

StartChar: zero
Encoding: 48 48 122
Width: 574
Flags: MW
TeX: 678 0
ItalicCorrection: 17
HStem: -15 51<205.5 246.5 205.5 309.5> 656 49<329.5 369.5>
VStem: 21 145<85 358.5> 406 147<327 598.5>
LayerCount: 2
Fore
SplineSet
553 452 m 0
 553 202 398 -15 221 -15 c 0
 100 -15 21 84 21 236 c 0
 21 481 185 705 358 705 c 0
 477 705 553 606 553 452 c 0
340 209 m 0
 375 323 406 495 406 572 c 0
 406 625 386 656 353 656 c 0
 306 656 265 593 230 469 c 0
 197 350 166 176 166 107 c 0
 166 63 188 36 223 36 c 0
 270 36 301 81 340 209 c 0
EndSplineSet
Substitution2: "'zero' Slashed Zero lookup 21 subtable" zero.slash
Substitution2: "'pnum' Proportional Numbers lookup 7 subtable" zero.prop
Substitution2: "'onum' Oldstyle Figures lookup 5 subtable" zero.oldstyle
AlternateSubs2: "'aalt' Access All Alternates lookup 1 subtable" zero.oldstyle zero.prop zero.slash
EndChar

StartChar: f_f
Encoding: 64256 64256 123
Width: 778
Flags: MW
HStem: -205 21G<-48 -48 341 341> 403 61<51 133 34 149 295 522 684 795> 548 189<452.5 453 379.5 494.5 841.5 842> 690 47<387 417 776 806>
VStem: 404 146<604 624> 793 146<604 624>
LayerCount: 2
Fore
SplineSet
939 627 m 0x58
 939 581 906 548 861 548 c 0x24
 822 548 793 576 793 614 c 0
 793 634 797 645 817 671 c 0
 820 674 822 680 822 680 c 2
 822 686 812 690 800 690 c 0x14
 752 690 730 651 694 505 c 2
 684 464 l 1
 811 464 l 1
 795 403 l 1
 670 403 l 1
 623 189 l 2
 593 48 557 -83 522 -179 c 1
 341 -205 l 1
 369 -161 410 -42 458 133 c 1
 522 403 l 1
 281 403 l 1
 234 189 l 2
 204 48 168 -83 133 -179 c 1
 -48 -205 l 1
 -20 -161 21 -42 69 133 c 1
 133 403 l 1
 34 403 l 1
 51 464 l 1
 149 464 l 1
 176 561 201 614 241 658 c 0
 291 712 346 737 413 737 c 0
 493 737 550 691 550 627 c 0
 550 581 517 548 472 548 c 0xe8
 433 548 404 576 404 614 c 0
 404 634 408 645 428 671 c 0
 431 674 433 680 433 680 c 2
 433 686 423 690 411 690 c 0
 363 690 341 651 305 505 c 2
 295 464 l 1
 538 464 l 1
 565 561 590 614 630 658 c 0
 680 712 735 737 802 737 c 0
 882 737 939 691 939 627 c 0x58
EndSplineSet
Ligature2: "'liga' Standard Ligatures lookup 9 subtable" f f
EndChar

StartChar: f_f_i
Encoding: 64259 64259 124
Width: 1084
Flags: MW
HStem: -205 21G<-48 -48 329 329> -15 79<808 915> 403 61<51 133 34 149 295 510 672 737 737 770.5> 546 191 548 189<452.5 453 379.5 494.5> 690 47<387 417 829 856.5>
VStem: 404 146<604 624> 734 155<75.5 84 75.5 85> 855 157<602.5 623>
LayerCount: 2
Fore
SplineSet
1045 149 m 1x65
 977 35 914 -15 838 -15 c 0
 778 -15 734 23 734 75 c 0
 734 95 736 105 749 149 c 2
 796 306 l 2
 806 341 812 367 812 376 c 0
 812 391 799 403 782 403 c 2
 658 403 l 1
 611 188 l 2
 581 47 546 -82 510 -179 c 1
 329 -205 l 1
 357 -161 399 -40 446 132 c 1
 510 403 l 1
 281 403 l 1
 234 189 l 2
 204 48 168 -83 133 -179 c 1
 -48 -205 l 1
 -20 -161 21 -42 69 133 c 1
 133 403 l 1
 34 403 l 1
 51 464 l 1
 149 464 l 1
 176 561 201 614 241 658 c 0
 291 712 346 737 413 737 c 0
 493 737 550 691 550 627 c 0
 550 581 517 548 472 548 c 0xeb
 433 548 404 576 404 614 c 0
 404 634 408 645 428 671 c 0
 431 674 433 680 433 680 c 2
 433 686 423 690 411 690 c 0x06
 363 690 341 651 305 505 c 2
 295 464 l 1
 526 464 l 1
 592 660 681 737 841 737 c 0
 944 737 1012 693 1012 625 c 0
 1012 580 978 546 932 546 c 0
 886 546 855 574 855 615 c 0x3080
 855 631 859 643 871 661 c 0
 878 670 879 672 879 676 c 0
 879 685 867 690 846 690 c 0
 812 690 781 676 752 645 c 0
 717 609 694 557 672 464 c 1
 737 464 l 2
 804 464 872 468 1004 478 c 1
 899 122 l 2
 890 92 889 88 889 80 c 0
 889 71 896 64 905 64 c 0
 925 64 958 100 1006 177 c 1
 1045 149 l 1x65
EndSplineSet
Ligature2: "'liga' Standard Ligatures in Latin lookup 13 subtable" f_f i
Ligature2: "'liga' Standard Ligatures in Latin lookup 12 subtable" f_f i
Ligature2: "'liga' Standard Ligatures lookup 10 subtable" f_f i
EndChar

StartChar: f_f_l
Encoding: 64260 64260 125
Width: 1074
Flags: MW
HStem: -205 21G<-48 -48 319 319> -15 79<797.5 901.5> 403 61<51 133 34 149 295 500 662 773> 548 189<452.5 453 379.5 494.5> 689 47<803 835 784.5 840> 690 47<387 417>
VStem: 404 146<604 624> 726 152<75.5 83 75.5 87.5>
LayerCount: 2
Fore
SplineSet
1039 149 m 1x69
 1018 111 988 74 953 41 c 0
 912 2 875 -15 828 -15 c 0
 767 -15 726 22 726 76 c 0
 726 99 731 125 748 183 c 2
 864 574 l 1
 846 589 839 601 839 621 c 0
 839 639 844 650 862 670 c 0
 865 673 866 677 866 677 c 2
 866 684 851 689 829 689 c 0x49
 777 689 737 657 705 592 c 0
 689 560 678 529 662 464 c 1
 789 464 l 1
 773 403 l 1
 648 403 l 1
 601 188 l 2
 571 47 536 -82 500 -179 c 1
 319 -205 l 1
 347 -161 389 -40 436 132 c 1
 500 403 l 1
 281 403 l 1
 234 189 l 2
 204 48 168 -83 133 -179 c 1
 -48 -205 l 1
 -20 -161 21 -42 69 133 c 1
 133 403 l 1
 34 403 l 1
 51 464 l 1
 149 464 l 1
 176 561 201 614 241 658 c 0
 291 712 346 737 413 737 c 0
 493 737 550 691 550 627 c 0
 550 581 517 548 472 548 c 0xb2
 433 548 404 576 404 614 c 0
 404 634 408 645 428 671 c 0
 431 674 433 680 433 680 c 2
 433 686 423 690 411 690 c 0x06
 363 690 341 651 305 505 c 2
 295 464 l 1
 516 464 l 1
 555 578 577 619 620 658 c 0
 673 706 749 736 820 736 c 0
 850 736 878 731 907 721 c 1
 1070 736 l 1
 888 122 l 2
 886 116 884 110 883 106 c 0
 880 96 878 86 878 80 c 0
 878 71 885 64 894 64 c 0
 909 64 927 79 954 113 c 0
 975 139 989 158 1000 177 c 1
 1039 149 l 1x69
EndSplineSet
Ligature2: "'liga' Standard Ligatures lookup 9 subtable" f f l
EndChar

StartChar: f_i
Encoding: 64257 64257 126
Width: 685
Flags: MW
HStem: -205 21G<-70 -70> -15 79<409 516> 403 61<29 111 12 127 273 338 338 371.5> 546 191<362 556> 690 47<430 457.5>
VStem: 335 155<75.5 84 75.5 85> 456 157<602.5 623>
LayerCount: 2
Fore
SplineSet
646 149 m 1x6c
 578 35 515 -15 439 -15 c 0
 379 -15 335 23 335 75 c 0x44
 335 95 337 105 350 149 c 2
 397 306 l 2
 407 341 413 367 413 376 c 0
 413 391 400 403 383 403 c 2
 259 403 l 1
 212 188 l 2
 182 47 147 -82 111 -179 c 1
 -70 -205 l 1
 -42 -161 0 -40 47 132 c 1
 111 403 l 1
 12 403 l 1
 29 464 l 1
 127 464 l 1
 193 660 282 737 442 737 c 0
 545 737 613 693 613 625 c 0
 613 580 579 546 533 546 c 0
 487 546 456 574 456 615 c 0xb2
 456 631 460 643 472 661 c 0
 479 670 480 672 480 676 c 0
 480 685 468 690 447 690 c 0
 413 690 382 676 353 645 c 0
 318 609 295 557 273 464 c 1
 338 464 l 2
 405 464 473 468 605 478 c 1
 500 122 l 2
 491 92 490 88 490 80 c 0
 490 71 497 64 506 64 c 0
 526 64 559 100 607 177 c 1
 646 149 l 1x6c
EndSplineSet
Ligature2: "'liga' Standard Ligatures in Latin lookup 13 subtable" f i
Ligature2: "'liga' Standard Ligatures in Latin lookup 12 subtable" f i
Ligature2: "'liga' Standard Ligatures lookup 10 subtable" f i
EndChar

StartChar: f_l
Encoding: 64258 64258 127
Width: 685
Flags: MW
HStem: -205 21G<-70 -70> -15 79<408.5 512.5> 403 61<29 111 12 127 273 384> 689 47<414 446 395.5 451>
VStem: 337 152<75.5 83 75.5 87.5>
LayerCount: 2
Fore
SplineSet
650 149 m 1
 629 111 599 74 564 41 c 0
 523 2 486 -15 439 -15 c 0
 378 -15 337 22 337 76 c 0
 337 99 342 125 359 183 c 2
 475 574 l 1
 457 589 450 601 450 621 c 0
 450 639 455 650 473 670 c 0
 476 673 477 677 477 677 c 2
 477 684 462 689 440 689 c 0
 388 689 348 657 316 592 c 0
 300 560 289 529 273 464 c 1
 400 464 l 1
 384 403 l 1
 259 403 l 1
 212 188 l 2
 182 47 147 -82 111 -179 c 1
 -70 -205 l 1
 -42 -161 0 -40 47 132 c 1
 111 403 l 1
 12 403 l 1
 29 464 l 1
 127 464 l 1
 166 578 188 619 231 658 c 0
 284 706 360 736 431 736 c 0
 461 736 489 731 518 721 c 1
 681 736 l 1
 499 122 l 2
 497 116 495 110 494 106 c 0
 491 96 489 86 489 80 c 0
 489 71 496 64 505 64 c 0
 520 64 538 79 565 113 c 0
 586 139 600 158 611 177 c 1
 650 149 l 1
EndSplineSet
Ligature2: "'liga' Standard Ligatures lookup 9 subtable" f l
EndChar

StartChar: Aacute
Encoding: 193 193 128
Width: 741
Flags: MW
TeX: 887 0
HStem: 0 54<-68 -52 -52 -30 196 211 -75 -52 342 358 358 378.5 702 709> 220 54<217 404 217 417 185 404> 716 20G<419 481 481 481> 770 21G<335 400 335 335> 916 20G<554 586>
LayerCount: 2
Fore
SplineSet
709 0 m 1
 335 0 l 1
 342 54 l 1
 358 54 l 2
 399 54 410 55 424 62 c 0
 434 66 441 76 441 85 c 0
 441 92 440 103 437 117 c 2
 417 220 l 1
 185 220 l 1
 139 139 l 2
 130 124 125 108 125 96 c 0
 125 67 140 54 196 54 c 2
 219 54 l 1
 211 0 l 1
 -75 0 l 1
 -68 54 l 1
 -52 54 l 2
 -8 54 33 93 71 157 c 2
 419 736 l 1
 481 736 l 1
 612 114 l 2
 622 67 641 54 702 54 c 2
 716 54 l 1
 709 0 l 1
404 274 m 1
 358 515 l 1
 217 274 l 1
 404 274 l 1
633 889 m 0x18
 633 872 621 859 599 850 c 2
 400 770 l 1
 335 770 l 1
 484 896 l 2
 524 930 540 936 568 936 c 0
 604 936 633 915 633 889 c 0x18
EndSplineSet
Substitution2: "'c2sc' Capitals to Small Capitals lookup 15 subtable" aacute.sc
Substitution2: "'aalt' Access All Alternates lookup 0 subtable" aacute.sc
Position2: "'cpsp' Capital Spacing lookup 0 subtable" dx=7 dy=0 dh=14 dv=0
EndChar

StartChar: aacute
Encoding: 225 225 129
Width: 667
Flags: MW
TeX: 704 0
HStem: -15 85<408.5 511.5> -14 70<220.5 222.5> 424 55<292 330.5 227 351.5> 538 21G<266 320 266 266> 702 20G<448 475>
VStem: 15 163<114 192 111 248> 351 138<46.5 89.5>
LayerCount: 2
Fore
SplineSet
646 157 m 1xa6
 586 56 507 -15 436 -15 c 0x80
 381 -15 351 20 351 73 c 1
 303 11 257 -14 188 -14 c 0x42
 87 -14 15 61 15 167 c 0
 15 329 153 479 301 479 c 0
 360 479 402 458 426 416 c 1
 440 464 l 1
 597 464 l 1
 499 132 l 2
 489 93 489 93 489 86 c 0
 489 78 496 70 503 70 c 0
 520 70 570 124 607 182 c 1
 646 157 l 1xa6
395 351 m 0
 395 394 370 424 333 424 c 0
 251 424 178 249 178 135 c 0
 178 87 202 56 239 56 c 0x64
 322 56 395 249 395 351 c 0
514 670 m 0x18
 514 651 504 636 486 626 c 2
 320 538 l 1
 266 538 l 1
 390 677 l 2
 424 714 436 722 460 722 c 0
 490 722 514 699 514 670 c 0x18
EndSplineSet
Substitution2: "'smcp' Lowercase to Small Capitals lookup 3 subtable" aacute.sc
Substitution2: "'aalt' Access All Alternates lookup 0 subtable" aacute.sc
EndChar

StartChar: Abreve
Encoding: 258 258 130
Width: 741
Flags: MW
HStem: 0 54<-68 -52 -52 -30 196 211 -75 -52 342 358 358 378.5 702 709> 220 54<217 404 217 417 185 404> 716 20G<419 481 481 481> 779 71<433.5 497.5> 907 20G<296 352 352 352 625 682 682 682>
LayerCount: 2
Fore
SplineSet
709 0 m 1
 335 0 l 1
 342 54 l 1
 358 54 l 2
 399 54 410 55 424 62 c 0
 434 66 441 76 441 85 c 0
 441 92 440 103 437 117 c 2
 417 220 l 1
 185 220 l 1
 139 139 l 2
 130 124 125 108 125 96 c 0
 125 67 140 54 196 54 c 2
 219 54 l 1
 211 0 l 1
 -75 0 l 1
 -68 54 l 1
 -52 54 l 2
 -8 54 33 93 71 157 c 2
 419 736 l 1
 481 736 l 1
 612 114 l 2
 622 67 641 54 702 54 c 2
 716 54 l 1
 709 0 l 1
404 274 m 1
 358 515 l 1
 217 274 l 1
 404 274 l 1
682 927 m 1x18
 678 894 661 862 631 835 c 0
 589 797 534 779 461 779 c 0
 341 779 280 840 296 927 c 1
 352 927 l 1
 358 873 394 850 473 850 c 0
 547 850 610 881 625 927 c 1
 682 927 l 1x18
EndSplineSet
Substitution2: "'c2sc' Capitals to Small Capitals lookup 15 subtable" abreve.sc
Substitution2: "'aalt' Access All Alternates lookup 0 subtable" abreve.sc
Position2: "'cpsp' Capital Spacing lookup 0 subtable" dx=7 dy=0 dh=14 dv=0
EndChar

StartChar: abreve
Encoding: 259 259 131
Width: 667
Flags: MW
HStem: -15 85<408.5 511.5> -14 70<220.5 222.5> 424 55<292 330.5 227 351.5> 548 79<343 396.5> 692 20G<229 275 275 275 503 550 550 550>
VStem: 15 163<114 192 111 248> 351 138<46.5 89.5>
LayerCount: 2
Fore
SplineSet
646 157 m 1xa6
 586 56 507 -15 436 -15 c 0x80
 381 -15 351 20 351 73 c 1
 303 11 257 -14 188 -14 c 0x42
 87 -14 15 61 15 167 c 0
 15 329 153 479 301 479 c 0
 360 479 402 458 426 416 c 1
 440 464 l 1
 597 464 l 1
 499 132 l 2
 489 93 489 93 489 86 c 0
 489 78 496 70 503 70 c 0
 520 70 570 124 607 182 c 1
 646 157 l 1xa6
395 351 m 0
 395 394 370 424 333 424 c 0
 251 424 178 249 178 135 c 0
 178 87 202 56 239 56 c 0x64
 322 56 395 249 395 351 c 0
550 712 m 1x18
 547 676 533 640 508 610 c 0
 473 568 427 548 366 548 c 0
 278 548 227 597 227 683 c 0
 227 689 228 699 229 712 c 1
 275 712 l 1
 280 652 310 627 376 627 c 0
 438 627 490 661 503 712 c 1
 550 712 l 1x18
EndSplineSet
Substitution2: "'smcp' Lowercase to Small Capitals lookup 3 subtable" abreve.sc
Substitution2: "'aalt' Access All Alternates lookup 0 subtable" abreve.sc
EndChar

StartChar: Abreveacute
Encoding: 7854 7854 132
Width: 741
Flags: MW
HStem: 0 54<-68 -52 -52 -30 196 211 -75 -52 342 358 358 378.5 702 709> 220 54<217 404 217 417 185 404> 716 20G<419 481 481 481> 779 71<433.5 497.5> 907 20G<296 352 352 352 625 682 682 682> 949 21G<403 468 403 403> 1095 20G<622 654>
LayerCount: 2
Fore
SplineSet
709 0 m 1
 335 0 l 1
 342 54 l 1
 358 54 l 2
 399 54 410 55 424 62 c 0
 434 66 441 76 441 85 c 0
 441 92 440 103 437 117 c 2
 417 220 l 1
 185 220 l 1
 139 139 l 2
 130 124 125 108 125 96 c 0
 125 67 140 54 196 54 c 2
 219 54 l 1
 211 0 l 1
 -75 0 l 1
 -68 54 l 1
 -52 54 l 2
 -8 54 33 93 71 157 c 2
 419 736 l 1
 481 736 l 1
 612 114 l 2
 622 67 641 54 702 54 c 2
 716 54 l 1
 709 0 l 1
404 274 m 1
 358 515 l 1
 217 274 l 1
 404 274 l 1
701 1068 m 0x1e
 701 1051 689 1038 667 1029 c 2
 468 949 l 1
 403 949 l 1
 552 1075 l 2
 592 1109 608 1115 636 1115 c 0
 672 1115 701 1094 701 1068 c 0x1e
682 927 m 1
 678 894 661 862 631 835 c 0
 589 797 534 779 461 779 c 0
 341 779 280 840 296 927 c 1
 352 927 l 1
 358 873 394 850 473 850 c 0
 547 850 610 881 625 927 c 1
 682 927 l 1
EndSplineSet
Substitution2: "'c2sc' Capitals to Small Capitals lookup 15 subtable" abreveacute.sc
Substitution2: "'aalt' Access All Alternates lookup 0 subtable" abreveacute.sc
Position2: "'cpsp' Capital Spacing lookup 0 subtable" dx=7 dy=0 dh=14 dv=0
EndChar

StartChar: abreveacute
Encoding: 7855 7855 133
Width: 667
Flags: MW
HStem: -15 85<408.5 511.5> -14 70<220.5 222.5> 424 55<292 330.5 227 351.5> 536 71<335.5 399.5> 664 20G<198 254 254 254 527 584 584 584> 706 21G<305 370 305 305> 852 20G<524 556>
VStem: 15 163<114 192 111 248> 351 138<46.5 89.5>
LayerCount: 2
Fore
SplineSet
646 157 m 1xa180
 586 56 507 -15 436 -15 c 0x80
 381 -15 351 20 351 73 c 1
 303 11 257 -14 188 -14 c 0x4080
 87 -14 15 61 15 167 c 0
 15 329 153 479 301 479 c 0
 360 479 402 458 426 416 c 1
 440 464 l 1
 597 464 l 1
 499 132 l 2
 489 93 489 93 489 86 c 0
 489 78 496 70 503 70 c 0
 520 70 570 124 607 182 c 1
 646 157 l 1xa180
395 351 m 0
 395 394 370 424 333 424 c 0
 251 424 178 249 178 135 c 0
 178 87 202 56 239 56 c 0x61
 322 56 395 249 395 351 c 0
603 825 m 0x1e
 603 808 591 795 569 786 c 2
 370 706 l 1
 305 706 l 1
 454 832 l 2
 494 866 510 872 538 872 c 0
 574 872 603 851 603 825 c 0x1e
584 684 m 1
 580 651 563 619 533 592 c 0
 491 554 436 536 363 536 c 0
 243 536 182 597 198 684 c 1
 254 684 l 1
 260 630 296 607 375 607 c 0
 449 607 512 638 527 684 c 1
 584 684 l 1
EndSplineSet
Substitution2: "'smcp' Lowercase to Small Capitals lookup 3 subtable" abreveacute.sc
Substitution2: "'aalt' Access All Alternates lookup 0 subtable" abreveacute.sc
EndChar

StartChar: Abrevedotbelow
Encoding: 7862 7862 134
Width: 741
Flags: MW
HStem: -222 143<311 350> 0 54<-68 -52 -52 -30 196 211 -75 -52 342 358 358 378.5 702 709> 220 54<217 404 217 417 185 404> 716 20G<419 481 481 481> 779 71<433.5 497.5> 907 20G<296 352 352 352 625 682 682 682>
LayerCount: 2
Fore
SplineSet
709 0 m 1
 335 0 l 1
 342 54 l 1
 358 54 l 2
 399 54 410 55 424 62 c 0
 434 66 441 76 441 85 c 0
 441 92 440 103 437 117 c 2
 417 220 l 1
 185 220 l 1
 139 139 l 2
 130 124 125 108 125 96 c 0
 125 67 140 54 196 54 c 2
 219 54 l 1
 211 0 l 1
 -75 0 l 1
 -68 54 l 1
 -52 54 l 2
 -8 54 33 93 71 157 c 2
 419 736 l 1
 481 736 l 1
 612 114 l 2
 622 67 641 54 702 54 c 2
 716 54 l 1
 709 0 l 1
404 274 m 1
 358 515 l 1
 217 274 l 1
 404 274 l 1
682 927 m 1
 678 894 661 862 631 835 c 0
 589 797 534 779 461 779 c 0
 341 779 280 840 296 927 c 1
 352 927 l 1
 358 873 394 850 473 850 c 0
 547 850 610 881 625 927 c 1
 682 927 l 1
402 -150 m 0x80
 402 -190 370 -222 330 -222 c 0
 291 -222 259 -189 259 -150 c 0
 259 -111 291 -79 331 -79 c 0
 370 -79 402 -111 402 -150 c 0x80
EndSplineSet
Substitution2: "'c2sc' Capitals to Small Capitals lookup 15 subtable" abrevedotbelow.sc
Substitution2: "'aalt' Access All Alternates lookup 0 subtable" abrevedotbelow.sc
Position2: "'cpsp' Capital Spacing lookup 0 subtable" dx=7 dy=0 dh=14 dv=0
EndChar

StartChar: abrevedotbelow
Encoding: 7863 7863 135
Width: 667
Flags: MW
HStem: -222 143<160 199> -15 85<408.5 511.5> -14 70<220.5 222.5> 424 55<292 330.5 227 351.5> 548 79<343 396.5> 692 20G<229 275 275 275 503 550 550 550>
VStem: 15 163<114 192 111 248> 351 138<46.5 89.5>
LayerCount: 2
Fore
SplineSet
646 157 m 1x53
 586 56 507 -15 436 -15 c 0x40
 381 -15 351 20 351 73 c 1
 303 11 257 -14 188 -14 c 0x21
 87 -14 15 61 15 167 c 0
 15 329 153 479 301 479 c 0
 360 479 402 458 426 416 c 1
 440 464 l 1
 597 464 l 1
 499 132 l 2
 489 93 489 93 489 86 c 0
 489 78 496 70 503 70 c 0
 520 70 570 124 607 182 c 1
 646 157 l 1x53
395 351 m 0
 395 394 370 424 333 424 c 0
 251 424 178 249 178 135 c 0
 178 87 202 56 239 56 c 0x3e
 322 56 395 249 395 351 c 0
550 712 m 1
 547 676 533 640 508 610 c 0
 473 568 427 548 366 548 c 0
 278 548 227 597 227 683 c 0
 227 689 228 699 229 712 c 1
 275 712 l 1
 280 652 310 627 376 627 c 0
 438 627 490 661 503 712 c 1
 550 712 l 1
251 -150 m 0x80
 251 -190 219 -222 179 -222 c 0
 140 -222 108 -189 108 -150 c 0
 108 -111 140 -79 180 -79 c 0
 219 -79 251 -111 251 -150 c 0x80
EndSplineSet
Substitution2: "'smcp' Lowercase to Small Capitals lookup 3 subtable" abrevedotbelow.sc
Substitution2: "'aalt' Access All Alternates lookup 0 subtable" abrevedotbelow.sc
EndChar

StartChar: Abrevegrave
Encoding: 7856 7856 136
Width: 741
Flags: MW
HStem: 0 54<-68 -52 -52 -30 196 211 -75 -52 342 358 358 378.5 702 709> 220 54<217 404 217 417 185 404> 716 20G<419 481 481 481> 779 71<433.5 497.5> 907 20G<296 352 352 352 625 682 682 682> 949 21G<545 610 545 545> 1095 20G<448 480>
LayerCount: 2
Fore
SplineSet
709 0 m 1
 335 0 l 1
 342 54 l 1
 358 54 l 2
 399 54 410 55 424 62 c 0
 434 66 441 76 441 85 c 0
 441 92 440 103 437 117 c 2
 417 220 l 1
 185 220 l 1
 139 139 l 2
 130 124 125 108 125 96 c 0
 125 67 140 54 196 54 c 2
 219 54 l 1
 211 0 l 1
 -75 0 l 1
 -68 54 l 1
 -52 54 l 2
 -8 54 33 93 71 157 c 2
 419 736 l 1
 481 736 l 1
 612 114 l 2
 622 67 641 54 702 54 c 2
 716 54 l 1
 709 0 l 1
404 274 m 1
 358 515 l 1
 217 274 l 1
 404 274 l 1
610 949 m 1x1e
 545 949 l 1
 389 1029 l 2
 372 1038 367 1051 376 1068 c 0
 390 1094 430 1115 466 1115 c 0
 494 1115 507 1109 529 1075 c 2
 610 949 l 1x1e
682 927 m 1
 678 894 661 862 631 835 c 0
 589 797 534 779 461 779 c 0
 341 779 280 840 296 927 c 1
 352 927 l 1
 358 873 394 850 473 850 c 0
 547 850 610 881 625 927 c 1
 682 927 l 1
EndSplineSet
Substitution2: "'c2sc' Capitals to Small Capitals lookup 15 subtable" abrevegrave.sc
Substitution2: "'aalt' Access All Alternates lookup 0 subtable" abrevegrave.sc
Position2: "'cpsp' Capital Spacing lookup 0 subtable" dx=7 dy=0 dh=14 dv=0
EndChar

StartChar: abrevegrave
Encoding: 7857 7857 137
Width: 667
Flags: MW
HStem: -15 85<408.5 511.5> -14 70<220.5 222.5> 424 55<292 330.5 227 351.5> 536 71<335.5 399.5> 664 20G<198 254 254 254 527 584 584 584> 706 21G<447 512 447 447> 852 20G<350 382>
VStem: 15 163<114 192 111 248> 351 138<46.5 89.5>
LayerCount: 2
Fore
SplineSet
646 157 m 1xa180
 586 56 507 -15 436 -15 c 0x80
 381 -15 351 20 351 73 c 1
 303 11 257 -14 188 -14 c 0x4080
 87 -14 15 61 15 167 c 0
 15 329 153 479 301 479 c 0
 360 479 402 458 426 416 c 1
 440 464 l 1
 597 464 l 1
 499 132 l 2
 489 93 489 93 489 86 c 0
 489 78 496 70 503 70 c 0
 520 70 570 124 607 182 c 1
 646 157 l 1xa180
395 351 m 0
 395 394 370 424 333 424 c 0
 251 424 178 249 178 135 c 0
 178 87 202 56 239 56 c 0x61
 322 56 395 249 395 351 c 0
512 706 m 1x1e
 447 706 l 1
 291 786 l 2
 274 795 269 808 278 825 c 0
 292 851 332 872 368 872 c 0
 396 872 409 866 431 832 c 2
 512 706 l 1x1e
584 684 m 1
 580 651 563 619 533 592 c 0
 491 554 436 536 363 536 c 0
 243 536 182 597 198 684 c 1
 254 684 l 1
 260 630 296 607 375 607 c 0
 449 607 512 638 527 684 c 1
 584 684 l 1
EndSplineSet
Substitution2: "'smcp' Lowercase to Small Capitals lookup 3 subtable" abrevegrave.sc
Substitution2: "'aalt' Access All Alternates lookup 0 subtable" abrevegrave.sc
EndChar

StartChar: Abrevehookabove
Encoding: 7858 7858 138
Width: 741
Flags: MW
HStem: 0 54<-68 -52 -52 -30 196 211 -75 -52 342 358 358 378.5 702 709> 220 54<217 404 217 417 185 404> 716 20G<419 481 481 481> 779 71<433.5 497.5> 907 20G<296 352 352 352 625 682 682 682> 997 98<445.5 581>
LayerCount: 2
Fore
SplineSet
709 0 m 1
 335 0 l 1
 342 54 l 1
 358 54 l 2
 399 54 410 55 424 62 c 0
 434 66 441 76 441 85 c 0
 441 92 440 103 437 117 c 2
 417 220 l 1
 185 220 l 1
 139 139 l 2
 130 124 125 108 125 96 c 0
 125 67 140 54 196 54 c 2
 219 54 l 1
 211 0 l 1
 -75 0 l 1
 -68 54 l 1
 -52 54 l 2
 -8 54 33 93 71 157 c 2
 419 736 l 1
 481 736 l 1
 612 114 l 2
 622 67 641 54 702 54 c 2
 716 54 l 1
 709 0 l 1
404 274 m 1
 358 515 l 1
 217 274 l 1
 404 274 l 1
640 1042 m 0x1c
 640 1011 631 994 552 954 c 0
 518 936 511 932 503 905 c 1
 469 905 l 1
 470 936 475 940 522 984 c 0
 542 1003 555 1026 555 1041 c 0
 555 1056 543 1065 521 1065 c 0
 508 1065 498 1061 498 1061 c 1
 511 1051 515 1045 515 1037 c 0
 515 1014 487 997 458 997 c 0
 433 997 417 1008 417 1026 c 0
 417 1065 480 1095 550 1095 c 0
 612 1095 640 1066 640 1042 c 0x1c
682 927 m 1
 678 894 661 862 631 835 c 0
 589 797 534 779 461 779 c 0
 341 779 280 840 296 927 c 1
 352 927 l 1
 358 873 394 850 473 850 c 0
 547 850 610 881 625 927 c 1
 682 927 l 1
EndSplineSet
Substitution2: "'c2sc' Capitals to Small Capitals lookup 15 subtable" abrevehookabove.sc
Substitution2: "'aalt' Access All Alternates lookup 0 subtable" abrevehookabove.sc
Position2: "'cpsp' Capital Spacing lookup 0 subtable" dx=7 dy=0 dh=14 dv=0
EndChar

StartChar: abrevehookabove
Encoding: 7859 7859 139
Width: 667
Flags: MW
HStem: -15 85<408.5 511.5> -14 70<220.5 222.5> 424 55<292 330.5 227 351.5> 536 71<335.5 399.5> 664 20G<198 254 254 254 527 584 584 584> 754 98<347.5 483>
VStem: 15 163<114 192 111 248> 351 138<46.5 89.5>
LayerCount: 2
Fore
SplineSet
646 157 m 1xa3
 586 56 507 -15 436 -15 c 0x80
 381 -15 351 20 351 73 c 1
 303 11 257 -14 188 -14 c 0x41
 87 -14 15 61 15 167 c 0
 15 329 153 479 301 479 c 0
 360 479 402 458 426 416 c 1
 440 464 l 1
 597 464 l 1
 499 132 l 2
 489 93 489 93 489 86 c 0
 489 78 496 70 503 70 c 0
 520 70 570 124 607 182 c 1
 646 157 l 1xa3
395 351 m 0
 395 394 370 424 333 424 c 0
 251 424 178 249 178 135 c 0
 178 87 202 56 239 56 c 0x62
 322 56 395 249 395 351 c 0
542 799 m 0x1c
 542 768 533 751 454 711 c 0
 420 693 413 689 405 662 c 1
 371 662 l 1
 372 693 377 697 424 741 c 0
 444 760 457 783 457 798 c 0
 457 813 445 822 423 822 c 0
 410 822 400 818 400 818 c 1
 413 808 417 802 417 794 c 0
 417 771 389 754 360 754 c 0
 335 754 319 765 319 783 c 0
 319 822 382 852 452 852 c 0
 514 852 542 823 542 799 c 0x1c
584 684 m 1
 580 651 563 619 533 592 c 0
 491 554 436 536 363 536 c 0
 243 536 182 597 198 684 c 1
 254 684 l 1
 260 630 296 607 375 607 c 0
 449 607 512 638 527 684 c 1
 584 684 l 1
EndSplineSet
Substitution2: "'smcp' Lowercase to Small Capitals lookup 3 subtable" abrevehookabove.sc
Substitution2: "'aalt' Access All Alternates lookup 0 subtable" abrevehookabove.sc
EndChar

StartChar: Abrevetilde
Encoding: 7860 7860 140
Width: 741
Flags: MW
HStem: 0 54<-68 -52 -52 -30 196 211 -75 -52 342 358 358 378.5 702 709> 220 54<217 404 217 417 185 404> 716 20G<419 481 481 481> 779 71<433.5 497.5> 907 20G<296 352 352 352 625 682 682 682>
LayerCount: 2
Fore
SplineSet
709 0 m 1
 335 0 l 1
 342 54 l 1
 358 54 l 2
 399 54 410 55 424 62 c 0
 434 66 441 76 441 85 c 0
 441 92 440 103 437 117 c 2
 417 220 l 1
 185 220 l 1
 139 139 l 2
 130 124 125 108 125 96 c 0
 125 67 140 54 196 54 c 2
 219 54 l 1
 211 0 l 1
 -75 0 l 1
 -68 54 l 1
 -52 54 l 2
 -8 54 33 93 71 157 c 2
 419 736 l 1
 481 736 l 1
 612 114 l 2
 622 67 641 54 702 54 c 2
 716 54 l 1
 709 0 l 1
404 274 m 1
 358 515 l 1
 217 274 l 1
 404 274 l 1
711 1082 m 1x18
 708 1015 650 956 587 956 c 0
 566 956 541 962 502 977 c 0
 457 995 445 998 430 998 c 0
 408 998 393 983 388 956 c 1
 341 956 l 1
 346 1029 399 1082 465 1082 c 0
 485 1082 511 1076 544 1063 c 0
 592 1044 599 1042 614 1042 c 0
 639 1042 656 1056 664 1082 c 1
 711 1082 l 1x18
682 927 m 1
 678 894 661 862 631 835 c 0
 589 797 534 779 461 779 c 0
 341 779 280 840 296 927 c 1
 352 927 l 1
 358 873 394 850 473 850 c 0
 547 850 610 881 625 927 c 1
 682 927 l 1
EndSplineSet
Substitution2: "'c2sc' Capitals to Small Capitals lookup 15 subtable" abrevetilde.sc
Substitution2: "'aalt' Access All Alternates lookup 0 subtable" abrevetilde.sc
Position2: "'cpsp' Capital Spacing lookup 0 subtable" dx=7 dy=0 dh=14 dv=0
EndChar

StartChar: abrevetilde
Encoding: 7861 7861 141
Width: 667
Flags: MW
HStem: -15 85<408.5 511.5> -14 70<220.5 222.5> 424 55<292 330.5 227 351.5> 536 71<335.5 399.5> 664 20G<198 254 254 254 527 584 584 584>
VStem: 15 163<114 192 111 248> 351 138<46.5 89.5>
LayerCount: 2
Fore
SplineSet
646 157 m 1xa6
 586 56 507 -15 436 -15 c 0x80
 381 -15 351 20 351 73 c 1
 303 11 257 -14 188 -14 c 0x42
 87 -14 15 61 15 167 c 0
 15 329 153 479 301 479 c 0
 360 479 402 458 426 416 c 1
 440 464 l 1
 597 464 l 1
 499 132 l 2
 489 93 489 93 489 86 c 0
 489 78 496 70 503 70 c 0
 520 70 570 124 607 182 c 1
 646 157 l 1xa6
395 351 m 0
 395 394 370 424 333 424 c 0
 251 424 178 249 178 135 c 0
 178 87 202 56 239 56 c 0x64
 322 56 395 249 395 351 c 0
613 839 m 1x1a
 610 772 552 713 489 713 c 0
 468 713 443 719 404 734 c 0
 359 752 347 755 332 755 c 0
 310 755 295 740 290 713 c 1
 243 713 l 1
 248 786 301 839 367 839 c 0
 387 839 413 833 446 820 c 0
 494 801 501 799 516 799 c 0
 541 799 558 813 566 839 c 1
 613 839 l 1x1a
584 684 m 1
 580 651 563 619 533 592 c 0
 491 554 436 536 363 536 c 0
 243 536 182 597 198 684 c 1
 254 684 l 1
 260 630 296 607 375 607 c 0
 449 607 512 638 527 684 c 1
 584 684 l 1
EndSplineSet
Substitution2: "'smcp' Lowercase to Small Capitals lookup 3 subtable" abrevetilde.sc
Substitution2: "'aalt' Access All Alternates lookup 0 subtable" abrevetilde.sc
EndChar

StartChar: Acaron
Encoding: 461 461 142
Width: 741
Flags: MW
HStem: 0 54<-68 -52 -52 -30 196 211 -75 -52 342 358 358 378.5 702 709> 220 54<217 404 217 417 185 404> 716 20G<419 481 481 481> 775 21G<397 519 397 397> 912 20G<297 367 367 367 627 707 707 707>
LayerCount: 2
Fore
SplineSet
709 0 m 1
 335 0 l 1
 342 54 l 1
 358 54 l 2
 399 54 410 55 424 62 c 0
 434 66 441 76 441 85 c 0
 441 92 440 103 437 117 c 2
 417 220 l 1
 185 220 l 1
 139 139 l 2
 130 124 125 108 125 96 c 0
 125 67 140 54 196 54 c 2
 219 54 l 1
 211 0 l 1
 -75 0 l 1
 -68 54 l 1
 -52 54 l 2
 -8 54 33 93 71 157 c 2
 419 736 l 1
 481 736 l 1
 612 114 l 2
 622 67 641 54 702 54 c 2
 716 54 l 1
 709 0 l 1
404 274 m 1
 358 515 l 1
 217 274 l 1
 404 274 l 1
707 932 m 1x18
 519 775 l 1
 397 775 l 1
 297 932 l 1
 367 932 l 1
 475 854 l 1
 627 932 l 1
 707 932 l 1x18
EndSplineSet
EndChar

StartChar: acaron
Encoding: 462 462 143
Width: 667
Flags: MW
HStem: -15 85<408.5 511.5> -14 70<220.5 222.5> 424 55<292 330.5 227 351.5> 542 21G<314 416 314 314> 698 20G<230 289 289 289 505 573 573 573>
VStem: 15 163<114 192 111 248> 351 138<46.5 89.5>
LayerCount: 2
Fore
SplineSet
646 157 m 1xa6
 586 56 507 -15 436 -15 c 0x80
 381 -15 351 20 351 73 c 1
 303 11 257 -14 188 -14 c 0x42
 87 -14 15 61 15 167 c 0
 15 329 153 479 301 479 c 0
 360 479 402 458 426 416 c 1
 440 464 l 1
 597 464 l 1
 499 132 l 2
 489 93 489 93 489 86 c 0
 489 78 496 70 503 70 c 0
 520 70 570 124 607 182 c 1
 646 157 l 1xa6
395 351 m 0
 395 394 370 424 333 424 c 0
 251 424 178 249 178 135 c 0
 178 87 202 56 239 56 c 0x64
 322 56 395 249 395 351 c 0
573 718 m 1x18
 416 542 l 1
 314 542 l 1
 230 718 l 1
 289 718 l 1
 379 630 l 1
 505 718 l 1
 573 718 l 1x18
EndSplineSet
EndChar

StartChar: Acircumflex
Encoding: 194 194 144
Width: 741
Flags: MW
TeX: 887 0
HStem: 0 54<-68 -52 -52 -30 196 211 -75 -52 342 358 358 378.5 702 709> 220 54<217 404 217 417 185 404> 716 20G<419 481 481 481> 775 21G<255 335 255 255 595 665 595 595> 912 20G<443 565 565 565>
LayerCount: 2
Fore
SplineSet
709 0 m 1
 335 0 l 1
 342 54 l 1
 358 54 l 2
 399 54 410 55 424 62 c 0
 434 66 441 76 441 85 c 0
 441 92 440 103 437 117 c 2
 417 220 l 1
 185 220 l 1
 139 139 l 2
 130 124 125 108 125 96 c 0
 125 67 140 54 196 54 c 2
 219 54 l 1
 211 0 l 1
 -75 0 l 1
 -68 54 l 1
 -52 54 l 2
 -8 54 33 93 71 157 c 2
 419 736 l 1
 481 736 l 1
 612 114 l 2
 622 67 641 54 702 54 c 2
 716 54 l 1
 709 0 l 1
404 274 m 1
 358 515 l 1
 217 274 l 1
 404 274 l 1
665 775 m 1x18
 595 775 l 1
 487 853 l 1
 335 775 l 1
 255 775 l 1
 443 932 l 1
 565 932 l 1
 665 775 l 1x18
EndSplineSet
Substitution2: "'c2sc' Capitals to Small Capitals lookup 15 subtable" acircumflex.sc
Substitution2: "'aalt' Access All Alternates lookup 0 subtable" acircumflex.sc
Position2: "'cpsp' Capital Spacing lookup 0 subtable" dx=7 dy=0 dh=14 dv=0
EndChar

StartChar: acircumflex
Encoding: 226 226 145
Width: 667
Flags: MW
TeX: 704 0
HStem: -15 85<408.5 511.5> -14 70<220.5 222.5> 424 55<292 330.5 227 351.5> 543 21G<194 261 194 194 477 536 477 477> 697 20G<351 452 452 452>
VStem: 15 163<114 192 111 248> 351 138<46.5 89.5>
LayerCount: 2
Fore
SplineSet
646 157 m 1xa6
 586 56 507 -15 436 -15 c 0x80
 381 -15 351 20 351 73 c 1
 303 11 257 -14 188 -14 c 0x42
 87 -14 15 61 15 167 c 0
 15 329 153 479 301 479 c 0
 360 479 402 458 426 416 c 1
 440 464 l 1
 597 464 l 1
 499 132 l 2
 489 93 489 93 489 86 c 0
 489 78 496 70 503 70 c 0
 520 70 570 124 607 182 c 1
 646 157 l 1xa6
395 351 m 0
 395 394 370 424 333 424 c 0
 251 424 178 249 178 135 c 0
 178 87 202 56 239 56 c 0x64
 322 56 395 249 395 351 c 0
536 543 m 1x1a
 477 543 l 1
 387 629 l 1
 261 543 l 1
 194 543 l 1
 351 717 l 1
 452 717 l 1
 536 543 l 1x1a
EndSplineSet
Substitution2: "'smcp' Lowercase to Small Capitals lookup 3 subtable" acircumflex.sc
Substitution2: "'aalt' Access All Alternates lookup 0 subtable" acircumflex.sc
EndChar

StartChar: Acircumflexacute
Encoding: 7844 7844 146
Width: 741
Flags: MW
HStem: 0 54<-68 -52 -52 -30 196 211 -75 -52 342 358 358 378.5 702 709> 220 54<217 404 217 417 185 404> 716 20G<419 481 481 481> 775 21G<255 335 255 255 595 665 595 595> 912 20G<443 565 565 565> 952 21G<384 449 384 384> 1098 20G<603 635>
LayerCount: 2
Fore
SplineSet
709 0 m 1
 335 0 l 1
 342 54 l 1
 358 54 l 2
 399 54 410 55 424 62 c 0
 434 66 441 76 441 85 c 0
 441 92 440 103 437 117 c 2
 417 220 l 1
 185 220 l 1
 139 139 l 2
 130 124 125 108 125 96 c 0
 125 67 140 54 196 54 c 2
 219 54 l 1
 211 0 l 1
 -75 0 l 1
 -68 54 l 1
 -52 54 l 2
 -8 54 33 93 71 157 c 2
 419 736 l 1
 481 736 l 1
 612 114 l 2
 622 67 641 54 702 54 c 2
 716 54 l 1
 709 0 l 1
404 274 m 1
 358 515 l 1
 217 274 l 1
 404 274 l 1
682 1071 m 0x1e
 682 1054 670 1041 648 1032 c 2
 449 952 l 1
 384 952 l 1
 533 1078 l 2
 573 1112 589 1118 617 1118 c 0
 653 1118 682 1097 682 1071 c 0x1e
665 775 m 1
 595 775 l 1
 487 853 l 1
 335 775 l 1
 255 775 l 1
 443 932 l 1
 565 932 l 1
 665 775 l 1
EndSplineSet
Substitution2: "'c2sc' Capitals to Small Capitals lookup 15 subtable" acircumflexacute.sc
Substitution2: "'aalt' Access All Alternates lookup 0 subtable" acircumflexacute.sc
Position2: "'cpsp' Capital Spacing lookup 0 subtable" dx=7 dy=0 dh=14 dv=0
EndChar

StartChar: acircumflexacute
Encoding: 7845 7845 147
Width: 667
Flags: MW
HStem: -15 85<408.5 511.5> -14 70<220.5 222.5> 424 55<292 330.5 227 351.5> 532 21G<157 237 157 157 497 567 497 497> 669 20G<345 467 467 467> 709 21G<286 351 286 286> 855 20G<505 537>
VStem: 15 163<114 192 111 248> 351 138<46.5 89.5>
LayerCount: 2
Fore
SplineSet
646 157 m 1xa180
 586 56 507 -15 436 -15 c 0x80
 381 -15 351 20 351 73 c 1
 303 11 257 -14 188 -14 c 0x4080
 87 -14 15 61 15 167 c 0
 15 329 153 479 301 479 c 0
 360 479 402 458 426 416 c 1
 440 464 l 1
 597 464 l 1
 499 132 l 2
 489 93 489 93 489 86 c 0
 489 78 496 70 503 70 c 0
 520 70 570 124 607 182 c 1
 646 157 l 1xa180
395 351 m 0
 395 394 370 424 333 424 c 0
 251 424 178 249 178 135 c 0
 178 87 202 56 239 56 c 0x61
 322 56 395 249 395 351 c 0
584 828 m 0x1e80
 584 811 572 798 550 789 c 2
 351 709 l 1
 286 709 l 1
 435 835 l 2
 475 869 491 875 519 875 c 0
 555 875 584 854 584 828 c 0x1e80
567 532 m 1
 497 532 l 1
 389 610 l 1
 237 532 l 1
 157 532 l 1
 345 689 l 1
 467 689 l 1
 567 532 l 1
EndSplineSet
Substitution2: "'smcp' Lowercase to Small Capitals lookup 3 subtable" acircumflexacute.sc
Substitution2: "'aalt' Access All Alternates lookup 0 subtable" acircumflexacute.sc
EndChar

StartChar: Acircumflexdotbelow
Encoding: 7852 7852 148
Width: 741
Flags: MW
HStem: -222 143<311 350> 0 54<-68 -52 -52 -30 196 211 -75 -52 342 358 358 378.5 702 709> 220 54<217 404 217 417 185 404> 716 20G<419 481 481 481> 775 21G<255 335 255 255 595 665 595 595> 912 20G<443 565 565 565>
LayerCount: 2
Fore
SplineSet
709 0 m 1
 335 0 l 1
 342 54 l 1
 358 54 l 2
 399 54 410 55 424 62 c 0
 434 66 441 76 441 85 c 0
 441 92 440 103 437 117 c 2
 417 220 l 1
 185 220 l 1
 139 139 l 2
 130 124 125 108 125 96 c 0
 125 67 140 54 196 54 c 2
 219 54 l 1
 211 0 l 1
 -75 0 l 1
 -68 54 l 1
 -52 54 l 2
 -8 54 33 93 71 157 c 2
 419 736 l 1
 481 736 l 1
 612 114 l 2
 622 67 641 54 702 54 c 2
 716 54 l 1
 709 0 l 1
404 274 m 1
 358 515 l 1
 217 274 l 1
 404 274 l 1
665 775 m 1
 595 775 l 1
 487 853 l 1
 335 775 l 1
 255 775 l 1
 443 932 l 1
 565 932 l 1
 665 775 l 1
402 -150 m 0x80
 402 -190 370 -222 330 -222 c 0
 291 -222 259 -189 259 -150 c 0
 259 -111 291 -79 331 -79 c 0
 370 -79 402 -111 402 -150 c 0x80
EndSplineSet
Substitution2: "'c2sc' Capitals to Small Capitals lookup 15 subtable" acircumflexdotbelow.sc
Substitution2: "'aalt' Access All Alternates lookup 0 subtable" acircumflexdotbelow.sc
Position2: "'cpsp' Capital Spacing lookup 0 subtable" dx=7 dy=0 dh=14 dv=0
EndChar

StartChar: acircumflexdotbelow
Encoding: 7853 7853 149
Width: 667
Flags: MW
HStem: -222 143<160 199> -15 85<408.5 511.5> -14 70<220.5 222.5> 424 55<292 330.5 227 351.5> 543 21G<194 261 194 194 477 536 477 477> 697 20G<351 452 452 452>
VStem: 15 163<114 192 111 248> 351 138<46.5 89.5>
LayerCount: 2
Fore
SplineSet
646 157 m 1x53
 586 56 507 -15 436 -15 c 0x40
 381 -15 351 20 351 73 c 1
 303 11 257 -14 188 -14 c 0x21
 87 -14 15 61 15 167 c 0
 15 329 153 479 301 479 c 0
 360 479 402 458 426 416 c 1
 440 464 l 1
 597 464 l 1
 499 132 l 2
 489 93 489 93 489 86 c 0
 489 78 496 70 503 70 c 0
 520 70 570 124 607 182 c 1
 646 157 l 1x53
395 351 m 0
 395 394 370 424 333 424 c 0
 251 424 178 249 178 135 c 0
 178 87 202 56 239 56 c 0x3f
 322 56 395 249 395 351 c 0
536 543 m 1
 477 543 l 1
 387 629 l 1
 261 543 l 1
 194 543 l 1
 351 717 l 1
 452 717 l 1
 536 543 l 1
251 -150 m 0x80
 251 -190 219 -222 179 -222 c 0
 140 -222 108 -189 108 -150 c 0
 108 -111 140 -79 180 -79 c 0
 219 -79 251 -111 251 -150 c 0x80
EndSplineSet
Substitution2: "'smcp' Lowercase to Small Capitals lookup 3 subtable" acircumflexdotbelow.sc
Substitution2: "'aalt' Access All Alternates lookup 0 subtable" acircumflexdotbelow.sc
EndChar

StartChar: Acircumflexgrave
Encoding: 7846 7846 150
Width: 741
Flags: MW
HStem: 0 54<-68 -52 -52 -30 196 211 -75 -52 342 358 358 378.5 702 709> 220 54<217 404 217 417 185 404> 716 20G<419 481 481 481> 775 21G<255 335 255 255 595 665 595 595> 912 20G<443 565 565 565> 952 21G<566 631 566 566> 1098 20G<469 501>
LayerCount: 2
Fore
SplineSet
709 0 m 1
 335 0 l 1
 342 54 l 1
 358 54 l 2
 399 54 410 55 424 62 c 0
 434 66 441 76 441 85 c 0
 441 92 440 103 437 117 c 2
 417 220 l 1
 185 220 l 1
 139 139 l 2
 130 124 125 108 125 96 c 0
 125 67 140 54 196 54 c 2
 219 54 l 1
 211 0 l 1
 -75 0 l 1
 -68 54 l 1
 -52 54 l 2
 -8 54 33 93 71 157 c 2
 419 736 l 1
 481 736 l 1
 612 114 l 2
 622 67 641 54 702 54 c 2
 716 54 l 1
 709 0 l 1
404 274 m 1
 358 515 l 1
 217 274 l 1
 404 274 l 1
631 952 m 1x1e
 566 952 l 1
 410 1032 l 2
 393 1041 388 1054 397 1071 c 0
 411 1097 451 1118 487 1118 c 0
 515 1118 528 1112 550 1078 c 2
 631 952 l 1x1e
665 775 m 1
 595 775 l 1
 487 853 l 1
 335 775 l 1
 255 775 l 1
 443 932 l 1
 565 932 l 1
 665 775 l 1
EndSplineSet
Substitution2: "'c2sc' Capitals to Small Capitals lookup 15 subtable" acircumflexgrave.sc
Substitution2: "'aalt' Access All Alternates lookup 0 subtable" acircumflexgrave.sc
Position2: "'cpsp' Capital Spacing lookup 0 subtable" dx=7 dy=0 dh=14 dv=0
EndChar

StartChar: acircumflexgrave
Encoding: 7847 7847 151
Width: 667
Flags: MW
HStem: -15 85<408.5 511.5> -14 70<220.5 222.5> 424 55<292 330.5 227 351.5> 532 21G<157 237 157 157 497 567 497 497> 669 20G<345 467 467 467> 709 21G<468 533 468 468> 855 20G<371 403>
VStem: 15 163<114 192 111 248> 351 138<46.5 89.5>
LayerCount: 2
Fore
SplineSet
646 157 m 1xa180
 586 56 507 -15 436 -15 c 0x80
 381 -15 351 20 351 73 c 1
 303 11 257 -14 188 -14 c 0x4080
 87 -14 15 61 15 167 c 0
 15 329 153 479 301 479 c 0
 360 479 402 458 426 416 c 1
 440 464 l 1
 597 464 l 1
 499 132 l 2
 489 93 489 93 489 86 c 0
 489 78 496 70 503 70 c 0
 520 70 570 124 607 182 c 1
 646 157 l 1xa180
395 351 m 0
 395 394 370 424 333 424 c 0
 251 424 178 249 178 135 c 0
 178 87 202 56 239 56 c 0x61
 322 56 395 249 395 351 c 0
533 709 m 1x1e
 468 709 l 1
 312 789 l 2
 295 798 290 811 299 828 c 0
 313 854 353 875 389 875 c 0
 417 875 430 869 452 835 c 2
 533 709 l 1x1e
567 532 m 1
 497 532 l 1
 389 610 l 1
 237 532 l 1
 157 532 l 1
 345 689 l 1
 467 689 l 1
 567 532 l 1
EndSplineSet
Substitution2: "'smcp' Lowercase to Small Capitals lookup 3 subtable" acircumflexgrave.sc
Substitution2: "'aalt' Access All Alternates lookup 0 subtable" acircumflexgrave.sc
EndChar

StartChar: Acircumflexhookabove
Encoding: 7848 7848 152
Width: 741
Flags: MW
HStem: 0 54<-68 -52 -52 -30 196 211 -75 -52 342 358 358 378.5 702 709> 220 54<217 404 217 417 185 404> 716 20G<419 481 481 481> 775 21G<255 335 255 255 595 665 595 595> 912 20G<443 565 565 565> 1046 98<551.5 687>
LayerCount: 2
Fore
SplineSet
709 0 m 1
 335 0 l 1
 342 54 l 1
 358 54 l 2
 399 54 410 55 424 62 c 0
 434 66 441 76 441 85 c 0
 441 92 440 103 437 117 c 2
 417 220 l 1
 185 220 l 1
 139 139 l 2
 130 124 125 108 125 96 c 0
 125 67 140 54 196 54 c 2
 219 54 l 1
 211 0 l 1
 -75 0 l 1
 -68 54 l 1
 -52 54 l 2
 -8 54 33 93 71 157 c 2
 419 736 l 1
 481 736 l 1
 612 114 l 2
 622 67 641 54 702 54 c 2
 716 54 l 1
 709 0 l 1
404 274 m 1
 358 515 l 1
 217 274 l 1
 404 274 l 1
746 1091 m 0x1c
 746 1060 737 1043 658 1003 c 0
 625 985 617 981 609 954 c 1
 575 954 l 1
 577 985 581 989 628 1033 c 0
 648 1052 661 1075 661 1090 c 0
 661 1105 649 1114 627 1114 c 0
 614 1114 604 1110 604 1110 c 1
 617 1100 621 1094 621 1086 c 0
 621 1063 593 1046 564 1046 c 0
 539 1046 523 1057 523 1075 c 0
 523 1114 586 1144 656 1144 c 0
 718 1144 746 1115 746 1091 c 0x1c
665 775 m 1
 595 775 l 1
 487 853 l 1
 335 775 l 1
 255 775 l 1
 443 932 l 1
 565 932 l 1
 665 775 l 1
EndSplineSet
Substitution2: "'c2sc' Capitals to Small Capitals lookup 15 subtable" acircumflexhookabove.sc
Substitution2: "'aalt' Access All Alternates lookup 0 subtable" acircumflexhookabove.sc
Position2: "'cpsp' Capital Spacing lookup 0 subtable" dx=7 dy=0 dh=14 dv=0
EndChar

StartChar: acircumflexhookabove
Encoding: 7849 7849 153
Width: 667
Flags: MW
HStem: -15 85<408.5 511.5> -14 70<220.5 222.5> 424 55<292 330.5 227 351.5> 532 21G<157 237 157 157 497 567 497 497> 669 20G<345 467 467 467> 803 98<453.5 589>
VStem: 15 163<114 192 111 248> 351 138<46.5 89.5>
LayerCount: 2
Fore
SplineSet
646 157 m 1xa3
 586 56 507 -15 436 -15 c 0x80
 381 -15 351 20 351 73 c 1
 303 11 257 -14 188 -14 c 0x41
 87 -14 15 61 15 167 c 0
 15 329 153 479 301 479 c 0
 360 479 402 458 426 416 c 1
 440 464 l 1
 597 464 l 1
 499 132 l 2
 489 93 489 93 489 86 c 0
 489 78 496 70 503 70 c 0
 520 70 570 124 607 182 c 1
 646 157 l 1xa3
395 351 m 0
 395 394 370 424 333 424 c 0
 251 424 178 249 178 135 c 0
 178 87 202 56 239 56 c 0x62
 322 56 395 249 395 351 c 0
648 848 m 0x1c
 648 817 639 800 560 760 c 0
 527 742 519 738 511 711 c 1
 477 711 l 1
 479 742 483 746 530 790 c 0
 550 809 563 832 563 847 c 0
 563 862 551 871 529 871 c 0
 516 871 506 867 506 867 c 1
 519 857 523 851 523 843 c 0
 523 820 495 803 466 803 c 0
 441 803 425 814 425 832 c 0
 425 871 488 901 558 901 c 0
 620 901 648 872 648 848 c 0x1c
567 532 m 1
 497 532 l 1
 389 610 l 1
 237 532 l 1
 157 532 l 1
 345 689 l 1
 467 689 l 1
 567 532 l 1
EndSplineSet
Substitution2: "'smcp' Lowercase to Small Capitals lookup 3 subtable" acircumflexhookabove.sc
Substitution2: "'aalt' Access All Alternates lookup 0 subtable" acircumflexhookabove.sc
EndChar

StartChar: Acircumflextilde
Encoding: 7850 7850 154
Width: 741
Flags: MW
HStem: 0 54<-68 -52 -52 -30 196 211 -75 -52 342 358 358 378.5 702 709> 220 54<217 404 217 417 185 404> 716 20G<419 481 481 481> 775 21G<255 335 255 255 595 665 595 595> 912 20G<443 565 565 565>
LayerCount: 2
Fore
SplineSet
709 0 m 1
 335 0 l 1
 342 54 l 1
 358 54 l 2
 399 54 410 55 424 62 c 0
 434 66 441 76 441 85 c 0
 441 92 440 103 437 117 c 2
 417 220 l 1
 185 220 l 1
 139 139 l 2
 130 124 125 108 125 96 c 0
 125 67 140 54 196 54 c 2
 219 54 l 1
 211 0 l 1
 -75 0 l 1
 -68 54 l 1
 -52 54 l 2
 -8 54 33 93 71 157 c 2
 419 736 l 1
 481 736 l 1
 612 114 l 2
 622 67 641 54 702 54 c 2
 716 54 l 1
 709 0 l 1
404 274 m 1
 358 515 l 1
 217 274 l 1
 404 274 l 1
712 1088 m 1x18
 709 1021 651 962 588 962 c 0
 567 962 542 968 503 983 c 0
 458 1001 446 1004 431 1004 c 0
 409 1004 394 989 389 962 c 1
 342 962 l 1
 347 1035 400 1088 466 1088 c 0
 486 1088 512 1082 545 1069 c 0
 593 1050 600 1048 615 1048 c 0
 640 1048 657 1062 665 1088 c 1
 712 1088 l 1x18
665 775 m 1
 595 775 l 1
 487 853 l 1
 335 775 l 1
 255 775 l 1
 443 932 l 1
 565 932 l 1
 665 775 l 1
EndSplineSet
Substitution2: "'c2sc' Capitals to Small Capitals lookup 15 subtable" acircumflextilde.sc
Substitution2: "'aalt' Access All Alternates lookup 0 subtable" acircumflextilde.sc
Position2: "'cpsp' Capital Spacing lookup 0 subtable" dx=7 dy=0 dh=14 dv=0
EndChar

StartChar: acircumflextilde
Encoding: 7851 7851 155
Width: 667
Flags: MW
HStem: -15 85<408.5 511.5> -14 70<220.5 222.5> 424 55<292 330.5 227 351.5> 532 21G<157 237 157 157 497 567 497 497> 669 20G<345 467 467 467>
VStem: 15 163<114 192 111 248> 351 138<46.5 89.5>
LayerCount: 2
Fore
SplineSet
646 157 m 1xa6
 586 56 507 -15 436 -15 c 0x80
 381 -15 351 20 351 73 c 1
 303 11 257 -14 188 -14 c 0x42
 87 -14 15 61 15 167 c 0
 15 329 153 479 301 479 c 0
 360 479 402 458 426 416 c 1
 440 464 l 1
 597 464 l 1
 499 132 l 2
 489 93 489 93 489 86 c 0
 489 78 496 70 503 70 c 0
 520 70 570 124 607 182 c 1
 646 157 l 1xa6
395 351 m 0
 395 394 370 424 333 424 c 0
 251 424 178 249 178 135 c 0
 178 87 202 56 239 56 c 0x64
 322 56 395 249 395 351 c 0
614 845 m 1x18
 611 778 553 719 490 719 c 0
 469 719 444 725 405 740 c 0
 360 758 348 761 333 761 c 0
 311 761 296 746 291 719 c 1
 244 719 l 1
 249 792 302 845 368 845 c 0
 388 845 414 839 447 826 c 0
 495 807 502 805 517 805 c 0
 542 805 559 819 567 845 c 1
 614 845 l 1x18
567 532 m 1
 497 532 l 1
 389 610 l 1
 237 532 l 1
 157 532 l 1
 345 689 l 1
 467 689 l 1
 567 532 l 1
EndSplineSet
Substitution2: "'smcp' Lowercase to Small Capitals lookup 3 subtable" acircumflextilde.sc
Substitution2: "'aalt' Access All Alternates lookup 0 subtable" acircumflextilde.sc
EndChar

StartChar: acute
Encoding: 180 180 156
Width: 333
Flags: MW
TeX: 678 0
ItalicCorrection: 127
HStem: 538 21G<89 143 89 89> 702 20G<271 298>
LayerCount: 2
Fore
SplineSet
337 670 m 0
 337 651 327 636 309 626 c 2
 143 538 l 1
 89 538 l 1
 213 677 l 2
 247 714 259 722 283 722 c 0
 313 722 337 699 337 670 c 0
EndSplineSet
EndChar

StartChar: uni0301
Encoding: 769 769 157
Width: 0
Flags: MW
HStem: 538 21G<-286 -232 -286 -286> 702 20G<-104 -77>
LayerCount: 2
Fore
SplineSet
-38 670 m 0
 -38 651 -48 636 -66 626 c 2
 -232 538 l 1
 -286 538 l 1
 -162 677 l 2
 -128 714 -116 722 -92 722 c 0
 -62 722 -38 699 -38 670 c 0
EndSplineSet
EndChar

StartChar: Adblgrave
Encoding: 512 512 158
Width: 741
Flags: MW
HStem: 0 54<-68 -52 -52 -30 196 211 -75 -52 342 358 358 378.5 702 709> 220 54<217 404 217 417 185 404> 716 20G<419 481 481 481> 790 21G<358 412 358 358 549 603 549 549> 937 20G<292 319 483 510>
LayerCount: 2
Fore
SplineSet
709 0 m 1
 335 0 l 1
 342 54 l 1
 358 54 l 2
 399 54 410 55 424 62 c 0
 434 66 441 76 441 85 c 0
 441 92 440 103 437 117 c 2
 417 220 l 1
 185 220 l 1
 139 139 l 2
 130 124 125 108 125 96 c 0
 125 67 140 54 196 54 c 2
 219 54 l 1
 211 0 l 1
 -75 0 l 1
 -68 54 l 1
 -52 54 l 2
 -8 54 33 93 71 157 c 2
 419 736 l 1
 481 736 l 1
 612 114 l 2
 622 67 641 54 702 54 c 2
 716 54 l 1
 709 0 l 1
404 274 m 1
 358 515 l 1
 217 274 l 1
 404 274 l 1
603 790 m 1x18
 549 790 l 1
 421 861 l 2
 408 868 407 887 416 905 c 0
 432 934 468 957 498 957 c 0
 522 957 527 953 545 912 c 2
 603 790 l 1x18
412 790 m 1
 358 790 l 1
 230 861 l 2
 217 868 216 887 225 905 c 0
 241 934 277 957 307 957 c 0
 331 957 336 953 354 912 c 2
 412 790 l 1
EndSplineSet
Substitution2: "'c2sc' Capitals to Small Capitals lookup 15 subtable" adblgrave.sc
Substitution2: "'aalt' Access All Alternates lookup 0 subtable" adblgrave.sc
Position2: "'cpsp' Capital Spacing lookup 0 subtable" dx=7 dy=0 dh=14 dv=0
EndChar

StartChar: adblgrave
Encoding: 513 513 159
Width: 667
Flags: MW
HStem: -15 85<408.5 511.5> -14 70<220.5 222.5> 424 55<292 330.5 227 351.5> 547 21G<260 314 260 260 451 505 451 451> 694 20G<194 221 385 412>
VStem: 15 163<114 192 111 248> 351 138<46.5 89.5>
LayerCount: 2
Fore
SplineSet
646 157 m 1xa6
 586 56 507 -15 436 -15 c 0x80
 381 -15 351 20 351 73 c 1
 303 11 257 -14 188 -14 c 0x42
 87 -14 15 61 15 167 c 0
 15 329 153 479 301 479 c 0
 360 479 402 458 426 416 c 1
 440 464 l 1
 597 464 l 1
 499 132 l 2
 489 93 489 93 489 86 c 0
 489 78 496 70 503 70 c 0
 520 70 570 124 607 182 c 1
 646 157 l 1xa6
395 351 m 0
 395 394 370 424 333 424 c 0
 251 424 178 249 178 135 c 0
 178 87 202 56 239 56 c 0x64
 322 56 395 249 395 351 c 0
505 547 m 1x18
 451 547 l 1
 323 618 l 2
 310 625 309 644 318 662 c 0
 334 691 370 714 400 714 c 0
 424 714 429 710 447 669 c 2
 505 547 l 1x18
314 547 m 1
 260 547 l 1
 132 618 l 2
 119 625 118 644 127 662 c 0
 143 691 179 714 209 714 c 0
 233 714 238 710 256 669 c 2
 314 547 l 1
EndSplineSet
Substitution2: "'smcp' Lowercase to Small Capitals lookup 3 subtable" adblgrave.sc
Substitution2: "'aalt' Access All Alternates lookup 0 subtable" adblgrave.sc
EndChar

StartChar: Adieresis
Encoding: 196 196 160
Width: 741
Flags: MW
TeX: 887 0
HStem: 0 54<-68 -52 -52 -30 196 211 -75 -52 342 358 358 378.5 702 709> 220 54<217 404 217 417 185 404> 716 20G<419 481 481 481> 782 143<367 406 557 596>
LayerCount: 2
Fore
SplineSet
709 0 m 1
 335 0 l 1
 342 54 l 1
 358 54 l 2
 399 54 410 55 424 62 c 0
 434 66 441 76 441 85 c 0
 441 92 440 103 437 117 c 2
 417 220 l 1
 185 220 l 1
 139 139 l 2
 130 124 125 108 125 96 c 0
 125 67 140 54 196 54 c 2
 219 54 l 1
 211 0 l 1
 -75 0 l 1
 -68 54 l 1
 -52 54 l 2
 -8 54 33 93 71 157 c 2
 419 736 l 1
 481 736 l 1
 612 114 l 2
 622 67 641 54 702 54 c 2
 716 54 l 1
 709 0 l 1
404 274 m 1
 358 515 l 1
 217 274 l 1
 404 274 l 1
458 854 m 0x10
 458 814 426 782 386 782 c 0
 347 782 315 815 315 854 c 0
 315 893 347 925 387 925 c 0
 426 925 458 893 458 854 c 0x10
648 854 m 0
 648 814 616 782 576 782 c 0
 537 782 505 815 505 854 c 0
 505 893 537 925 577 925 c 0
 616 925 648 893 648 854 c 0
EndSplineSet
Substitution2: "'c2sc' Capitals to Small Capitals lookup 15 subtable" adieresis.sc
Substitution2: "'aalt' Access All Alternates lookup 0 subtable" adieresis.sc
Position2: "'cpsp' Capital Spacing lookup 0 subtable" dx=7 dy=0 dh=14 dv=0
EndChar

StartChar: adieresis
Encoding: 228 228 161
Width: 667
Flags: MW
TeX: 678 0
HStem: -15 85<408.5 511.5> -14 70<220.5 222.5> 424 55<292 330.5 227 351.5> 559 143<274 313 464 503>
VStem: 15 163<114 192 111 248> 351 138<46.5 89.5>
LayerCount: 2
Fore
SplineSet
646 157 m 1xac
 586 56 507 -15 436 -15 c 0x80
 381 -15 351 20 351 73 c 1
 303 11 257 -14 188 -14 c 0x44
 87 -14 15 61 15 167 c 0
 15 329 153 479 301 479 c 0
 360 479 402 458 426 416 c 1
 440 464 l 1
 597 464 l 1
 499 132 l 2
 489 93 489 93 489 86 c 0
 489 78 496 70 503 70 c 0
 520 70 570 124 607 182 c 1
 646 157 l 1xac
395 351 m 0
 395 394 370 424 333 424 c 0
 251 424 178 249 178 135 c 0
 178 87 202 56 239 56 c 0x68
 322 56 395 249 395 351 c 0
365 631 m 0x10
 365 591 333 559 293 559 c 0
 254 559 222 592 222 631 c 0
 222 670 254 702 294 702 c 0
 333 702 365 670 365 631 c 0x10
555 631 m 0
 555 591 523 559 483 559 c 0
 444 559 412 592 412 631 c 0
 412 670 444 702 484 702 c 0
 523 702 555 670 555 631 c 0
EndSplineSet
Substitution2: "'smcp' Lowercase to Small Capitals lookup 3 subtable" adieresis.sc
Substitution2: "'aalt' Access All Alternates lookup 0 subtable" adieresis.sc
EndChar

StartChar: Adotbelow
Encoding: 7840 7840 162
Width: 741
Flags: MW
HStem: -222 143<311 350> 0 54<-68 -52 -52 -30 196 211 -75 -52 342 358 358 378.5 702 709> 220 54<217 404 217 417 185 404> 716 20G<419 481 481 481>
LayerCount: 2
Fore
SplineSet
709 0 m 1
 335 0 l 1
 342 54 l 1
 358 54 l 2
 399 54 410 55 424 62 c 0
 434 66 441 76 441 85 c 0
 441 92 440 103 437 117 c 2
 417 220 l 1
 185 220 l 1
 139 139 l 2
 130 124 125 108 125 96 c 0
 125 67 140 54 196 54 c 2
 219 54 l 1
 211 0 l 1
 -75 0 l 1
 -68 54 l 1
 -52 54 l 2
 -8 54 33 93 71 157 c 2
 419 736 l 1
 481 736 l 1
 612 114 l 2
 622 67 641 54 702 54 c 2
 716 54 l 1
 709 0 l 1
404 274 m 1
 358 515 l 1
 217 274 l 1
 404 274 l 1
402 -150 m 0x80
 402 -190 370 -222 330 -222 c 0
 291 -222 259 -189 259 -150 c 0
 259 -111 291 -79 331 -79 c 0
 370 -79 402 -111 402 -150 c 0x80
EndSplineSet
Substitution2: "'c2sc' Capitals to Small Capitals lookup 15 subtable" adotbelow.sc
Substitution2: "'aalt' Access All Alternates lookup 0 subtable" adotbelow.sc
Position2: "'cpsp' Capital Spacing lookup 0 subtable" dx=7 dy=0 dh=14 dv=0
EndChar

StartChar: adotbelow
Encoding: 7841 7841 163
Width: 667
Flags: MW
HStem: -222 143<160 199> -15 85<408.5 511.5> -14 70<220.5 222.5> 424 55<292 330.5 227 351.5>
VStem: 15 163<114 192 111 248> 351 138<46.5 89.5>
LayerCount: 2
Fore
SplineSet
646 157 m 1x5c
 586 56 507 -15 436 -15 c 0x40
 381 -15 351 20 351 73 c 1
 303 11 257 -14 188 -14 c 0x24
 87 -14 15 61 15 167 c 0
 15 329 153 479 301 479 c 0
 360 479 402 458 426 416 c 1
 440 464 l 1
 597 464 l 1
 499 132 l 2
 489 93 489 93 489 86 c 0
 489 78 496 70 503 70 c 0
 520 70 570 124 607 182 c 1
 646 157 l 1x5c
395 351 m 0
 395 394 370 424 333 424 c 0
 251 424 178 249 178 135 c 0
 178 87 202 56 239 56 c 0x38
 322 56 395 249 395 351 c 0
251 -150 m 0x80
 251 -190 219 -222 179 -222 c 0
 140 -222 108 -189 108 -150 c 0
 108 -111 140 -79 180 -79 c 0
 219 -79 251 -111 251 -150 c 0x80
EndSplineSet
Substitution2: "'smcp' Lowercase to Small Capitals lookup 3 subtable" adotbelow.sc
Substitution2: "'aalt' Access All Alternates lookup 0 subtable" adotbelow.sc
EndChar

StartChar: AE
Encoding: 198 198 164
Width: 889
Flags: MW
TeX: 678 0
ItalicCorrection: 10
HStem: 0 54<-74 -74 -74 138 -81 -74 198 222 222 243 514 526 526 579> 271 54<205 339 168 353> 347 54<550 567 535 589> 457 20G<814 863 814 814> 668 54<215 239 208 903 648 665 665 676>
LayerCount: 2
Fore
SplineSet
784 0 m 1
 190 0 l 1
 198 54 l 1
 222 54 l 2
 264 54 268 58 278 68 c 0
 285 76 287 76 305 144 c 2
 339 271 l 1
 168 271 l 1
 77 126 l 2
 69 113 65 102 65 92 c 0
 65 66 89 55 145 54 c 1
 138 0 l 1
 -81 0 l 1
 -74 54 l 1
 -46 60 -37 70 -3 122 c 2
 291 572 l 2
 305 593 311 609 311 624 c 0
 311 651 283 668 239 668 c 2
 208 668 l 1
 215 722 l 1
 903 722 l 1
 863 477 l 1
 814 477 l 1
 814 549 809 578 796 604 c 0
 775 646 733 668 676 668 c 2
 665 668 l 2
 631 668 618 658 608 620 c 2
 550 401 l 1
 589 401 l 2
 652 401 681 440 712 523 c 1
 759 516 l 1
 669 181 l 1
 622 188 l 1
 627 217 628 232 628 250 c 0
 628 316 607 347 567 347 c 2
 535 347 l 1
 472 111 l 2
 469 99 467 88 467 79 c 0
 467 63 483 54 514 54 c 2
 526 54 l 2
 632 54 743 137 801 259 c 1
 850 248 l 1
 784 0 l 1
442 657 m 2
 443 659 443 661 443 661 c 2
 443 664 438 667 434 667 c 0
 429 667 425 664 421 658 c 2
 205 325 l 1
 353 325 l 1
 442 657 l 2
EndSplineSet
Substitution2: "'c2sc' Capitals to Small Capitals lookup 15 subtable" ae.sc
Substitution2: "'aalt' Access All Alternates lookup 0 subtable" ae.sc
Position2: "'cpsp' Capital Spacing lookup 0 subtable" dx=7 dy=0 dh=14 dv=0
EndChar

StartChar: ae
Encoding: 230 230 165
Width: 882
Flags: W
TeX: 457 0
HStem: -14 70<137.5 278.375> -14 59<545.926 678.895> 424 55<285.92 378.725> 432 47<621.021 712.147>
VStem: 15 163<74.008 257.267> 719 122<320.649 419.66>
LayerCount: 2
Fore
SplineSet
793 91 m 1x5c
 730 20 656 -14 565 -14 c 0x5c
 460.511057981 -14 394.618164062 25.7294921875 371.2734375 102.227539062 c 1
 359.381835938 84.19140625 351 73 351 73 c 1
 303 11 257 -14 188 -14 c 0
 87 -14 15 61 15 167 c 0
 15 329 153 479 301 479 c 0xac
 360 479 402 458 426 416 c 1
 440 464 l 1
 583.495915798 464 l 1
 613.328034386 473.708875568 644.796577996 479 677 479 c 0
 771 479 841 427 841 358 c 0
 841 288 785 238 671 205 c 0
 624 191 581 184 522 181 c 1
 520 155 520 149 520 137 c 0
 520 80 553 45 606 45 c 0
 658 45 698 66 758 126 c 1
 793 91 l 1x5c
719 385 m 0
 719 414 702 432 675 432 c 0
 613 432 554 350 531 228 c 1
 564 233 581 237 601 244 c 0
 669 270 719 330 719 385 c 0
395 351 m 0
 395 394 370 424 333 424 c 0
 251 424 178 249 178 135 c 0
 178 87 202 56 239 56 c 0xac
 322 56 395 249 395 351 c 0
EndSplineSet
Substitution2: "'smcp' Lowercase to Small Capitals lookup 3 subtable" ae.sc
Substitution2: "'aalt' Access All Alternates lookup 0 subtable" ae.sc
EndChar

StartChar: AEacute
Encoding: 508 508 166
Width: 889
Flags: MW
HStem: 0 54<-74 -74 -74 138 -81 -74 198 222 222 243 514 526 526 579> 271 54<205 339 168 353> 347 54<550 567 535 589> 457 20G<814 863 814 814> 668 54<215 239 208 903 648 665 665 676> 770 21G<437 502 437 437> 916 20G<656 688>
LayerCount: 2
Fore
SplineSet
784 0 m 1
 190 0 l 1
 198 54 l 1
 222 54 l 2
 264 54 268 58 278 68 c 0
 285 76 287 76 305 144 c 2
 339 271 l 1
 168 271 l 1
 77 126 l 2
 69 113 65 102 65 92 c 0
 65 66 89 55 145 54 c 1
 138 0 l 1
 -81 0 l 1
 -74 54 l 1
 -46 60 -37 70 -3 122 c 2
 291 572 l 2
 305 593 311 609 311 624 c 0
 311 651 283 668 239 668 c 2
 208 668 l 1
 215 722 l 1
 903 722 l 1
 863 477 l 1
 814 477 l 1
 814 549 809 578 796 604 c 0
 775 646 733 668 676 668 c 2
 665 668 l 2
 631 668 618 658 608 620 c 2
 550 401 l 1
 589 401 l 2
 652 401 681 440 712 523 c 1
 759 516 l 1
 669 181 l 1
 622 188 l 1
 627 217 628 232 628 250 c 0
 628 316 607 347 567 347 c 2
 535 347 l 1
 472 111 l 2
 469 99 467 88 467 79 c 0
 467 63 483 54 514 54 c 2
 526 54 l 2
 632 54 743 137 801 259 c 1
 850 248 l 1
 784 0 l 1
442 657 m 2
 443 659 443 661 443 661 c 2
 443 664 438 667 434 667 c 0
 429 667 425 664 421 658 c 2
 205 325 l 1
 353 325 l 1
 442 657 l 2
735 889 m 0x06
 735 872 723 859 701 850 c 2
 502 770 l 1
 437 770 l 1
 586 896 l 2
 626 930 642 936 670 936 c 0
 706 936 735 915 735 889 c 0x06
EndSplineSet
Substitution2: "'c2sc' Capitals to Small Capitals lookup 15 subtable" aeacute.sc
Substitution2: "'aalt' Access All Alternates lookup 0 subtable" aeacute.sc
Position2: "'cpsp' Capital Spacing lookup 0 subtable" dx=7 dy=0 dh=14 dv=0
EndChar

StartChar: aeacute
Encoding: 509 509 167
Width: 815
Flags: MW
HStem: -15 59<512.5 542> -15 71<75 205.5> 290 189<124 284.5> 432 47<230 274 579.5 622> 538 21G<455 509 455 455> 702 20G<637 664>
VStem: -19 158<93.5 136.5> 68 155<344.5 362.5 336 399.5> 652 122<345 392 313.5 399.5>
LayerCount: 2
Fore
SplineSet
726 91 m 1x9180
 662 19 589 -15 495 -15 c 0
 401 -15 341 23 319 98 c 1
 276 23 209 -15 118 -15 c 0
 32 -15 -19 24 -19 90 c 0
 -19 183 65 232 324 264 c 1
 337 314 341 334 341 360 c 0
 341 404 303 432 245 432 c 0x5280
 215 432 194 425 194 415 c 0
 194 405 223 371 223 354 c 0
 223 318 190 290 146 290 c 0x21
 102 290 68 323 68 366 c 0
 68 433 139 479 241 479 c 0
 328 479 379 459 421 410 c 1
 471 452 545 479 614 479 c 0
 704 479 774 426 774 358 c 0
 774 269 665 192 456 181 c 1
 453 158 453 150 453 136 c 0
 453 79 486 44 539 44 c 0
 591 44 633 66 691 126 c 1
 726 91 l 1x9180
311 214 m 1
 200 204 139 167 139 109 c 0
 139 78 161 56 190 56 c 0
 221 56 253 76 277 113 c 0
 289 132 296 154 311 214 c 1
652 385 m 0
 652 414 635 432 609 432 c 0
 546 432 488 350 464 228 c 1
 565 242 652 305 652 385 c 0
703 670 m 0x0c
 703 651 693 636 675 626 c 2
 509 538 l 1
 455 538 l 1
 579 677 l 2
 613 714 625 722 649 722 c 0
 679 722 703 699 703 670 c 0x0c
EndSplineSet
Substitution2: "'smcp' Lowercase to Small Capitals lookup 3 subtable" aeacute.sc
Substitution2: "'aalt' Access All Alternates lookup 0 subtable" aeacute.sc
EndChar

StartChar: Agrave
Encoding: 192 192 168
Width: 741
Flags: MW
TeX: 887 0
HStem: 0 54<-68 -52 -52 -30 196 211 -75 -52 342 358 358 378.5 702 709> 220 54<217 404 217 417 185 404> 716 20G<419 481 481 481> 770 21G<517 582 517 517> 916 20G<420 452>
LayerCount: 2
Fore
SplineSet
709 0 m 1
 335 0 l 1
 342 54 l 1
 358 54 l 2
 399 54 410 55 424 62 c 0
 434 66 441 76 441 85 c 0
 441 92 440 103 437 117 c 2
 417 220 l 1
 185 220 l 1
 139 139 l 2
 130 124 125 108 125 96 c 0
 125 67 140 54 196 54 c 2
 219 54 l 1
 211 0 l 1
 -75 0 l 1
 -68 54 l 1
 -52 54 l 2
 -8 54 33 93 71 157 c 2
 419 736 l 1
 481 736 l 1
 612 114 l 2
 622 67 641 54 702 54 c 2
 716 54 l 1
 709 0 l 1
404 274 m 1
 358 515 l 1
 217 274 l 1
 404 274 l 1
582 770 m 1x18
 517 770 l 1
 361 850 l 2
 344 859 339 872 348 889 c 0
 362 915 402 936 438 936 c 0
 466 936 479 930 501 896 c 2
 582 770 l 1x18
EndSplineSet
Substitution2: "'c2sc' Capitals to Small Capitals lookup 15 subtable" agrave.sc
Substitution2: "'aalt' Access All Alternates lookup 0 subtable" agrave.sc
Position2: "'cpsp' Capital Spacing lookup 0 subtable" dx=7 dy=0 dh=14 dv=0
EndChar

StartChar: agrave
Encoding: 224 224 169
Width: 667
Flags: MW
TeX: 704 0
HStem: -15 85<408.5 511.5> -14 70<220.5 222.5> 424 55<292 330.5 227 351.5> 702 20G<350 377>
VStem: 15 163<114 192 111 248> 351 138<46.5 89.5>
LayerCount: 2
Fore
SplineSet
646 157 m 1xac
 586 56 507 -15 436 -15 c 0x80
 381 -15 351 20 351 73 c 1
 303 11 257 -14 188 -14 c 0x44
 87 -14 15 61 15 167 c 0
 15 329 153 479 301 479 c 0
 360 479 402 458 426 416 c 1
 440 464 l 1
 597 464 l 1
 499 132 l 2
 489 93 489 93 489 86 c 0
 489 78 496 70 503 70 c 0
 520 70 570 124 607 182 c 1
 646 157 l 1xac
395 351 m 0
 395 394 370 424 333 424 c 0
 251 424 178 249 178 135 c 0
 178 87 202 56 239 56 c 0x68
 322 56 395 249 395 351 c 0
461 538 m 1x10
 407 538 l 1
 288 626 l 2
 275 636 273 651 283 670 c 0
 299 699 335 722 365 722 c 0
 389 722 397 714 411 677 c 2
 461 538 l 1x10
EndSplineSet
Substitution2: "'smcp' Lowercase to Small Capitals lookup 3 subtable" agrave.sc
Substitution2: "'aalt' Access All Alternates lookup 0 subtable" agrave.sc
EndChar

StartChar: Ahookabove
Encoding: 7842 7842 170
Width: 741
Flags: MW
HStem: 0 54<-68 -52 -52 -30 196 211 -75 -52 342 358 358 378.5 702 709> 220 54<217 404 217 417 185 404> 416 21G<394 395 394 394> 716 20G<419 481 481 481> 870 109<412.5 548>
LayerCount: 2
Fore
SplineSet
709 0 m 1
 335 0 l 1
 342 54 l 1
 358 54 l 2
 399 54 410 55 424 62 c 0
 434 66 441 76 441 85 c 0
 441 92 440 103 437 117 c 2
 417 220 l 1
 185 220 l 1
 139 139 l 2
 130 124 125 108 125 96 c 0
 125 67 140 54 196 54 c 2
 219 54 l 1
 211 0 l 1
 -75 0 l 1
 -68 54 l 1
 -52 54 l 2
 -8 54 33 93 71 157 c 2
 419 736 l 1
 481 736 l 1
 612 114 l 2
 622 67 641 54 702 54 c 2
 716 54 l 1
 709 0 l 1
404 274 m 1
 358 515 l 1
 217 274 l 1
 404 274 l 1
607 920 m 0x28
 607 886 598 867 519 822 c 0
 485 802 478 798 470 768 c 1
 436 768 l 1
 437 802 442 807 489 856 c 0
 509 877 522 903 522 919 c 0
 522 936 510 946 488 946 c 0
 475 946 465 944 465 941 c 0
 478 930 482 924 482 915 c 0
 482 889 454 870 425 870 c 0
 400 870 384 883 384 903 c 0
 384 946 447 979 517 979 c 0
 579 979 607 947 607 920 c 0x28
397 417 m 1
 395 416 l 1
 394 416 l 1
 397 417 l 1
EndSplineSet
Substitution2: "'c2sc' Capitals to Small Capitals lookup 15 subtable" ahookabove.sc
Substitution2: "'aalt' Access All Alternates lookup 0 subtable" ahookabove.sc
Position2: "'cpsp' Capital Spacing lookup 0 subtable" dx=7 dy=0 dh=14 dv=0
EndChar

StartChar: ahookabove
Encoding: 7843 7843 171
Width: 667
Flags: MW
HStem: -15 85<408.5 511.5> -14 70<220.5 222.5> 173 21G<295 296 295 295> 424 55<292 330.5 227 351.5> 627 109<313.5 449>
VStem: 15 163<114 192 111 248> 351 138<46.5 89.5>
LayerCount: 2
Fore
SplineSet
646 157 m 1x96
 586 56 507 -15 436 -15 c 0x80
 381 -15 351 20 351 73 c 1
 303 11 257 -14 188 -14 c 0x42
 87 -14 15 61 15 167 c 0
 15 329 153 479 301 479 c 0
 360 479 402 458 426 416 c 1
 440 464 l 1
 597 464 l 1
 499 132 l 2
 489 93 489 93 489 86 c 0
 489 78 496 70 503 70 c 0
 520 70 570 124 607 182 c 1
 646 157 l 1x96
395 351 m 0
 395 394 370 424 333 424 c 0
 251 424 178 249 178 135 c 0
 178 87 202 56 239 56 c 0x54
 322 56 395 249 395 351 c 0
508 677 m 0x28
 508 643 499 624 420 579 c 0
 386 559 379 555 371 525 c 1
 337 525 l 1
 338 559 343 564 390 613 c 0
 410 634 423 660 423 676 c 0
 423 693 411 703 389 703 c 0
 376 703 366 701 366 698 c 0
 379 687 383 681 383 672 c 0
 383 646 355 627 326 627 c 0
 301 627 285 640 285 660 c 0
 285 703 348 736 418 736 c 0
 480 736 508 704 508 677 c 0x28
298 174 m 1
 296 173 l 1
 295 173 l 1
 298 174 l 1
EndSplineSet
Substitution2: "'smcp' Lowercase to Small Capitals lookup 3 subtable" ahookabove.sc
Substitution2: "'aalt' Access All Alternates lookup 0 subtable" ahookabove.sc
EndChar

StartChar: Alpha
Encoding: 913 913 172
Width: 741
Flags: MW
HStem: 0 54<-68 -52 -52 -30 196 211 -75 -52 342 358 358 378.5 702 709> 220 54<217 404 217 417 185 404> 716 20G<419 481 481 481>
LayerCount: 2
Fore
SplineSet
709 0 m 1
 335 0 l 1
 342 54 l 1
 358 54 l 2
 399 54 410 55 424 62 c 0
 434 66 441 76 441 85 c 0
 441 92 440 103 437 117 c 2
 417 220 l 1
 185 220 l 1
 139 139 l 2
 130 124 125 108 125 96 c 0
 125 67 140 54 196 54 c 2
 219 54 l 1
 211 0 l 1
 -75 0 l 1
 -68 54 l 1
 -52 54 l 2
 -8 54 33 93 71 157 c 2
 419 736 l 1
 481 736 l 1
 612 114 l 2
 622 67 641 54 702 54 c 2
 716 54 l 1
 709 0 l 1
404 274 m 1
 358 515 l 1
 217 274 l 1
 404 274 l 1
EndSplineSet
EndChar

StartChar: alpha
Encoding: 945 945 173
Width: 923
Flags: MW
HStem: -15 52<329 418 329 419 764.5 794.5> 442 52<447.5 544.5>
VStem: 597 156<225 234>
LayerCount: 2
Fore
SplineSet
908 110 m 1
 891 45 835 -15 775 -15 c 0
 687 -15 636 42 612 120 c 1
 542 45 463 -15 375 -15 c 0
 203 -15 65 79 107 236 c 0
 149 392 330 494 497 494 c 0
 609 494 693 436 731 347 c 1
 789 420 849 494 866 507 c 1
 928 429 l 1
 869 382 803 330 750 278 c 1
 752 264 753 249 753 234 c 0
 753 156 754 37 775 37 c 0
 814 37 847 80 858 124 c 1
 908 110 l 1
600 183 m 1
 598 199 597 216 597 234 c 0
 596 332 592 442 497 442 c 0
 398 442 307 340 278 232 c 0
 252 132 283 37 375 37 c 0
 461 37 534 105 600 183 c 1
EndSplineSet
EndChar

StartChar: Amacron
Encoding: 256 256 174
Width: 741
Flags: MW
HStem: 0 54<-68 -52 -52 -30 196 211 -75 -52 342 358 358 378.5 702 709> 220 54<217 404 217 417 185 404> 716 20G<419 481 481 481> 815 76<324 637 303 658>
LayerCount: 2
Fore
SplineSet
709 0 m 1
 335 0 l 1
 342 54 l 1
 358 54 l 2
 399 54 410 55 424 62 c 0
 434 66 441 76 441 85 c 0
 441 92 440 103 437 117 c 2
 417 220 l 1
 185 220 l 1
 139 139 l 2
 130 124 125 108 125 96 c 0
 125 67 140 54 196 54 c 2
 219 54 l 1
 211 0 l 1
 -75 0 l 1
 -68 54 l 1
 -52 54 l 2
 -8 54 33 93 71 157 c 2
 419 736 l 1
 481 736 l 1
 612 114 l 2
 622 67 641 54 702 54 c 2
 716 54 l 1
 709 0 l 1
404 274 m 1
 358 515 l 1
 217 274 l 1
 404 274 l 1
658 891 m 1x10
 637 815 l 1
 303 815 l 1
 324 891 l 1
 658 891 l 1x10
EndSplineSet
Substitution2: "'c2sc' Capitals to Small Capitals lookup 15 subtable" amacron.sc
Substitution2: "'aalt' Access All Alternates lookup 0 subtable" amacron.sc
Position2: "'cpsp' Capital Spacing lookup 0 subtable" dx=7 dy=0 dh=14 dv=0
EndChar

StartChar: amacron
Encoding: 257 257 175
Width: 667
Flags: MW
HStem: -15 85<408.5 511.5> -14 70<220.5 222.5> 424 55<292 330.5 227 351.5> 592 76<232 545 211 566>
VStem: 15 163<114 192 111 248> 351 138<46.5 89.5>
LayerCount: 2
Fore
SplineSet
646 157 m 1xac
 586 56 507 -15 436 -15 c 0x80
 381 -15 351 20 351 73 c 1
 303 11 257 -14 188 -14 c 0x44
 87 -14 15 61 15 167 c 0
 15 329 153 479 301 479 c 0
 360 479 402 458 426 416 c 1
 440 464 l 1
 597 464 l 1
 499 132 l 2
 489 93 489 93 489 86 c 0
 489 78 496 70 503 70 c 0
 520 70 570 124 607 182 c 1
 646 157 l 1xac
395 351 m 0
 395 394 370 424 333 424 c 0
 251 424 178 249 178 135 c 0
 178 87 202 56 239 56 c 0x68
 322 56 395 249 395 351 c 0
566 668 m 1x10
 545 592 l 1
 211 592 l 1
 232 668 l 1
 566 668 l 1x10
EndSplineSet
Substitution2: "'smcp' Lowercase to Small Capitals lookup 3 subtable" amacron.sc
Substitution2: "'aalt' Access All Alternates lookup 0 subtable" amacron.sc
EndChar

StartChar: anglearc
Encoding: 8738 8738 176
Width: 606
Flags: MW
HStem: -75 21G<312 312> 555 20G<312 312>
VStem: 384 100<236 264>
LayerCount: 2
Fore
SplineSet
529 95 m 1
 485 5 l 1
 421 36 l 1
 393 -7 356 -45 312 -75 c 1
 256 7 l 1
 285 27 310 52 329 80 c 1
 67 205 l 1
 67 295 l 1
 329 420 l 1
 310 448 285 473 256 493 c 1
 312 575 l 1
 356 545 393 507 421 464 c 1
 485 495 l 1
 529 405 l 1
 464 374 l 1
 477 334 484 293 484 250 c 0
 484 207 477 166 464 126 c 1
 529 95 l 1
384 250 m 0
 384 278 380 305 373 330 c 1
 205 250 l 1
 373 170 l 1
 380 195 384 222 384 250 c 0
EndSplineSet
EndChar

StartChar: angleleft
Encoding: 9001 9001 177
Width: 406
Flags: MW
HStem: -108 21G<245 357 245 245> 702 20G<245 357 357 357>
LayerCount: 2
Fore
SplineSet
357 -108 m 1
 245 -108 l 1
 39 307 l 1
 245 722 l 1
 357 722 l 1
 151 307 l 1
 357 -108 l 1
EndSplineSet
EndChar

StartChar: angleright
Encoding: 9002 9002 178
Width: 406
Flags: MW
HStem: -108 21G<39 151 39 39> 702 20G<39 151 151 151>
LayerCount: 2
Fore
SplineSet
357 307 m 1
 151 -108 l 1
 39 -108 l 1
 245 307 l 1
 39 722 l 1
 151 722 l 1
 357 307 l 1
EndSplineSet
EndChar

StartChar: Aogonek
Encoding: 260 260 179
Width: 741
Flags: MW
HStem: -224 84<559 562.5> 0 54<-68 -52 -52 -30 196 211 -75 -52 342 358 358 378.5 702 709> 220 54<217 404 217 417 185 404> 716 20G<419 481 481 481>
VStem: 436 94<-107.5 -91.5>
LayerCount: 2
Fore
SplineSet
668 -153 m 1
 638 -197 587 -224 538 -224 c 0
 484 -224 436 -185 436 -122 c 0
 436 -61 481 -24 515 0 c 1
 335 0 l 1
 342 54 l 1
 358 54 l 2
 399 54 410 55 424 62 c 0
 434 66 441 76 441 85 c 0
 441 92 440 103 437 117 c 2
 417 220 l 1
 185 220 l 1
 139 139 l 2
 130 124 125 108 125 96 c 0
 125 67 140 54 196 54 c 2
 219 54 l 1
 211 0 l 1
 -75 0 l 1
 -68 54 l 1
 -52 54 l 2
 -8 54 33 93 71 157 c 2
 419 736 l 1
 481 736 l 1
 612 114 l 2
 622 67 641 54 702 54 c 2
 716 54 l 1
 709 0 l 1
 651 0 l 2
 591 0 530 -44 530 -94 c 0
 530 -121 548 -140 570 -140 c 0
 597 -140 619 -134 640 -117 c 1
 668 -153 l 1
404 274 m 1
 358 515 l 1
 217 274 l 1
 404 274 l 1
EndSplineSet
Substitution2: "'c2sc' Capitals to Small Capitals lookup 15 subtable" aogonek.sc
Substitution2: "'aalt' Access All Alternates lookup 0 subtable" aogonek.sc
Position2: "'cpsp' Capital Spacing lookup 0 subtable" dx=7 dy=0 dh=14 dv=0
EndChar

StartChar: aogonek
Encoding: 261 261 180
Width: 667
Flags: MW
HStem: -224 84<454 457.5> -15 85 -14 70<220.5 222.5> 424 55<292 330.5 227 351.5>
VStem: 15 163<114 192 111 248> 331 94<-107.5 -95> 351 138<53.5 89.5>
LayerCount: 2
Fore
SplineSet
563 -153 m 1xc4
 533 -197 482 -224 433 -224 c 0
 379 -224 331 -185 331 -122 c 0xbc
 331 -68 366 -33 399 -8 c 1
 368 4 351 34 351 73 c 1
 303 11 257 -14 188 -14 c 0
 87 -14 15 61 15 167 c 0
 15 329 153 479 301 479 c 0
 360 479 402 458 426 416 c 1
 440 464 l 1
 597 464 l 1
 499 132 l 2
 489 93 489 93 489 86 c 0x3a
 489 78 496 70 503 70 c 0
 520 70 570 124 607 182 c 1
 646 157 l 1
 598 76 538 15 479 -7 c 0
 444 -20 425 -59 425 -94 c 0
 425 -121 443 -140 465 -140 c 0
 492 -140 514 -134 535 -117 c 1
 563 -153 l 1xc4
395 351 m 0
 395 394 370 424 333 424 c 0
 251 424 178 249 178 135 c 0
 178 87 202 56 239 56 c 0
 322 56 395 249 395 351 c 0
EndSplineSet
Substitution2: "'smcp' Lowercase to Small Capitals lookup 3 subtable" aogonek.sc
Substitution2: "'aalt' Access All Alternates lookup 0 subtable" aogonek.sc
EndChar

StartChar: approxequal
Encoding: 8776 8776 181
Width: 606
Flags: MW
HStem: 60 114<372.5 388.5 369.5 411.5> 121 114<163.5 179.5 140.5 182.5> 260 114<426.5 442.5 423.5 465.5> 321 114<217.5 233.5 194.5 236.5>
LayerCount: 2
Fore
SplineSet
582 373 m 1x20
 541 298 493 260 438 260 c 0xa0
 415 260 393 265 348 283 c 2
 295 302 l 2
 252 319 244 321 229 321 c 0
 206 321 190 309 162 269 c 1
 78 322 l 1
 118 397 167 435 222 435 c 0x10
 245 435 267 429 312 412 c 2
 365 393 l 2
 408 376 416 374 431 374 c 0
 454 374 470 386 498 426 c 1
 582 373 l 1x20
528 173 m 1
 487 98 439 60 384 60 c 0x80
 361 60 339 65 294 83 c 2
 241 102 l 2
 198 119 190 121 175 121 c 0
 152 121 136 109 108 69 c 1
 24 122 l 1
 64 197 113 235 168 235 c 0x40
 191 235 213 229 258 212 c 2
 311 193 l 2
 354 176 362 174 377 174 c 0
 400 174 416 186 444 226 c 1
 528 173 l 1
EndSplineSet
EndChar

StartChar: Aring
Encoding: 197 197 182
Width: 741
Flags: MW
TeX: 938 0
HStem: 0 54<-68 -52 -52 -30 196 211 -75 -52 342 358 358 378.5 702 709> 220 54<217 404 217 417 185 404> 716 20G<419 481 481 481>
LayerCount: 2
Fore
SplineSet
709 0 m 1
 335 0 l 1
 342 54 l 1
 358 54 l 2
 399 54 410 55 424 62 c 0
 434 66 441 76 441 85 c 0
 441 92 440 103 437 117 c 2
 417 220 l 1
 185 220 l 1
 139 139 l 2
 130 124 125 108 125 96 c 0
 125 67 140 54 196 54 c 2
 219 54 l 1
 211 0 l 1
 -75 0 l 1
 -68 54 l 1
 -52 54 l 2
 -8 54 33 93 71 157 c 2
 419 736 l 1
 481 736 l 1
 612 114 l 2
 622 67 641 54 702 54 c 2
 716 54 l 1
 709 0 l 1
404 274 m 1
 358 515 l 1
 217 274 l 1
 404 274 l 1
592 869 m 0
 592 809 544 761 483 761 c 0
 426 761 377 810 377 869 c 0
 377 927 426 976 485 976 c 0
 544 976 592 928 592 869 c 0
538 869 m 0
 538 898 514 922 485 922 c 0
 455 922 431 898 431 868 c 0
 431 840 455 815 484 815 c 0
 514 815 538 839 538 869 c 0
EndSplineSet
Substitution2: "'c2sc' Capitals to Small Capitals lookup 15 subtable" aring.sc
Substitution2: "'aalt' Access All Alternates lookup 0 subtable" aring.sc
Position2: "'cpsp' Capital Spacing lookup 0 subtable" dx=7 dy=0 dh=14 dv=0
EndChar

StartChar: aring
Encoding: 229 229 183
Width: 667
Flags: MW
TeX: 704 0
HStem: -15 85<408.5 511.5> -14 70<220.5 222.5> 424 55<292 330.5 227 351.5> 523 54<373.5 403 373.5 417.5> 684 54<374 403.5>
VStem: 15 163<114 192 111 248> 351 138<46.5 89.5>
LayerCount: 2
Fore
SplineSet
646 157 m 1xa6
 586 56 507 -15 436 -15 c 0x80
 381 -15 351 20 351 73 c 1
 303 11 257 -14 188 -14 c 0x42
 87 -14 15 61 15 167 c 0
 15 329 153 479 301 479 c 0
 360 479 402 458 426 416 c 1
 440 464 l 1
 597 464 l 1
 499 132 l 2
 489 93 489 93 489 86 c 0
 489 78 496 70 503 70 c 0
 520 70 570 124 607 182 c 1
 646 157 l 1xa6
395 351 m 0
 395 394 370 424 333 424 c 0
 251 424 178 249 178 135 c 0
 178 87 202 56 239 56 c 0x64
 322 56 395 249 395 351 c 0
496 631 m 0x18
 496 571 448 523 387 523 c 0
 330 523 281 572 281 631 c 0
 281 689 330 738 389 738 c 0
 448 738 496 690 496 631 c 0x18
442 631 m 0
 442 660 418 684 389 684 c 0
 359 684 335 660 335 630 c 0
 335 602 359 577 388 577 c 0
 418 577 442 601 442 631 c 0
EndSplineSet
Substitution2: "'smcp' Lowercase to Small Capitals lookup 3 subtable" aring.sc
Substitution2: "'aalt' Access All Alternates lookup 0 subtable" aring.sc
EndChar

StartChar: Aringacute
Encoding: 506 506 184
Width: 741
Flags: MW
HStem: 0 54<-68 -52 -52 -30 196 211 -75 -52 342 358 358 378.5 702 709> 220 54<217 404 217 417 185 404> 716 20G<419 481 481 481> 996 21G<395 460 395 395> 1142 20G<614 646>
LayerCount: 2
Fore
SplineSet
709 0 m 1
 335 0 l 1
 342 54 l 1
 358 54 l 2
 399 54 410 55 424 62 c 0
 434 66 441 76 441 85 c 0
 441 92 440 103 437 117 c 2
 417 220 l 1
 185 220 l 1
 139 139 l 2
 130 124 125 108 125 96 c 0
 125 67 140 54 196 54 c 2
 219 54 l 1
 211 0 l 1
 -75 0 l 1
 -68 54 l 1
 -52 54 l 2
 -8 54 33 93 71 157 c 2
 419 736 l 1
 481 736 l 1
 612 114 l 2
 622 67 641 54 702 54 c 2
 716 54 l 1
 709 0 l 1
404 274 m 1
 358 515 l 1
 217 274 l 1
 404 274 l 1
693 1115 m 0x18
 693 1098 681 1085 659 1076 c 2
 460 996 l 1
 395 996 l 1
 544 1122 l 2
 584 1156 600 1162 628 1162 c 0
 664 1162 693 1141 693 1115 c 0x18
592 869 m 0
 592 809 544 761 483 761 c 0
 426 761 377 810 377 869 c 0
 377 927 426 976 485 976 c 0
 544 976 592 928 592 869 c 0
538 869 m 0
 538 898 514 922 485 922 c 0
 455 922 431 898 431 868 c 0
 431 840 455 815 484 815 c 0
 514 815 538 839 538 869 c 0
EndSplineSet
Substitution2: "'c2sc' Capitals to Small Capitals lookup 15 subtable" aringacute.sc
Substitution2: "'aalt' Access All Alternates lookup 0 subtable" aringacute.sc
Position2: "'cpsp' Capital Spacing lookup 0 subtable" dx=7 dy=0 dh=14 dv=0
EndChar

StartChar: aringacute
Encoding: 507 507 185
Width: 667
Flags: MW
HStem: -15 85<408.5 511.5> -14 70<220.5 222.5> 424 55<292 330.5 227 351.5> 753 21G<297 362 297 297> 899 20G<516 548>
VStem: 15 163<114 192 111 248> 351 138<46.5 89.5>
LayerCount: 2
Fore
SplineSet
646 157 m 1xa6
 586 56 507 -15 436 -15 c 0x80
 381 -15 351 20 351 73 c 1
 303 11 257 -14 188 -14 c 0x42
 87 -14 15 61 15 167 c 0
 15 329 153 479 301 479 c 0
 360 479 402 458 426 416 c 1
 440 464 l 1
 597 464 l 1
 499 132 l 2
 489 93 489 93 489 86 c 0
 489 78 496 70 503 70 c 0
 520 70 570 124 607 182 c 1
 646 157 l 1xa6
395 351 m 0
 395 394 370 424 333 424 c 0
 251 424 178 249 178 135 c 0
 178 87 202 56 239 56 c 0x64
 322 56 395 249 395 351 c 0
595 872 m 0x18
 595 855 583 842 561 833 c 2
 362 753 l 1
 297 753 l 1
 446 879 l 2
 486 913 502 919 530 919 c 0
 566 919 595 898 595 872 c 0x18
494 626 m 0
 494 566 446 518 385 518 c 0
 328 518 279 567 279 626 c 0
 279 684 328 733 387 733 c 0
 446 733 494 685 494 626 c 0
440 626 m 0
 440 655 416 679 387 679 c 0
 357 679 333 655 333 625 c 0
 333 597 357 572 386 572 c 0
 416 572 440 596 440 626 c 0
EndSplineSet
Substitution2: "'smcp' Lowercase to Small Capitals lookup 3 subtable" aringacute.sc
Substitution2: "'aalt' Access All Alternates lookup 0 subtable" aringacute.sc
EndChar

StartChar: uni2193
Encoding: 8595 8595 186
Width: 683
Flags: MW
HStem: -167 21G<336 336> 642 20G<286 386 386 386>
VStem: 286 100<-10 662 -10 662>
LayerCount: 2
Fore
SplineSet
589 9 m 1
 336 -167 l 1
 83 9 l 1
 139 91 l 1
 286 -10 l 1
 286 662 l 1
 386 662 l 1
 386 -10 l 1
 533 91 l 1
 589 9 l 1
EndSplineSet
EndChar

StartChar: uni2190
Encoding: 8592 8592 187
Width: 1000
Flags: MW
HStem: -3 21G<254 254> 200 100<235 907 235 907> 483 20G<254 254>
LayerCount: 2
Fore
SplineSet
907 200 m 1
 235 200 l 1
 336 53 l 1
 254 -3 l 1
 78 250 l 1
 254 503 l 1
 336 447 l 1
 235 300 l 1
 907 300 l 1
 907 200 l 1
EndSplineSet
EndChar

StartChar: uni2192
Encoding: 8594 8594 188
Width: 1000
Flags: MW
HStem: -3 21G<736 736> 200 100<83 755 83 755> 483 20G<736 736>
LayerCount: 2
Fore
SplineSet
912 250 m 1
 736 -3 l 1
 654 53 l 1
 755 200 l 1
 83 200 l 1
 83 300 l 1
 755 300 l 1
 654 447 l 1
 736 503 l 1
 912 250 l 1
EndSplineSet
EndChar

StartChar: uni2191
Encoding: 8593 8593 189
Width: 683
Flags: MW
HStem: -162 21G<286 386 286 286> 647 20G<336 336>
VStem: 286 100<-162 510 -162 510>
LayerCount: 2
Fore
SplineSet
589 491 m 1
 533 409 l 1
 386 510 l 1
 386 -162 l 1
 286 -162 l 1
 286 510 l 1
 139 409 l 1
 83 491 l 1
 336 667 l 1
 589 491 l 1
EndSplineSet
EndChar

StartChar: asterisk.math
Encoding: 8727 8727 190
Width: 591
Flags: MW
HStem: -14 21G<291.5 324.5> 494 20G<400 433.5>
LayerCount: 2
Fore
SplineSet
626 305 m 0
 626 270 595 243 555 243 c 0
 542 243 542 243 499 251 c 0
 486 255 474 256 467 256 c 0
 451 256 435 254 414 248 c 2
 393 242 l 1
 408 227 l 2
 445 191 445 191 509 171 c 0
 548 158 571 132 571 100 c 0
 571 68 545 41 512 41 c 0
 492 41 473 52 458 70 c 0
 449 82 447 84 432 132 c 0
 422 162 414 176 386 204 c 2
 371 220 l 1
 365 198 l 2
 359 177 356 160 356 146 c 0
 356 135 356 134 367 83 c 0
 369 75 371 65 371 57 c 0
 371 18 342 -14 307 -14 c 0
 276 -14 252 12 252 46 c 0
 252 72 258 83 296 130 c 0
 317 154 323 167 333 207 c 2
 339 228 l 1
 319 222 l 2
 270 208 269 207 221 162 c 0
 200 146 180 136 159 136 c 0
 126 136 98 161 98 194 c 0
 98 227 131 255 171 255 c 0
 183 255 183 255 225 248 c 0
 237 245 247 244 254 244 c 0
 269 244 288 248 311 254 c 2
 331 258 l 1
 317 274 l 1
 279 309 277 310 216 329 c 0
 176 342 153 369 153 401 c 0
 153 432 177 458 207 458 c 0
 229 458 249 447 264 428 c 0
 273 414 275 412 291 368 c 0
 302 338 309 327 338 297 c 2
 354 281 l 1
 360 302 l 2
 366 323 368 341 368 354 c 0
 368 366 368 368 357 417 c 0
 355 426 354 436 354 444 c 0
 354 482 383 514 417 514 c 0
 450 514 476 486 476 453 c 0
 476 425 470 416 429 370 c 0
 408 346 402 333 390 293 c 2
 385 273 l 1
 405 279 l 2
 453 293 455 293 504 338 c 0
 524 356 543 364 565 364 c 0
 599 364 626 338 626 305 c 0
EndSplineSet
EndChar

StartChar: Atilde
Encoding: 195 195 191
Width: 741
Flags: MW
TeX: 887 0
HStem: 0 54<-68 -52 -52 -30 196 211 -75 -52 342 358 358 378.5 702 709> 220 54<217 404 217 417 185 404> 716 20G<419 481 481 481> 790 86<561.5 573.5> 832 84<387 392.5>
LayerCount: 2
Fore
SplineSet
709 0 m 1xe0
 335 0 l 1
 342 54 l 1
 358 54 l 2
 399 54 410 55 424 62 c 0
 434 66 441 76 441 85 c 0
 441 92 440 103 437 117 c 2
 417 220 l 1
 185 220 l 1
 139 139 l 2
 130 124 125 108 125 96 c 0
 125 67 140 54 196 54 c 2
 219 54 l 1
 211 0 l 1
 -75 0 l 1
 -68 54 l 1
 -52 54 l 2
 -8 54 33 93 71 157 c 2
 419 736 l 1
 481 736 l 1
 612 114 l 2
 622 67 641 54 702 54 c 2
 716 54 l 1
 709 0 l 1xe0
404 274 m 1
 358 515 l 1
 217 274 l 1
 404 274 l 1
666 916 m 1x08
 663 849 605 790 542 790 c 0x10
 521 790 496 796 457 811 c 0
 412 829 400 832 385 832 c 0x08
 363 832 348 817 343 790 c 1
 296 790 l 1x10
 301 863 354 916 420 916 c 0x08
 440 916 466 910 499 897 c 0
 547 878 554 876 569 876 c 0x10
 594 876 611 890 619 916 c 1
 666 916 l 1x08
EndSplineSet
Substitution2: "'c2sc' Capitals to Small Capitals lookup 15 subtable" atilde.sc
Substitution2: "'aalt' Access All Alternates lookup 0 subtable" atilde.sc
Position2: "'cpsp' Capital Spacing lookup 0 subtable" dx=7 dy=0 dh=14 dv=0
EndChar

StartChar: atilde
Encoding: 227 227 192
Width: 667
Flags: MW
TeX: 678 0
ItalicCorrection: 5
HStem: -15 85<408.5 511.5> -14 70<220.5 222.5> 424 55<292 330.5 227 351.5> 567 86<468.5 480.5> 609 84<294 299.5>
VStem: 15 163<114 192 111 248> 351 138<46.5 89.5>
LayerCount: 2
Fore
SplineSet
646 157 m 1xa6
 586 56 507 -15 436 -15 c 0x80
 381 -15 351 20 351 73 c 1
 303 11 257 -14 188 -14 c 0x42
 87 -14 15 61 15 167 c 0
 15 329 153 479 301 479 c 0
 360 479 402 458 426 416 c 1
 440 464 l 1
 597 464 l 1
 499 132 l 2
 489 93 489 93 489 86 c 0
 489 78 496 70 503 70 c 0
 520 70 570 124 607 182 c 1
 646 157 l 1xa6
395 351 m 0
 395 394 370 424 333 424 c 0
 251 424 178 249 178 135 c 0
 178 87 202 56 239 56 c 0x64
 322 56 395 249 395 351 c 0
573 693 m 1x08
 570 626 512 567 449 567 c 0x10
 428 567 403 573 364 588 c 0
 319 606 307 609 292 609 c 0x08
 270 609 255 594 250 567 c 1
 203 567 l 1x10
 208 640 261 693 327 693 c 0x08
 347 693 373 687 406 674 c 0
 454 655 461 653 476 653 c 0x10
 501 653 518 667 526 693 c 1
 573 693 l 1x08
EndSplineSet
Substitution2: "'smcp' Lowercase to Small Capitals lookup 3 subtable" atilde.sc
Substitution2: "'aalt' Access All Alternates lookup 0 subtable" atilde.sc
EndChar

StartChar: baht
Encoding: 3647 3647 193
Width: 759
Flags: MW
HStem: -83 21G<261 315 261 261> 0 54<-43 -29 -29 -8 280 284 -50 -29> 343 54<308 339 339 344 294 339> 668 54<104 115 96 456 407 425 425 440> 785 20G<499 553 553 553>
VStem: 492 191<184 242 122.5 259.5> 537 183<537 584>
LayerCount: 2
Fore
SplineSet
683 195 m 0xda
 683 50 542 0 368 0 c 2
 337 0 l 1
 315 -83 l 1
 261 -83 l 1
 284 0 l 1
 -50 0 l 1
 -43 54 l 1
 -29 54 l 2
 13 54 27 58 38 68 c 0
 46 76 46 76 64 144 c 2
 181 578 l 2
 190 611 194 632 194 641 c 0
 194 663 180 668 115 668 c 2
 96 668 l 1
 104 722 l 1
 456 722 l 1
 477 722 l 1
 499 805 l 1
 553 805 l 1
 530 718 l 1
 665 703 720 643 720 551 c 0
 720 451 637 385 489 368 c 1
 620 345 683 289 683 195 c 0xda
537 567 m 0
 537 601 528 627 510 644 c 1
 448 412 l 1
 455 415 461 419 468 423 c 0
 511 452 537 507 537 567 c 0
462 666 m 1
 455 667 448 668 440 668 c 2
 425 668 l 2
 389 668 378 657 365 608 c 2
 308 397 l 1
 339 397 l 2
 359 397 376 397 390 399 c 1
 462 666 l 1
492 233 m 0
 492 286 480 320 427 334 c 1
 353 57 l 1
 445 71 492 135 492 233 c 0
375 342 m 1
 366 343 355 343 344 343 c 2
 294 343 l 1
 235 122 l 2
 229 101 227 91 227 84 c 0
 227 63 244 54 280 54 c 2
 298 54 l 1
 375 342 l 1
EndSplineSet
EndChar

StartChar: Beta
Encoding: 914 914 194
Width: 759
Flags: MW
HStem: 0 54<-43 -29 -29 -8 280 313 313 368 -50 -29> 343 54<308 339 339 344 294 339> 668 54<104 115 96 456 407 425 425 440>
VStem: 492 191<177.5 242 122.5 270> 537 183<537 599.5>
LayerCount: 2
Fore
SplineSet
683 195 m 0xa8
 683 50 542 0 368 0 c 2
 -50 0 l 1
 -43 54 l 1
 -29 54 l 2
 13 54 27 58 38 68 c 0
 46 76 46 76 64 144 c 2
 181 578 l 2
 190 611 194 632 194 641 c 0
 194 663 180 668 115 668 c 2
 96 668 l 1
 104 722 l 1
 456 722 l 2
 645 722 720 658 720 551 c 0
 720 451 637 385 489 368 c 1
 620 345 683 289 683 195 c 0xa8
537 567 m 0
 537 632 502 668 440 668 c 2
 425 668 l 2
 389 668 378 657 365 608 c 2
 308 397 l 1
 339 397 l 2
 410 397 438 403 468 423 c 0
 511 452 537 507 537 567 c 0
492 233 m 0
 492 307 469 343 344 343 c 2
 294 343 l 1
 235 122 l 2
 229 101 227 91 227 84 c 0
 227 63 244 54 280 54 c 2
 313 54 l 2
 432 54 492 122 492 233 c 0
EndSplineSet
EndChar

StartChar: beta
Encoding: 946 946 195
Width: 638
Flags: MW
HStem: -224 21G<-57 121 -57 -57> -15 52<284 340.5 284 375> 365 52<383 412 383 424.5> 685 52<440.5 510.5>
LayerCount: 2
Fore
SplineSet
655 199 m 0
 619 62 451 -15 299 -15 c 0
 264 -15 232 -8 204 5 c 1
 197 -20 l 2
 179 -89 156 -158 121 -224 c 1
 -57 -224 l 1
 -14 -144 24 -63 47 20 c 2
 175 499 l 2
 211 632 351 737 486 737 c 0
 608 737 702 663 671 549 c 0
 654 483 594 426 527 396 c 1
 616 367 682 297 655 199 c 0
484 203 m 0
 507 290 466 365 383 365 c 1
 383 417 l 1
 441 417 482 486 500 553 c 0
 516 614 535 685 486 685 c 0
 395 685 354 565 326 459 c 2
 218 56 l 1
 241 44 269 37 299 37 c 0
 382 37 461 116 484 203 c 0
EndSplineSet
EndChar

StartChar: blanksymbol
Encoding: 9250 9250 196
Width: 611
Flags: MW
HStem: -15 43<217.5 256.5 217.5 273> 408 71 675 54 716 20G<351 351>
VStem: 28 143<96.5 129 81.5 161> 394 163<311.5 354.5>
LayerCount: 2
Fore
SplineSet
557 307 m 0x50
 557 223 515 133 446 69 c 0
 386 13 314 -15 232 -15 c 0
 109 -15 28 48 28 145 c 0
 28 177 29 180 50 252 c 2
 117 479 l 1
 19 452 l 1
 19 506 l 1
 135 537 l 1
 147 578 l 2
 160 622 163 634 163 644 c 0
 163 669 151 675 101 675 c 2
 77 675 l 1xec
 84 722 l 1
 351 736 l 1
 306 584 l 1
 466 627 l 1
 466 574 l 1
 289 525 l 1
 260 427 l 1
 305 465 341 479 389 479 c 0
 484 479 557 405 557 307 c 0x50
347 141 m 0
 371 195 394 290 394 333 c 0
 394 376 367 408 330 408 c 0
 291 408 259 378 228 316 c 0
 197 253 171 154 171 104 c 0
 171 59 198 28 237 28 c 0
 276 28 314 67 347 141 c 0
EndSplineSet
EndChar

StartChar: breve
Encoding: 728 728 197
Width: 333
Flags: MW
HStem: 548 79<165 218.5> 692 20G<51 97 97 97 325 372 372 372>
LayerCount: 2
Fore
SplineSet
372 712 m 1
 369 676 355 640 330 610 c 0
 295 568 249 548 188 548 c 0
 100 548 49 597 49 683 c 0
 49 689 50 699 51 712 c 1
 97 712 l 1
 102 652 132 627 198 627 c 0
 260 627 312 661 325 712 c 1
 372 712 l 1
EndSplineSet
EndChar

StartChar: uni032E
Encoding: 814 814 198
Width: 0
Flags: MW
HStem: -225 71<-421.5 -357.5> -97 20G<-559 -503 -503 -503 -230 -173 -173 -173>
LayerCount: 2
Fore
SplineSet
-173 -77 m 1
 -177 -110 -194 -142 -224 -169 c 0
 -266 -207 -321 -225 -394 -225 c 0
 -514 -225 -575 -164 -559 -77 c 1
 -503 -77 l 1
 -497 -131 -461 -154 -382 -154 c 0
 -308 -154 -245 -123 -230 -77 c 1
 -173 -77 l 1
EndSplineSet
EndChar

StartChar: uni032F
Encoding: 815 815 199
Width: 0
Flags: MW
HStem: -225 21G<-597 -540 -597 -597 -267 -211 -267 -267> -148 71<-412.5 -348.5>
LayerCount: 2
Fore
SplineSet
-211 -225 m 1
 -267 -225 l 1
 -273 -171 -309 -148 -388 -148 c 0
 -462 -148 -525 -179 -540 -225 c 1
 -597 -225 l 1
 -593 -192 -576 -160 -546 -133 c 0
 -504 -95 -449 -77 -376 -77 c 0
 -256 -77 -195 -138 -211 -225 c 1
EndSplineSet
EndChar

StartChar: uni0306
Encoding: 774 774 200
Width: 0
Flags: MW
HStem: 548 79<-210 -156.5> 692 20G<-324 -278 -278 -278 -50 -3 -3 -3>
LayerCount: 2
Fore
SplineSet
-3 712 m 1
 -6 676 -20 640 -45 610 c 0
 -80 568 -126 548 -187 548 c 0
 -275 548 -326 597 -326 683 c 0
 -326 689 -325 699 -324 712 c 1
 -278 712 l 1
 -273 652 -243 627 -177 627 c 0
 -115 627 -63 661 -50 712 c 1
 -3 712 l 1
EndSplineSet
EndChar

StartChar: uni0311
Encoding: 785 785 201
Width: 0
Flags: MW
HStem: 548 21G<-365 -318 -365 -365 -90 -44 -90 -90> 633 79<-211.5 -158>
LayerCount: 2
Fore
SplineSet
-44 548 m 1
 -90 548 l 1
 -95 608 -125 633 -191 633 c 0
 -253 633 -305 599 -318 548 c 1
 -365 548 l 1
 -362 584 -348 620 -323 650 c 0
 -288 692 -242 712 -181 712 c 0
 -93 712 -42 663 -42 577 c 0
 -42 571 -43 561 -44 548 c 1
EndSplineSet
EndChar

StartChar: brokenbar
Encoding: 166 166 202
Width: 606
Flags: MW
TeX: 457 250
HStem: -108 21G<248 348 248 248> 702 20G<248 348 348 348>
VStem: 248 100<-108 224 390 722>
LayerCount: 2
Fore
SplineSet
348 390 m 1
 248 390 l 1
 248 722 l 1
 348 722 l 1
 348 390 l 1
348 -108 m 1
 248 -108 l 1
 248 224 l 1
 348 224 l 1
 348 -108 l 1
EndSplineSet
EndChar

StartChar: bullet
Encoding: 8226 8226 203
Width: 606
Flags: MW
HStem: 180 21G<230 323> 497 20G<231 323.5>
LayerCount: 2
Fore
SplineSet
446 349 m 0
 446 255 371 180 275 180 c 0
 185 180 109 257 109 349 c 0
 109 441 185 517 277 517 c 0
 370 517 446 442 446 349 c 0
EndSplineSet
EndChar

StartChar: Cacute
Encoding: 262 262 204
Width: 759
Flags: MW
HStem: -15 63<344 442.5 344 448.5> 684 53<404 512.5 355.5 540.5> 770 21G<406 471 406 406> 916 20G<625 657>
VStem: 35 190<197.5 329.5 179.5 411.5>
LayerCount: 2
Fore
SplineSet
679 212 m 1
 640 88 529 -15 368 -15 c 0
 170 -15 35 103 35 292 c 0
 35 531 238 737 473 737 c 0
 552 737 611 711 657 655 c 1
 713 712 l 1
 759 712 l 1
 701 426 l 1
 652 432 l 1
 647 603 594 684 487 684 c 0
 321 684 225 421 225 238 c 0
 225 121 291 48 397 48 c 0
 488 48 579 116 616 212 c 1
 679 212 l 1
704 889 m 0x30
 704 872 692 859 670 850 c 2
 471 770 l 1
 406 770 l 1
 555 896 l 2
 595 930 611 936 639 936 c 0
 675 936 704 915 704 889 c 0x30
EndSplineSet
Substitution2: "'c2sc' Capitals to Small Capitals lookup 15 subtable" cacute.sc
Substitution2: "'aalt' Access All Alternates lookup 0 subtable" cacute.sc
Position2: "'cpsp' Capital Spacing lookup 0 subtable" dx=7 dy=0 dh=14 dv=0
EndChar

StartChar: cacute
Encoding: 263 263 205
Width: 537
Flags: MW
HStem: -14 61<226 254> 257 221<231 427> 431 47<310 343> 538 21G<235 289 235 235> 702 20G<417 444>
VStem: 3 165<114.5 172 113.5 254.5> 323 164<322 343>
LayerCount: 2
Fore
SplineSet
442 116 m 1xa6
 370 26 298 -14 210 -14 c 0
 84 -14 3 58 3 171 c 0
 3 338 146 478 316 478 c 0
 420 478 487 427 487 350 c 0
 487 294 453 257 401 257 c 0xc6
 355 257 323 287 323 329 c 0
 323 357 333 373 361 390 c 0
 370 396 373 399 373 406 c 0
 373 421 355 431 331 431 c 0
 289 431 251 401 220 344 c 0
 190 289 168 203 168 141 c 0
 168 86 202 47 250 47 c 0
 298 47 347 78 406 147 c 1
 442 116 l 1xa6
483 670 m 0x18
 483 651 473 636 455 626 c 2
 289 538 l 1
 235 538 l 1
 359 677 l 2
 393 714 405 722 429 722 c 0
 459 722 483 699 483 670 c 0x18
EndSplineSet
Substitution2: "'smcp' Lowercase to Small Capitals lookup 3 subtable" cacute.sc
Substitution2: "'aalt' Access All Alternates lookup 0 subtable" cacute.sc
EndChar

StartChar: caron
Encoding: 711 711 206
Width: 333
Flags: MW
HStem: 542 21G<136 238 136 136> 698 20G<52 111 111 111 327 395 395 395>
LayerCount: 2
Fore
SplineSet
395 718 m 1
 238 542 l 1
 136 542 l 1
 52 718 l 1
 111 718 l 1
 201 630 l 1
 327 718 l 1
 395 718 l 1
EndSplineSet
EndChar

StartChar: uni030C
Encoding: 780 780 207
Width: 0
Flags: MW
HStem: 542 21G<-239 -137 -239 -239> 698 20G<-323 -264 -264 -264 -48 20 20 20>
LayerCount: 2
Fore
SplineSet
20 718 m 1
 -137 542 l 1
 -239 542 l 1
 -323 718 l 1
 -264 718 l 1
 -174 630 l 1
 -48 718 l 1
 20 718 l 1
EndSplineSet
EndChar

StartChar: Ccaron
Encoding: 268 268 208
Width: 759
Flags: MW
HStem: -15 63<344 442.5 344 448.5> 684 53<404 512.5 355.5 540.5> 775 21G<468 590 468 468> 912 20G<368 438 438 438 698 778 778 778>
VStem: 35 190<197.5 329.5 179.5 411.5>
LayerCount: 2
Fore
SplineSet
679 212 m 1
 640 88 529 -15 368 -15 c 0
 170 -15 35 103 35 292 c 0
 35 531 238 737 473 737 c 0
 552 737 611 711 657 655 c 1
 713 712 l 1
 759 712 l 1
 701 426 l 1
 652 432 l 1
 647 603 594 684 487 684 c 0
 321 684 225 421 225 238 c 0
 225 121 291 48 397 48 c 0
 488 48 579 116 616 212 c 1
 679 212 l 1
778 932 m 1x30
 590 775 l 1
 468 775 l 1
 368 932 l 1
 438 932 l 1
 546 854 l 1
 698 932 l 1
 778 932 l 1x30
EndSplineSet
Substitution2: "'c2sc' Capitals to Small Capitals lookup 15 subtable" ccaron.sc
Substitution2: "'aalt' Access All Alternates lookup 0 subtable" ccaron.sc
Position2: "'cpsp' Capital Spacing lookup 0 subtable" dx=7 dy=0 dh=14 dv=0
EndChar

StartChar: ccaron
Encoding: 269 269 209
Width: 537
Flags: MW
HStem: -14 61<226 254> 257 221<231 427> 431 47<310 343> 542 21G<282 384 282 282> 698 20G<198 257 257 257 473 541 541 541>
VStem: 3 165<114.5 172 113.5 254.5> 323 164<322 343>
LayerCount: 2
Fore
SplineSet
442 116 m 1xa6
 370 26 298 -14 210 -14 c 0
 84 -14 3 58 3 171 c 0
 3 338 146 478 316 478 c 0
 420 478 487 427 487 350 c 0
 487 294 453 257 401 257 c 0xc6
 355 257 323 287 323 329 c 0
 323 357 333 373 361 390 c 0
 370 396 373 399 373 406 c 0
 373 421 355 431 331 431 c 0
 289 431 251 401 220 344 c 0
 190 289 168 203 168 141 c 0
 168 86 202 47 250 47 c 0
 298 47 347 78 406 147 c 1
 442 116 l 1xa6
541 718 m 1x18
 384 542 l 1
 282 542 l 1
 198 718 l 1
 257 718 l 1
 347 630 l 1
 473 718 l 1
 541 718 l 1x18
EndSplineSet
Substitution2: "'smcp' Lowercase to Small Capitals lookup 3 subtable" ccaron.sc
Substitution2: "'aalt' Access All Alternates lookup 0 subtable" ccaron.sc
EndChar

StartChar: Ccedilla
Encoding: 199 199 210
Width: 759
Flags: MW
TeX: 678 250
ItalicCorrection: 38
HStem: -222 45<289.5 310.5 285 351> -104 45<299 384.5> 684 53<454 512.5 355.5 540.5>
VStem: 35 190<207.5 293 179 411.5> 345 101<-150 -129>
LayerCount: 2
Fore
SplineSet
679 212 m 1
 627 64 513 -18 361 -15 c 1
 327 -62 l 1
 340 -60 352 -59 360 -59 c 0
 409 -59 446 -91 446 -134 c 0
 446 -186 391 -222 311 -222 c 0
 268 -222 229 -212 202 -193 c 1
 224 -158 l 1
 256 -172 274 -177 296 -177 c 0
 325 -177 345 -161 345 -139 c 0
 345 -119 327 -104 303 -104 c 0
 295 -104 289 -105 274 -108 c 1
 257 -91 l 1
 317 -12 l 1
 138 11 35 123 35 292 c 0
 35 531 238 737 473 737 c 0
 552 737 611 711 657 655 c 1
 713 712 l 1
 759 712 l 1
 701 426 l 1
 652 432 l 1
 647 603 594 684 487 684 c 0
 421 684 361 646 320 576 c 0
 261 479 225 349 225 237 c 0
 225 121 291 47 397 47 c 0
 488 47 579 115 616 212 c 1
 679 212 l 1
EndSplineSet
Substitution2: "'c2sc' Capitals to Small Capitals lookup 15 subtable" ccedilla.sc
Substitution2: "'aalt' Access All Alternates lookup 0 subtable" ccedilla.sc
Position2: "'cpsp' Capital Spacing lookup 0 subtable" dx=7 dy=0 dh=14 dv=0
EndChar

StartChar: ccedilla
Encoding: 231 231 211
Width: 537
Flags: MW
TeX: 457 250
ItalicCorrection: 19
HStem: -220 45<127.5 148 123 189> -102 44<136.5 222.5> -15 61<226 256> 257 222<231 427> 432 47<309.5 343>
VStem: 3 165<123 171.5 112.5 254.5> 183 101<-148 -127> 323 164<322 343>
LayerCount: 2
Fore
SplineSet
442 116 m 1x2d
 371 27 298 -15 214 -15 c 1
 214 -15 206 -15 199 -14 c 1
 164 -61 l 1
 178 -59 189 -58 198 -58 c 0
 247 -58 284 -90 284 -133 c 0
 284 -185 229 -220 149 -220 c 0
 106 -220 67 -210 40 -191 c 1
 62 -156 l 1
 94 -170 113 -175 133 -175 c 0
 163 -175 183 -159 183 -137 c 0
 183 -117 165 -102 140 -102 c 0
 133 -102 126 -103 111 -106 c 1
 95 -89 l 1
 157 -10 l 1
 59 10 3 75 3 171 c 0
 3 338 146 479 316 479 c 0
 420 479 487 428 487 350 c 0
 487 294 453 257 401 257 c 0xf7
 355 257 323 287 323 329 c 0
 323 357 333 374 361 391 c 0
 370 396 373 400 373 407 c 0
 373 422 355 432 331 432 c 0
 288 432 251 402 220 345 c 0
 190 289 168 203 168 140 c 0
 168 85 202 46 250 46 c 0
 298 46 348 78 406 147 c 1
 442 116 l 1x2d
EndSplineSet
Substitution2: "'smcp' Lowercase to Small Capitals lookup 3 subtable" ccedilla.sc
Substitution2: "'aalt' Access All Alternates lookup 0 subtable" ccedilla.sc
EndChar

StartChar: Ccircumflex
Encoding: 264 264 212
Width: 759
Flags: MW
HStem: -15 63<344 442.5 344 448.5> 684 53<404 512.5 355.5 540.5> 775 21G<326 406 326 326 666 736 666 666> 912 20G<514 636 636 636>
VStem: 35 190<197.5 329.5 179.5 411.5>
LayerCount: 2
Fore
SplineSet
679 212 m 1
 640 88 529 -15 368 -15 c 0
 170 -15 35 103 35 292 c 0
 35 531 238 737 473 737 c 0
 552 737 611 711 657 655 c 1
 713 712 l 1
 759 712 l 1
 701 426 l 1
 652 432 l 1
 647 603 594 684 487 684 c 0
 321 684 225 421 225 238 c 0
 225 121 291 48 397 48 c 0
 488 48 579 116 616 212 c 1
 679 212 l 1
736 775 m 1x30
 666 775 l 1
 558 853 l 1
 406 775 l 1
 326 775 l 1
 514 932 l 1
 636 932 l 1
 736 775 l 1x30
EndSplineSet
Substitution2: "'c2sc' Capitals to Small Capitals lookup 15 subtable" ccircumflex.sc
Substitution2: "'aalt' Access All Alternates lookup 0 subtable" ccircumflex.sc
Position2: "'cpsp' Capital Spacing lookup 0 subtable" dx=7 dy=0 dh=14 dv=0
EndChar

StartChar: ccircumflex
Encoding: 265 265 213
Width: 537
Flags: MW
HStem: -14 61<226 254> 257 221<231 427> 431 47<310 343> 543 21G<162 229 162 162 445 504 445 445> 697 20G<319 420 420 420>
VStem: 3 165<114.5 172 113.5 254.5> 323 164<322 343>
LayerCount: 2
Fore
SplineSet
442 116 m 1xa6
 370 26 298 -14 210 -14 c 0
 84 -14 3 58 3 171 c 0
 3 338 146 478 316 478 c 0
 420 478 487 427 487 350 c 0
 487 294 453 257 401 257 c 0xc6
 355 257 323 287 323 329 c 0
 323 357 333 373 361 390 c 0
 370 396 373 399 373 406 c 0
 373 421 355 431 331 431 c 0
 289 431 251 401 220 344 c 0
 190 289 168 203 168 141 c 0
 168 86 202 47 250 47 c 0
 298 47 347 78 406 147 c 1
 442 116 l 1xa6
504 543 m 1x18
 445 543 l 1
 355 629 l 1
 229 543 l 1
 162 543 l 1
 319 717 l 1
 420 717 l 1
 504 543 l 1x18
EndSplineSet
Substitution2: "'smcp' Lowercase to Small Capitals lookup 3 subtable" ccircumflex.sc
Substitution2: "'aalt' Access All Alternates lookup 0 subtable" ccircumflex.sc
EndChar

StartChar: Cdotaccent
Encoding: 266 266 214
Width: 759
Flags: MW
HStem: -15 63<344 442.5 344 448.5> 684 53<404 512.5 355.5 540.5> 782 143<533 572>
VStem: 35 190<197.5 329.5 179.5 411.5>
LayerCount: 2
Fore
SplineSet
679 212 m 1
 640 88 529 -15 368 -15 c 0
 170 -15 35 103 35 292 c 0
 35 531 238 737 473 737 c 0
 552 737 611 711 657 655 c 1
 713 712 l 1
 759 712 l 1
 701 426 l 1
 652 432 l 1
 647 603 594 684 487 684 c 0
 321 684 225 421 225 238 c 0
 225 121 291 48 397 48 c 0
 488 48 579 116 616 212 c 1
 679 212 l 1
624 854 m 0x20
 624 814 592 782 552 782 c 0
 513 782 481 815 481 854 c 0
 481 893 513 925 553 925 c 0
 592 925 624 893 624 854 c 0x20
EndSplineSet
Substitution2: "'c2sc' Capitals to Small Capitals lookup 15 subtable" cdotaccent.sc
Substitution2: "'aalt' Access All Alternates lookup 0 subtable" cdotaccent.sc
Position2: "'cpsp' Capital Spacing lookup 0 subtable" dx=7 dy=0 dh=14 dv=0
EndChar

StartChar: cdotaccent
Encoding: 267 267 215
Width: 537
Flags: MW
HStem: -14 61<226 254> 257 221<231 427> 431 47<310 343> 559 143<337 376>
VStem: 3 165<114.5 172 113.5 254.5> 323 164<322 343>
LayerCount: 2
Fore
SplineSet
442 116 m 1xac
 370 26 298 -14 210 -14 c 0
 84 -14 3 58 3 171 c 0
 3 338 146 478 316 478 c 0
 420 478 487 427 487 350 c 0
 487 294 453 257 401 257 c 0xcc
 355 257 323 287 323 329 c 0
 323 357 333 373 361 390 c 0
 370 396 373 399 373 406 c 0
 373 421 355 431 331 431 c 0
 289 431 251 401 220 344 c 0
 190 289 168 203 168 141 c 0
 168 86 202 47 250 47 c 0
 298 47 347 78 406 147 c 1
 442 116 l 1xac
428 631 m 0x10
 428 591 396 559 356 559 c 0
 317 559 285 592 285 631 c 0
 285 670 317 702 357 702 c 0
 396 702 428 670 428 631 c 0x10
EndSplineSet
Substitution2: "'smcp' Lowercase to Small Capitals lookup 3 subtable" cdotaccent.sc
Substitution2: "'aalt' Access All Alternates lookup 0 subtable" cdotaccent.sc
EndChar

StartChar: cedilla
Encoding: 184 184 216
Width: 333
Flags: MW
TeX: 678 271
ItalicCorrection: 13
HStem: -220 45<0.5 21.5 -3.5 62> -102 44<10 95.5> -15 20G<39 84 84 84>
VStem: 56 101<-148 -127>
LayerCount: 2
Fore
SplineSet
157 -133 m 0
 157 -185 102 -220 22 -220 c 0
 -21 -220 -60 -210 -87 -191 c 1
 -65 -156 l 1
 -33 -170 -14 -175 7 -175 c 0
 36 -175 56 -159 56 -137 c 0
 56 -117 38 -102 14 -102 c 0
 6 -102 0 -103 -15 -106 c 1
 -32 -89 l 1
 39 5 l 1
 84 5 l 1
 38 -61 l 1
 51 -59 62 -58 71 -58 c 0
 120 -58 157 -90 157 -133 c 0
EndSplineSet
EndChar

StartChar: cent
Encoding: 162 162 217
Width: 574
Flags: MW
TeX: 704 0
ItalicCorrection: 19
HStem: -137 21G<134 188 134 134> 259 225<259 452.5> 437 47<337 354 259 370> 566 20G<457 511 511 511>
VStem: 30 164<128.5 171.5 128.5 257>
LayerCount: 2
Fore
SplineSet
470 116 m 1xd8
 464 109 l 2
 384 18 335 -10 243 -15 c 1
 188 -137 l 1
 134 -137 l 1
 190 -12 l 1
 103 -5 30 80 30 174 c 0
 30 340 175 484 343 484 c 0
 365 484 386 481 408 476 c 1
 457 586 l 1
 511 586 l 1
 454 457 l 1
 492 434 514 395 514 351 c 0
 514 297 478 259 427 259 c 0
 406 259 389 265 374 278 c 1
 271 48 l 1
 278 48 l 2
 308 48 341 62 373 88 c 0
 388 100 400 112 434 147 c 1
 470 116 l 1xd8
403 411 m 1
 403 424 381 437 359 437 c 0x20
 315 437 275 404 244 341 c 0
 216 285 194 198 194 145 c 0
 194 112 205 86 225 66 c 1
 357 360 l 2
 367 381 374 389 397 403 c 0
 400 405 403 411 403 411 c 1
EndSplineSet
Substitution2: "'onum' Oldstyle Figures lookup 5 subtable" cent.oldstyle
Substitution2: "'aalt' Access All Alternates lookup 0 subtable" cent.oldstyle
EndChar

StartChar: centigrade
Encoding: 8451 8451 218
Width: 1045
Flags: MW
HStem: -15 63<679 777.5 679 783.5> 380 57<194.5 246 194.5 262> 629 57<195 247> 684 53<739 847.5 690.5 875.5>
VStem: 70 56<506.5 559.5 506.5 576.5> 313 57<506 559.5> 370 190<197.5 329.5 179.5 411.5 179.5 576>
LayerCount: 2
Fore
SplineSet
370 533 m 0xec
 370 447 304 380 220 380 c 0
 136 380 70 448 70 534 c 0
 70 619 138 686 223 686 c 0
 306 686 370 619 370 533 c 0xec
1014 212 m 1
 975 88 864 -15 703 -15 c 0
 505 -15 370 103 370 292 c 0
 370 531 573 737 808 737 c 0
 887 737 946 711 992 655 c 1
 1048 712 l 1
 1094 712 l 1
 1036 426 l 1
 987 432 l 1
 982 603 929 684 822 684 c 0
 656 684 560 421 560 238 c 0xda
 560 121 626 48 732 48 c 0
 823 48 914 116 951 212 c 1
 1014 212 l 1
313 533 m 0
 313 586 272 629 222 629 c 0x24
 168 629 126 586 126 533 c 0
 126 480 169 437 220 437 c 0
 272 437 313 479 313 533 c 0
EndSplineSet
EndChar

StartChar: Chi
Encoding: 935 935 219
Width: 741
Flags: MW
HStem: 0 54<-65 -65 226 241 -72 -65 318 359 359 378 682 698> 668 54<71 100 63 445 384.5 405 405 438 507 521 804 804>
LayerCount: 2
Fore
SplineSet
698 0 m 1
 311 0 l 1
 318 54 l 1
 359 54 l 2
 397 54 409 59 409 76 c 0
 409 84 408 88 399 109 c 2
 326 279 l 1
 191 147 l 2
 170 127 160 109 160 94 c 0
 160 67 182 54 226 54 c 2
 248 54 l 1
 241 0 l 1
 -72 0 l 1
 -65 54 l 1
 -15 53 24 73 83 129 c 2
 300 342 l 1
 174 622 l 2
 156 661 145 668 100 668 c 2
 63 668 l 1
 71 722 l 1
 445 722 l 1
 438 668 l 1
 405 668 l 2
 364 668 351 663 351 648 c 0
 351 642 354 633 360 619 c 2
 429 468 l 1
 552 590 l 2
 568 605 576 621 576 636 c 0
 576 658 561 668 521 668 c 2
 500 668 l 1
 507 722 l 1
 811 722 l 1
 804 668 l 1
 732 663 710 651 633 577 c 2
 453 404 l 1
 585 109 l 2
 605 65 624 54 682 54 c 2
 705 54 l 1
 698 0 l 1
EndSplineSet
EndChar

StartChar: chi
Encoding: 967 967 220
Width: 620
Flags: MW
HStem: -238 100<459 489.5 459 504.5> 382 100<240.5 272.5>
LayerCount: 2
Fore
SplineSet
597 -86 m 1
 577 -160 536 -238 473 -238 c 0
 404 -238 374 -176 364 -110 c 2
 347 2 l 1
 290 -73 241 -150 219 -235 c 1
 57 -235 l 1
 97 -87 214 38 321 166 c 1
 301 298 l 2
 295 335 288 382 257 382 c 0
 224 382 192 351 183 317 c 1
 133 330 l 1
 152 404 193 482 257 482 c 0
 326 482 340 385 353 306 c 2
 366 221 l 1
 430 302 486 386 511 479 c 1
 672 479 l 1
 630 323 502 192 391 57 c 1
 415 -102 l 2
 419 -127 445 -138 473 -138 c 0
 506 -138 537 -107 547 -73 c 1
 597 -86 l 1
EndSplineSet
EndChar

